<?xml version="1.0" encoding="utf-8"?>
<!-- Generator: Adobe Illustrator 18.0.0, SVG Export Plug-In . SVG Version: 6.00 Build 0)  -->
<!DOCTYPE svg PUBLIC "-//W3C//DTD SVG 1.1//EN" "http://www.w3.org/Graphics/SVG/1.1/DTD/svg11.dtd">
<svg version="1.1" xmlns="http://www.w3.org/2000/svg" xmlns:xlink="http://www.w3.org/1999/xlink" x="0px" y="0px"
	 viewBox="0 0 745.5 234" enable-background="new 0 0 745.5 234" xml:space="preserve">
<g id="Layer_7_copy">
	<g>
		<path fill="#C0D731" d="M169.7,112c0,0.7-0.5,1.3-0.5,2c0,0.7-0.9,1.3-0.9,2c0,0.7-0.1,1.3-0.1,2c0,0.7,0.2,1.3,0.1,2
			c-0.1,0.7,0.8,1.4,0.7,2.1c-0.1,0.7-0.5,1.3-0.6,1.9c-0.1,0.7-0.7,1.2-0.8,1.9c-0.1,0.7-0.1,1.3-0.3,2c-0.1,0.7,0.5,1.5,0.3,2.1
			c-0.1,0.7-1.1,1.1-1.3,1.7c-0.2,0.6,0,1.4-0.2,2c-0.2,0.6-0.9,1.1-1.1,1.8c-0.2,0.6,1.1,1.8,0.9,2.4c-0.2,0.6-1.8,0.8-2,1.4
			c-0.2,0.6,0.8,1.8,0.6,2.4c-0.2,0.6-0.9,1.1-1.1,1.7c-0.3,0.6-1.2,1-1.4,1.6c-0.3,0.6,0.6,1.8,0.3,2.4c-0.3,0.6-2.2,0.4-2.5,1
			c-0.3,0.6-0.4,1.3-0.7,1.9c-0.3,0.6-0.7,1.1-1.1,1.7c-0.3,0.6-0.9,1-1.3,1.6c-0.3,0.6-0.2,1.4-0.6,2c-0.4,0.6-0.1,1.5-0.5,2.1
			c-0.4,0.6-1.8,0.3-2.2,0.9c-0.4,0.5-0.5,1.3-0.9,1.8c-0.4,0.5-0.2,1.5-0.6,2c-0.4,0.5-1.4,0.6-1.8,1.1c-0.4,0.5-1.1,0.8-1.5,1.3
			c-0.4,0.5,0.2,2-0.2,2.5c-0.5,0.5-1.9,0.1-2.3,0.5c-0.5,0.5-0.7,1.2-1.2,1.6c-0.5,0.5-0.2,1.8-0.7,2.2c-0.5,0.5-1.9-0.1-2.4,0.3
			c-0.5,0.4-1,0.9-1.5,1.3c-0.5,0.4-0.8,1.1-1.4,1.5c-0.5,0.4-0.5,1.5-1.1,1.9c-0.5,0.4-1.2,0.6-1.8,1c-0.5,0.4-1.3,0.5-1.8,0.9
			c-0.6,0.4-1,0.9-1.6,1.3c-0.6,0.4-1.1,0.8-1.7,1.2c-0.6,0.3-1.2,0.7-1.8,1c-0.6,0.3-1.4,0.3-1.9,0.6c-0.6,0.3-0.7,1.5-1.3,1.8
			c-0.6,0.3-1.6-0.3-2.2,0c-0.6,0.3-0.9,1.3-1.5,1.6c-0.6,0.3-1.7-0.5-2.3-0.2c-0.6,0.3-1.1,0.7-1.8,1c-0.6,0.2-1.2,0.7-1.8,1
			c-0.6,0.2-1.3,0.5-1.9,0.7c-0.6,0.2-1.6-0.6-2.2-0.4c-0.6,0.2-1.2,0.8-1.8,0.9c-0.6,0.2-1.2,0.8-1.8,0.9c-0.6,0.2-1.4,0-2,0.1
			c-0.7,0.1-1.4,0-2,0.1c-0.7,0.1-1.1,1.6-1.7,1.7c-0.7,0.1-1.4-0.2-2.1-0.1c-0.7,0.1-1.3,0.1-2,0.2c-0.7,0.1-1.4-0.8-2.1-0.8
			c-0.7,0.1-1.3,0.1-2,0.2c-0.7,0-1.2,1.6-1.9,1.6c-0.7,0-1.4-0.3-2-0.3c-0.7,0-1.3-0.5-2-0.5c-0.7,0-1.3-0.1-2-0.1
			c-0.7,0-1.4,0.3-2,0.3c-0.7,0-1.3-1.2-1.9-1.3c-0.7,0-1.4,0.7-2.1,0.7c-0.7-0.1-1.3-0.2-2-0.3c-0.7-0.1-1.5,1-2.2,0.9
			c-0.7-0.1-1.2-1-1.9-1.1c-0.7-0.1-1.4-0.1-2-0.2c-0.7-0.1-1.4,0-2-0.2c-0.7-0.1-1-1.4-1.7-1.5c-0.6-0.2-1.6,0.9-2.3,0.8
			c-0.6-0.2-1-1.2-1.7-1.4c-0.6-0.2-1.2-0.7-1.8-0.9c-0.6-0.2-1.4-0.2-2-0.4c-0.6-0.2-1.1-0.8-1.7-1.1c-0.6-0.2-1.3-0.3-1.9-0.5
			c-0.6-0.3-1.7,0.4-2.3,0.1c-0.6-0.3-1.1-0.8-1.7-1.1c-0.6-0.3-1.2-0.6-1.8-0.9c-0.6-0.3-1-0.9-1.6-1.3c-0.6-0.3-1.2-0.7-1.7-1
			c-0.6-0.3-1.2-0.5-1.8-0.9c-0.6-0.3-0.8-1.3-1.3-1.7c-0.6-0.4-1.7,0.2-2.3-0.2c-0.6-0.4-0.7-1.3-1.3-1.7c-0.5-0.4-1.4-0.4-1.9-0.8
			c-0.5-0.4-0.3-1.8-0.8-2.2c-0.5-0.4-1.5-0.3-2-0.7c-0.5-0.4-1.3-0.5-1.8-1c-0.5-0.4-1.3-0.6-1.7-1.1c-0.5-0.5-0.4-1.5-0.9-2
			c-0.5-0.5-0.5-1.4-1-1.9c-0.5-0.5-1.2-0.7-1.7-1.2c-0.5-0.5-1.4-0.6-1.8-1.1c-0.4-0.5-0.4-1.4-0.8-2c-0.4-0.5-1-0.9-1.4-1.4
			c-0.4-0.5-1-0.9-1.4-1.5c-0.4-0.5-0.6-1.2-1-1.7c-0.4-0.5-0.2-1.5-0.6-2c-0.4-0.6-1.3-0.7-1.7-1.3c-0.4-0.6-0.8-1.1-1.1-1.6
			c-0.3-0.6-0.7-1.2-1-1.7c-0.3-0.6-0.5-1.2-0.8-1.8c-0.3-0.6-0.6-1.2-0.9-1.8c-0.3-0.6-0.5-1.2-0.8-1.8c-0.3-0.6-1.4-0.8-1.6-1.5
			c-0.3-0.6,0.1-1.5-0.1-2.1c-0.3-0.6-0.9-1.1-1.1-1.7c-0.2-0.6-0.8-1.1-1-1.8c-0.2-0.6,0.2-1.5,0-2.1c-0.2-0.6-0.2-1.3-0.4-2
			c-0.2-0.6-0.8-1.2-1-1.8c-0.2-0.6,0.1-1.4-0.1-2c-0.2-0.6-0.6-1.2-0.8-1.9c-0.1-0.7-0.9-1.2-1.1-1.8c-0.1-0.7,0.4-1.5,0.3-2.1
			c-0.1-0.7-0.7-1.2-0.8-1.9c-0.1-0.7,0.2-1.4,0.1-2c-0.1-0.7,0.6-1.4,0.6-2.1c-0.1-0.7,0.1-1.3,0.1-2c0-0.7-1.4-1.2-1.4-1.9
			c0-0.7,0.1-1.3,0.1-2c0-0.7,0.4-1.3,0.4-2c0-0.7-0.9-1.4-0.9-2c0-0.7,0.7-1.3,0.8-2c0-0.7,0.5-1.3,0.5-2c0-0.7,0.4-1.3,0.5-2
			c0.1-0.7,0.1-1.3,0.2-2c0.1-0.7-0.9-1.5-0.8-2.1c0.1-0.7,1.3-1.1,1.4-1.8c0.1-0.7-1.2-1.6-1.1-2.2c0.1-0.7,1-1.2,1.1-1.8
			c0.1-0.7,0.3-1.3,0.5-1.9c0.2-0.6,0.2-1.3,0.4-2c0.2-0.6,0.1-1.4,0.3-2c0.2-0.6,1.5-0.9,1.7-1.6c0.2-0.6-0.4-1.6-0.2-2.2
			c0.2-0.6,0.9-1.1,1.1-1.7c0.2-0.6,0.1-1.4,0.3-2c0.3-0.6,1-1,1.3-1.6c0.3-0.6-0.5-1.7-0.2-2.3c0.3-0.6,0.9-1.1,1.2-1.7
			c0.3-0.6,1.1-0.9,1.4-1.5c0.3-0.6,1.1-0.9,1.5-1.5c0.3-0.6,0.5-1.2,0.9-1.8c0.3-0.6,0.4-1.3,0.8-1.9c0.4-0.6,0.5-1.3,0.9-1.8
			c0.4-0.6,0.2-1.5,0.6-2c0.4-0.5,1.7-0.4,2.1-0.9c0.4-0.5,0-1.7,0.4-2.2c0.4-0.5,0.9-1,1.4-1.5c0.4-0.5,0.9-1,1.4-1.5
			c0.4-0.5,1.5-0.5,1.9-1c0.5-0.5,0.2-1.7,0.7-2.1c0.5-0.5,2.1,0.2,2.6-0.3c0.5-0.5,0-1.9,0.5-2.4c0.5-0.5,1.6-0.2,2.1-0.7
			c0.5-0.4,0.8-1.1,1.3-1.5c0.5-0.4,0.8-1.1,1.3-1.6c0.5-0.4,1.2-0.7,1.7-1.1c0.5-0.4,1.1-0.8,1.6-1.2c0.5-0.4,1.4-0.3,2-0.7
			c0.6-0.4,0.5-1.6,1.1-2c0.6-0.4,1.2-0.6,1.8-0.9c0.6-0.3,1.1-0.8,1.7-1.1c0.6-0.3,1.6,0,2.1-0.3c0.6-0.3,1.4-0.2,2-0.5
			c0.6-0.3,1.1-0.7,1.7-1c0.6-0.3,1.1-0.7,1.8-0.9c0.6-0.3,0.8-1.5,1.4-1.8c0.6-0.3,1.4-0.2,2-0.5c0.6-0.2,1.3-0.3,2-0.5
			c0.6-0.2,0.9-1.4,1.6-1.6c0.6-0.2,1.5,0.2,2.1,0c0.6-0.2,1.2-0.9,1.8-1c0.6-0.2,1.5,0.3,2.1,0.2c0.6-0.2,1.2-0.6,1.9-0.7
			c0.7-0.1,1.3-0.2,2-0.4c0.7-0.1,1.4,0.1,2,0c0.7-0.1,1.3-0.2,2-0.3c0.7-0.1,1.4,0.1,2,0.1c0.7-0.1,1.3,0,2-0.1
			c0.7-0.1,1.3-0.5,2-0.5c0.7,0,1.3-1.2,1.9-1.2c0.7,0,1.4,0.5,2,0.5c0.7,0,1.3-0.6,2-0.6c0.7,0,1.3,1.1,2,1.1c0.7,0,1.4-0.4,2-0.3
			c0.7,0,1.3,0.1,2,0.2c0.7,0,1.4-0.5,2.1-0.5c0.7,0.1,1.2,1.4,1.8,1.5c0.7,0.1,1.5-0.8,2.1-0.7c0.7,0.1,1.2,0.8,1.9,0.9
			c0.7,0.1,1.4-0.3,2.1-0.2c0.7,0.1,1,1.5,1.7,1.7c0.7,0.1,1.4-0.2,2.1,0c0.6,0.2,1.5-0.6,2.2-0.4c0.6,0.2,1.2,0.6,1.9,0.8
			c0.6,0.2,1,1.2,1.6,1.4c0.6,0.2,1.6-0.4,2.2-0.2c0.6,0.2,1.3,0.3,2,0.5c0.6,0.2,1,1.2,1.6,1.4c0.6,0.3,1.1,0.8,1.7,1.1
			c0.6,0.3,1.1,0.8,1.7,1.1c0.6,0.3,1.2,0.5,1.8,0.9c0.6,0.3,1.5,0.1,2.1,0.4c0.6,0.3,1.5,0.2,2,0.5c0.6,0.3,1.1,0.7,1.7,1.1
			c0.6,0.3,0.7,1.3,1.3,1.7c0.6,0.4,1.1,0.8,1.6,1.2c0.6,0.4,1.5,0.1,2.1,0.5c0.5,0.4,0.7,1.4,1.2,1.8c0.5,0.4,1.3,0.4,1.9,0.9
			c0.5,0.4,1.2,0.7,1.7,1.1c0.5,0.4,0.5,1.5,1,1.9c0.5,0.4,1.1,0.8,1.6,1.2c0.5,0.5,1.8,0.1,2.3,0.6c0.5,0.5-0.1,2,0.4,2.5
			c0.5,0.5,1.2,0.7,1.6,1.2c0.5,0.5,1.7,0.3,2.2,0.8c0.4,0.5,0.9,1,1.3,1.6c0.4,0.5-0.1,1.8,0.4,2.3c0.4,0.5,1.7,0.4,2.1,0.9
			c0.4,0.5,0.2,1.5,0.6,2.1c0.4,0.5,0.9,1,1.2,1.6c0.4,0.6,1.2,0.8,1.6,1.4c0.4,0.6,0.2,1.4,0.6,2c0.3,0.6,0.5,1.2,0.9,1.8
			c0.3,0.6,0.3,1.3,0.6,1.9c0.3,0.6,1,1,1.3,1.6c0.3,0.6,0.7,1.2,0.9,1.8c0.3,0.6,0.7,1.1,1,1.8c0.3,0.6,0.9,1.1,1.2,1.7
			c0.3,0.6-0.2,1.5,0.1,2.1c0.2,0.6,1.3,0.9,1.5,1.6c0.2,0.6-0.4,1.6-0.2,2.2c0.2,0.6,1.1,1,1.3,1.7c0.2,0.6,0.5,1.3,0.6,1.9
			c0.2,0.6,0,1.4,0.2,2c0.2,0.6,0.7,1.2,0.8,1.9c0.1,0.7,0.2,1.3,0.3,2c0.1,0.7,0.4,1.3,0.5,1.9c0.1,0.7-0.7,1.5-0.6,2.1
			c0.1,0.7,0.8,1.2,0.8,1.9c0.1,0.7,0.2,1.3,0.3,2c0.1,0.7-0.6,1.4-0.5,2.1c0,0.7,1.1,1.3,1.1,1.9c0,0.7-0.5,1.4-0.5,2
			C169.1,110.7,169.7,111.3,169.7,112z"/>
	</g>
	<g>
		<path fill="#C0D731" d="M387.5,201.7c-0.9,0.4-0.9,0.5-1.7,0.9c-0.9,0.4-0.9,0.3-1.8,0.8c-0.9,0.4-0.9,0.5-1.7,0.9
			c-0.9,0.4-0.7,0.8-1.6,1.3c-0.9,0.4-1.1,0.1-1.9,0.5c-0.9,0.4-0.7,0.7-1.6,1.2c-0.9,0.4-1,0.1-1.9,0.6c-0.9,0.4-0.8,0.5-1.7,1
			c-0.6,0.3-1.1,1-1.2,1.7c-0.1,1,0,1-0.1,2c-0.1,1-0.5,0.9-0.6,1.9c-0.1,1-0.1,1-0.2,1.9c-0.1,1,0.2,1,0,2c-0.1,1-0.5,0.9-0.7,1.9
			c-0.1,1,0,1-0.1,2c-0.1,1-0.1,1-0.3,1.9s0,1-0.1,2c-0.1,0.9-0.8,1.4-1.6,1.7c-0.7,0.2-1.4,0-2.1-0.6c-0.7-0.7-1-0.4-1.7-1.1
			c-0.7-0.7-0.5-0.9-1.2-1.6c-0.7-0.7-0.6-0.8-1.3-1.5c-0.7-0.7-0.7-0.7-1.4-1.4c-0.7-0.7-0.9-0.5-1.6-1.2c-0.7-0.7-0.3-1-1-1.7
			c-0.7-0.7-0.9-0.5-1.5-1.2c-0.7-0.7-0.8-0.6-1.5-1.3c-0.5-0.5-1.1-0.9-1.8-0.7c-1,0.2-1-0.1-2,0.1c-1,0.2-0.9,0.4-1.9,0.6
			c-1,0.2-1,0.1-1.9,0.2c-1,0.2-0.9,0.5-1.9,0.6c-1,0.2-1-0.2-2-0.1c-1,0.2-0.9,0.4-1.9,0.6c-1,0.2-1,0.2-1.9,0.4
			c-1,0.2-1,0.1-1.9,0.3c-0.9,0.2-1.5-0.5-1.9-1.1c-0.5-0.6-0.8-1.4-0.4-2.2c0.5-0.9,0.4-0.9,0.9-1.8c0.5-0.9,0.4-0.9,0.9-1.8
			c0.5-0.9,0.5-0.9,0.9-1.7c0.5-0.9,0.3-0.9,0.8-1.8c0.5-0.9,0.5-0.8,1-1.7c0.5-0.9,0.6-0.8,1.1-1.7c0.5-0.9,0.6-0.8,1.1-1.6
			c0.5-0.9,0.4-0.9,0.9-1.7c0.3-0.6,0-1.4-0.3-2c-0.5-0.9-0.5-0.9-0.9-1.7c-0.5-0.9-0.1-1-0.6-1.9c-0.5-0.9-0.4-0.9-0.9-1.7
			c-0.5-0.9-0.9-0.6-1.3-1.5c-0.5-0.9-0.3-0.9-0.8-1.8c-0.5-0.9-0.2-1-0.7-1.8c-0.5-0.9-0.8-0.7-1.2-1.6c-0.5-0.9-0.3-1-0.7-1.8
			c-0.4-0.8-0.3-1.7,0.1-2.3s1.3-0.9,2.2-0.8c1,0.2,1-0.1,2,0.1c1,0.2,0.9,0.3,1.9,0.5c1,0.2,0.9,0.3,1.9,0.5c1,0.2,1-0.1,2,0.1
			c1,0.2,0.9,0.3,1.9,0.5c1,0.2,0.9,0.4,1.9,0.6c1,0.2,1-0.1,2,0.1c1,0.2,0.9,0.4,1.9,0.6c0.7,0.1,1.3-0.5,1.8-1.1
			c0.7-0.7,0.7-0.7,1.4-1.4c0.7-0.7,0.7-0.7,1.4-1.4c0.7-0.7,0.9-0.5,1.6-1.2c0.7-0.7,0.6-0.8,1.3-1.5c0.7-0.7,0.7-0.7,1.4-1.4
			c0.7-0.7,0.5-0.9,1.2-1.6c0.7-0.7,0.8-0.6,1.5-1.3c0.7-0.7,0.6-0.8,1.2-1.5c0.6-0.6,1.7-0.6,2.4-0.4s1.4,0.9,1.6,1.7
			c0.1,1,0.1,1,0.3,1.9c0.1,1-0.2,1,0,2c0.1,1,0.2,1,0.3,1.9c0.1,1,0.1,1,0.3,1.9c0.1,1,0.4,0.9,0.6,1.9c0.1,1-0.1,1,0,2
			c0.1,1,0.3,0.9,0.5,1.9c0.1,1,0.4,0.9,0.5,1.9c0.1,0.7,0.3,1.5,1,1.8c0.9,0.4,0.9,0.4,1.8,0.8c0.9,0.4,0.8,0.6,1.7,1
			c0.9,0.4,1,0.2,1.9,0.7c0.9,0.4,0.9,0.3,1.8,0.7c0.9,0.4,0.7,0.8,1.6,1.2c0.9,0.4,0.9,0.4,1.8,0.9c0.9,0.4,0.9,0.3,1.8,0.7
			s0.9,0.4,1.8,0.8c0.8,0.4,1.4,1.1,1.4,1.9C388.9,200.7,388.3,201.3,387.5,201.7z"/>
	</g>
	<g>
		<path fill="#C0D731" d="M461.7,53.7c-0.4-0.8-0.4-0.8-0.8-1.7c-0.4-0.8-0.5-0.8-0.9-1.6c-0.4-0.8-0.3-0.9-0.7-1.7
			c-0.1-0.2-0.4-0.3-0.6-0.3c-0.9-0.1-0.9-0.2-1.9-0.4c-0.9-0.1-0.9-0.1-1.9-0.2c-0.9-0.1-0.9-0.1-1.9-0.2c-0.6-0.1-0.8-0.9-0.4-1.3
			c0.7-0.7,0.7-0.6,1.4-1.3c0.7-0.7,0.6-0.7,1.3-1.4s0.7-0.6,1.4-1.3c0.2-0.2,0.3-0.4,0.3-0.6c-0.2-0.9-0.2-0.9-0.4-1.9
			c-0.2-0.9-0.1-0.9-0.3-1.9c-0.2-0.9-0.2-0.9-0.4-1.9c-0.1-0.6,0.5-1.1,1.1-0.8c0.8,0.4,0.8,0.5,1.6,1c0.8,0.4,0.9,0.4,1.7,0.9
			c0.8,0.4,0.9,0.3,1.8,0.7c0.2,0.1,0.4,0.2,0.6,0.1c0.8-0.4,0.8-0.4,1.7-0.9c0.8-0.4,0.8-0.5,1.7-0.9c0.8-0.4,0.9-0.4,1.7-0.8
			c0.5-0.3,1.1,0.1,1,0.7c-0.2,0.9-0.1,0.9-0.3,1.9c-0.2,0.9-0.1,0.9-0.3,1.9s-0.3,0.9-0.4,1.9c0,0.2,0.1,0.5,0.2,0.7
			c0.7,0.7,0.7,0.7,1.3,1.3c0.7,0.7,0.7,0.7,1.3,1.3c0.7,0.7,0.8,0.5,1.5,1.2c0.4,0.4,0.1,1.1-0.5,1.2c-0.9,0.1-0.9,0.2-1.9,0.4
			c-0.9,0.1-1,0-1.9,0.2c-0.9,0.1-0.9,0.2-1.9,0.3c-0.2,0-0.5,0.2-0.6,0.4c-0.4,0.8-0.4,0.8-0.9,1.7c-0.4,0.8-0.4,0.9-0.8,1.7
			c-0.4,0.8-0.4,0.9-0.8,1.7C462.7,54.3,462,54.2,461.7,53.7z"/>
	</g>
	<g>
		<path fill="#C0D731" d="M408.6,22.4c0.9-0.4,0.9-0.3,1.8-0.7c0.9-0.4,0.9-0.3,1.8-0.8c0.9-0.4,0.8-0.6,1.7-1s0.9-0.3,1.8-0.7
			c0.6-0.3,1-1,1.1-1.7c0.1-1,0-1,0.2-1.9c0.1-1,0.2-0.9,0.4-1.9c0.1-1,0-1,0.1-1.9s0.4-0.9,0.5-1.9c0.1-0.9,0.7-1.4,1.4-1.6
			c0.7-0.2,1.7-0.3,2.3,0.3c0.7,0.7,0.7,0.7,1.3,1.4c0.7,0.7,0.6,0.7,1.3,1.4c0.7,0.7,0.6,0.8,1.3,1.5c0.7,0.7,0.7,0.6,1.4,1.3
			c0.5,0.5,1.2,0.8,1.9,0.7c1-0.2,0.9-0.3,1.9-0.5c1-0.2,1,0.1,1.9-0.1c1-0.2,0.9-0.4,1.9-0.5s0.9-0.2,1.9-0.4
			c0.9-0.2,1.8,0.3,2.3,0.9c0.5,0.6,0.3,1.5-0.1,2.3c-0.4,0.9-0.3,1-0.7,1.8c-0.4,0.9-0.6,0.8-1.1,1.6c-0.5,0.9-0.5,0.9-0.9,1.7
			c-0.5,0.9-0.4,0.9-0.8,1.7c-0.3,0.6-0.2,1.4,0.1,2c0.4,0.9,0.5,0.8,0.9,1.7c0.5,0.9,0.4,0.9,0.9,1.7c0.5,0.9,0.2,1,0.7,1.8
			c0.5,0.9,0.6,0.8,1,1.6c0.4,0.8,0.1,1.6-0.3,2.2c-0.5,0.6-1.1,1-2,0.9c-1-0.2-1,0.1-1.9-0.1c-1-0.2-0.9-0.4-1.9-0.6
			c-1-0.2-1-0.2-1.9-0.3s-1-0.2-1.9-0.3c-0.7-0.1-1.4,0.3-1.9,0.8c-0.7,0.7-0.7,0.6-1.4,1.3c-0.7,0.7-0.7,0.6-1.4,1.3
			c-0.7,0.7-0.6,0.7-1.3,1.4s-0.7,0.7-1.4,1.4c-0.6,0.6-1.4,0.7-2.2,0.5c-0.7-0.2-1.2-0.8-1.4-1.7c-0.1-1-0.2-0.9-0.3-1.9
			c-0.1-1-0.3-0.9-0.5-1.9c-0.1-1,0-1-0.1-1.9c-0.1-1-0.4-0.9-0.5-1.9c-0.1-0.7-0.5-1.2-1.1-1.5c-0.9-0.4-0.7-0.7-1.6-1.1
			c-0.9-0.4-1-0.2-1.8-0.6c-0.9-0.4-0.8-0.6-1.6-1.1c-0.9-0.4-1-0.2-1.9-0.6c-0.8-0.4-1.3-1.3-1.3-2.1
			C407.3,23.7,407.8,22.8,408.6,22.4z"/>
	</g>
	<g>
		<path fill="#C0D731" d="M244.1,36.8c0.4,0.8,0.4,0.7,0.8,1.5c0.4,0.8,0.4,0.7,0.8,1.5c0.1,0.2,0.3,0.4,0.5,0.4
			c0.8,0.1,0.8,0.1,1.7,0.3c0.8,0.1,0.8,0.1,1.7,0.2c0.6,0.1,0.9,0.9,0.4,1.3c-0.6,0.6-0.6,0.6-1.2,1.1s-0.6,0.6-1.2,1.2
			c-0.2,0.2-0.3,0.4-0.3,0.6c0.1,0.8,0.1,0.8,0.3,1.7c0.1,0.8,0.1,0.8,0.3,1.7c0.1,0.6-0.4,1-1,0.7c-0.7-0.4-0.7-0.4-1.5-0.8
			c-0.7-0.4-0.8-0.3-1.5-0.7c-0.2-0.1-0.4-0.1-0.7,0c-0.7,0.4-0.7,0.4-1.5,0.8c-0.7,0.4-0.7,0.4-1.5,0.8c-0.5,0.3-1.2-0.2-1.1-0.8
			c0.1-0.8,0.2-0.8,0.3-1.6c0.1-0.8,0.2-0.8,0.3-1.6c0-0.2-0.1-0.5-0.3-0.6c-0.6-0.6-0.6-0.6-1.2-1.2s-0.7-0.5-1.3-1.1
			c-0.4-0.4-0.2-1.2,0.4-1.3c0.8-0.1,0.8-0.1,1.7-0.2c0.8-0.1,0.8-0.1,1.7-0.2c0.2,0,0.4-0.2,0.5-0.4c0.4-0.8,0.4-0.7,0.8-1.5
			c0.4-0.8,0.3-0.8,0.7-1.5C243,36.2,243.8,36.3,244.1,36.8z"/>
	</g>
	<g>
		<path fill="#C0D731" d="M491.8,187.1c-0.4-0.8-0.4-0.8-0.7-1.5c-0.4-0.8-0.4-0.7-0.8-1.5c-0.1-0.2-0.3-0.4-0.5-0.4
			c-0.8-0.1-0.8-0.1-1.7-0.2c-0.8-0.1-0.8-0.1-1.7-0.2c-0.6-0.1-0.9-0.9-0.4-1.3c0.6-0.6,0.7-0.5,1.3-1.1c0.6-0.6,0.6-0.6,1.2-1.2
			c0.2-0.2,0.3-0.4,0.2-0.7c-0.1-0.8-0.2-0.8-0.3-1.6s-0.1-0.8-0.3-1.6c-0.1-0.6,0.5-1.1,1.1-0.8c0.7,0.4,0.7,0.4,1.5,0.8
			c0.7,0.4,0.7,0.4,1.5,0.8c0.2,0.1,0.5,0.1,0.7,0c0.7-0.4,0.7-0.4,1.5-0.8c0.7-0.4,0.8-0.4,1.5-0.8c0.5-0.3,1.2,0.2,1.1,0.7
			c-0.1,0.8-0.2,0.8-0.3,1.6s-0.1,0.8-0.3,1.7c0,0.2,0,0.5,0.2,0.6c0.6,0.6,0.6,0.6,1.2,1.2c0.6,0.6,0.6,0.6,1.2,1.1
			c0.4,0.4,0.2,1.2-0.4,1.3c-0.8,0.1-0.8,0.1-1.7,0.2c-0.8,0.1-0.8,0.1-1.7,0.2c-0.2,0-0.4,0.2-0.5,0.4c-0.4,0.8-0.4,0.8-0.7,1.5
			c-0.4,0.8-0.4,0.7-0.8,1.5C492.8,187.6,492,187.6,491.8,187.1z"/>
	</g>
	<g>
		<path fill="#C0D731" d="M139.9,193.1c0.4,0.8,0.4,0.7,0.8,1.5c0.4,0.8,0.3,0.8,0.7,1.5c0.1,0.2,0.3,0.4,0.5,0.4
			c0.8,0.1,0.8,0.1,1.7,0.2c0.8,0.1,0.8,0.1,1.7,0.2c0.6,0.1,0.8,0.9,0.4,1.3c-0.6,0.6-0.6,0.6-1.2,1.1s-0.6,0.6-1.2,1.2
			c-0.2,0.2-0.3,0.4-0.3,0.6c0.1,0.8,0.2,0.8,0.4,1.6c0.1,0.8,0.2,0.8,0.3,1.6c0.1,0.6-0.6,1.1-1.1,0.8c-0.7-0.4-0.7-0.4-1.5-0.8
			s-0.7-0.5-1.4-0.9c-0.2-0.1-0.5,0-0.7,0.1c-0.7,0.4-0.7,0.4-1.5,0.8s-0.8,0.3-1.5,0.7c-0.5,0.3-1.1-0.1-1-0.7
			c0.1-0.8,0.1-0.8,0.3-1.7s0.1-0.8,0.2-1.7c0-0.2,0-0.5-0.1-0.7c-0.6-0.6-0.6-0.5-1.2-1.1s-0.6-0.6-1.2-1.2
			c-0.4-0.4-0.2-1.2,0.4-1.3c0.8-0.1,0.8-0.1,1.7-0.2c0.8-0.1,0.8,0,1.7-0.1c0.2,0,0.4-0.2,0.5-0.5c0.4-0.8,0.3-0.8,0.7-1.5
			c0.4-0.8,0.4-0.7,0.8-1.5C138.9,192.6,139.6,192.6,139.9,193.1z"/>
	</g>
	<g>
		<path fill="#C0D731" d="M696.5,100.8c0.4,0.8,0.3,0.8,0.7,1.5c0.4,0.8,0.4,0.7,0.8,1.5c0.1,0.2,0.3,0.4,0.5,0.4
			c0.8,0.1,0.8,0.1,1.7,0.2c0.8,0.1,0.8,0.2,1.6,0.4c0.6,0.1,0.8,0.7,0.4,1.1c-0.6,0.6-0.6,0.6-1.2,1.2c-0.6,0.6-0.6,0.6-1.2,1.2
			c-0.2,0.2-0.3,0.4-0.3,0.6c0.1,0.8,0.2,0.8,0.4,1.6c0.1,0.8,0.1,0.8,0.3,1.7c0.1,0.6-0.5,1-1,0.7c-0.7-0.4-0.7-0.4-1.5-0.8
			s-0.7-0.4-1.5-0.8c-0.2-0.1-0.5-0.1-0.7,0c-0.7,0.4-0.8,0.4-1.5,0.8s-0.7,0.4-1.5,0.8c-0.5,0.3-1.1-0.2-1-0.7
			c0.1-0.8,0.2-0.8,0.3-1.6c0.1-0.8,0.1-0.8,0.2-1.7c0-0.2-0.1-0.4-0.2-0.6c-0.6-0.6-0.6-0.6-1.2-1.2s-0.5-0.7-1.1-1.2
			c-0.4-0.4-0.2-1.1,0.4-1.2c0.8-0.1,0.8-0.2,1.6-0.3c0.8-0.1,0.8,0,1.7-0.1c0.2,0,0.4-0.2,0.5-0.5c0.4-0.8,0.4-0.7,0.8-1.5
			s0.3-0.8,0.7-1.5C695.4,100.3,696.2,100.3,696.5,100.8z"/>
	</g>
	<g>
		<path fill="#C0D731" d="M711.6,119.1c0,0.7-0.3,1.4-0.8,1.8s-1.1,0.8-1.8,0.8c-0.7,0-1.4-0.3-1.9-0.8c-0.5-0.5-0.7-1.1-0.7-1.9
			c0-0.7,0.3-1.4,0.7-1.9c0.5-0.5,1.1-0.8,1.9-0.8c0.7,0,1.4,0.3,1.9,0.8C711.3,117.7,711.6,118.4,711.6,119.1z"/>
	</g>
	<g>
		<path fill="#C0D731" d="M597.5,185.7c0,0.7-0.3,1.4-0.8,1.8s-1.1,0.8-1.8,0.8c-0.7,0-1.4-0.3-1.9-0.7c-0.5-0.5-0.7-1.1-0.7-1.9
			s0.3-1.4,0.8-1.9s1.1-0.8,1.9-0.8c0.7,0,1.4,0.3,1.9,0.8S597.5,185,597.5,185.7z"/>
	</g>
	<g>
		<path fill="#C0D731" d="M506.2,192.4c0,0.7-0.3,1.4-0.8,1.9c-0.5,0.5-1.1,0.8-1.9,0.8c-0.7,0-1.4-0.3-1.8-0.8
			c-0.5-0.5-0.8-1.1-0.8-1.8s0.3-1.4,0.7-1.9s1.1-0.7,1.9-0.7c0.7,0,1.4,0.3,1.8,0.8C505.9,191,506.2,191.6,506.2,192.4z"/>
	</g>
	<g>
		<path fill="#C0D731" d="M261.6,24.4c0,0.7-0.3,1.4-0.8,1.8c-0.5,0.5-1.1,0.8-1.8,0.8c-0.7,0-1.4-0.3-1.9-0.8
			c-0.5-0.5-0.8-1.1-0.8-1.9s0.3-1.4,0.8-1.9s1.1-0.8,1.9-0.8c0.7,0,1.4,0.3,1.8,0.8C261.2,23,261.6,23.7,261.6,24.4z"/>
	</g>
	<g>
		<path fill="#C0D731" d="M108.5,201.2c0,0.7-0.3,1.4-0.8,1.9s-1.1,0.8-1.9,0.8c-0.7,0-1.4-0.3-1.9-0.8c-0.5-0.5-0.7-1.1-0.7-1.9
			c0-0.7,0.3-1.4,0.7-1.9c0.5-0.5,1.1-0.7,1.9-0.7c0.7,0,1.4,0.3,1.9,0.7C108.2,199.8,108.5,200.5,108.5,201.2z"/>
	</g>
	<g>
		<path fill="#C0D731" d="M116.5,212.5c0,0.7-0.3,1.4-0.8,1.9c-0.5,0.5-1.1,0.7-1.9,0.7c-0.7,0-1.4-0.3-1.8-0.8
			c-0.5-0.5-0.8-1.1-0.8-1.8c0-0.7,0.3-1.4,0.8-1.8c0.5-0.5,1.1-0.8,1.8-0.8c0.7,0,1.4,0.3,1.9,0.8
			C116.2,211.1,116.5,211.8,116.5,212.5z"/>
	</g>
</g>
<g id="Layer_2_copy_4">
	<g>
		<g>
			<g>
				<path fill="#FFFFFF" d="M60.2,48.9c-0.1-0.5-0.2-0.3-0.3-1c-0.1-0.7-0.3-1.6-0.4-2.8c-0.1-0.7,0-1.4-0.1-2.2
					c-0.1-0.7-0.2-1.4-0.3-2.2C59,40,59,39.4,59,38.7c0-0.6,0-1.3,0-1.9c0-0.6-0.2-1.3-0.3-1.9c0-0.7,0-1.5,0-2.3c0-0.7,0-1.5,0-2.3
					c0-0.7,0-1.5,0.1-2.3c0-0.6,0.2-1.3,0.3-2c0-0.6,0.1-1.3,0.2-2c0.1-0.6,0.1-1.3,0.2-2c0.1-0.6,0-1.3,0.2-2
					c0.1-0.6,0.4-1.2,0.5-1.8c0.1-0.6,0.2-1.2,0.4-1.8c0.2-0.6,0.4-1.2,0.6-1.8c0.2-0.6,0.7-1,1-1.6c0.3-0.5,0.6-1.1,0.9-1.6
					c0.3-0.5,0.7-1,1.2-1.4c0.4-0.5,0.7-1,1.2-1.4c0.5-0.4,1-0.7,1.6-1c0.5-0.4,1.1-0.7,1.7-0.9c0.6-0.3,1.2-0.5,1.8-0.7
					c0.6-0.2,1.3-0.2,1.9-0.2c0.9-0.1,1.9-0.3,2.7-0.2c0.4,0,1.1,0.1,1.5,0.2c0.5,0.1,1,0.2,1.5,0.4c0.6,0.2,1.3,0.4,1.9,0.7
					c0.6,0.3,1.2,0.7,1.7,1.1c0.6,0.4,1,0.9,1.5,1.4c0.4,0.5,0.6,1,1,1.5c0.3,0.5,0.7,1,1,1.5c0.3,0.6,0.5,1.1,0.7,1.7
					c0.3,0.7,0.4,1.5,0.6,2.2c0.2,0.8,0.3,1.5,0.4,2.2c0.1,0.7,0.3,1.3,0.4,1.9c0.1,0.7,0.2,1.3,0.2,2c0.1,0.7,0,1.3,0,2
					c0,0.7,0.1,1.3,0.1,2c0,0.8,0.2,1.5,0.2,2.2c0,0.8-0.1,1.5-0.1,2.2c0,0.8,0.2,1.5,0.2,2.2c0,0.7,0,1.3,0,2c0,0.7,0,1.3,0.1,2
					c0,0.7,0,1.3,0,2c0,0.7,0.1,1.3,0.1,2c0,0.7,0.1,1.4,0.2,1.9c0.1,0.7,0.1,1.3,0.2,1.8c0.2,1.2,0.1,0.9,0.3,1.8
					c0.1,0.7,0.2,1.4-0.2,1.9s-1,0.9-1.7,1c-0.7,0.1-1.4,0.1-1.9-0.3c-0.5-0.4-0.9-0.9-1.1-1.6c0,0,0.1-0.1,0.1-0.1
					c0-0.1-0.1,0-0.1-0.1c-0.2-1-0.1-0.7-0.3-2c-0.1-0.6-0.2-1.2-0.3-2c-0.1-0.7,0-1.4,0-2.2c-0.1-0.7-0.2-1.4-0.2-2.2
					c0-0.6-0.2-1.2-0.2-1.9c0-0.6-0.1-1.2-0.2-1.9c0-0.6-0.1-1.2-0.1-1.9c-0.1-0.7,0-1.4-0.1-2.2c-0.1-0.7,0-1.4-0.1-2.2
					c-0.1-0.7-0.1-1.4-0.2-2.2c-0.1-0.8-0.3-1.5-0.4-2.3c-0.1-0.8-0.2-1.5-0.3-2.3c-0.2-0.8-0.3-1.5-0.5-2.3
					c-0.2-0.6-0.4-1.3-0.7-1.9c-0.3-0.6-0.7-1.2-1.1-1.7c-0.4-0.6-0.9-1.1-1.3-1.5c-0.6-0.4-1.1-0.7-1.8-0.9c-0.2,0-0.3-0.1-0.5-0.2
					c-0.1,0-0.2,0.1-0.3,0.1c-0.1,0,0-0.1-0.1-0.1c0,0,0,0-0.1,0c-0.1,0-0.1,0-0.1,0c-0.6,0-0.9,0.1-1.4,0.1
					c-0.9,0.1-1.6,0.4-2.3,0.7c-0.7,0.3-1.4,0.7-2,1.4c-0.5,0.5-0.9,1.1-1.3,1.8c-0.4,0.6-0.7,1.2-1,1.9c-0.3,0.7-0.4,1.4-0.7,2.1
					c-0.2,0.7-0.5,1.4-0.7,2.2c-0.2,0.7-0.2,1.5-0.3,2.3c-0.1,0.8-0.3,1.5-0.4,2.3c-0.1,0.7-0.1,1.4-0.2,2.1
					c-0.1,0.7-0.2,1.4-0.2,2.1c0,0.7,0,1.4,0,2.1c0,0.6-0.2,1.2-0.2,1.8c0,0.6,0,1.2,0,1.8c0,0.6,0,1.2,0.1,1.8
					c0,0.7,0.2,1.5,0.2,2.1c0.1,0.8,0.2,1.5,0.2,2.1c0.1,1.2,0.2,2.1,0.3,2.7c0.1,0.6-0.1,0.5,0,0.9c0,0,0.2,0,0.2,0
					c0.1,0.7-0.2,1.3-0.6,1.8c-0.4,0.5-0.9,0.9-1.6,1c-0.6,0.1-1.3-0.1-1.8-0.5C60.5,50.2,60.3,49.5,60.2,48.9z"/>
			</g>
			<g>
				<path fill="#FFFFFF" d="M53.2,35.8c0.5-0.4,0.4-0.3,1.1-0.8c0.1-0.1,0.1-0.2,0.2-0.3c0.1-0.1,0.3-0.1,0.5-0.2
					c0.3-0.2,0.6-0.3,1-0.5c0.2-0.1,0.4-0.2,0.6-0.3c0.2-0.1,0.4-0.1,0.5-0.2c0.4-0.1,0.7-0.3,1.1-0.4c0.8-0.3,1.6-0.5,2.5-0.7
					c0.9-0.1,1.9-0.2,2.8-0.3C64,32,64.5,32,65,32c0.5,0,1-0.1,1.5-0.1c1-0.1,2-0.2,3-0.2c0.7,0,1.4,0,2.1,0c0.7,0,1.4-0.1,2.1-0.1
					c0.7,0,1.4,0.1,2.1,0.1c0.7,0,1.4-0.1,2.1-0.1c0.8,0,1.5,0,2.1-0.1c0.7-0.1,1.3,0,1.9-0.1c0.5-0.1,1-0.2,1.4-0.2
					c0.7-0.1,0.6-0.1,1.1-0.2c0.1,0,0.1-0.1,0.2-0.1c0.6-0.1,1.2,0.1,1.7,0.4s0.7,0.8,0.9,1.4c0.1,0.6,0,1.1-0.2,1.6
					c-0.3,0.4-0.8,0.8-1.3,0.9c-0.7,0.2-0.5,0.2-1.5,0.4c-0.5,0.1-1,0.1-1.7,0.2c-0.6,0.1-1.3,0.3-2.1,0.4c-0.5,0-1.1-0.1-1.7,0
					c-0.5,0-1.1,0.2-1.7,0.2c-0.6,0-1.1,0.1-1.7,0.1c-0.6,0-1.3-0.1-1.9,0c-0.6,0-1.3,0.1-1.9,0.1c-0.6,0-1.3,0.1-1.9,0.1
					c-0.9,0.1-1.9,0.2-2.8,0.4c-0.5,0-0.9,0-1.4,0c-0.4,0.1-0.9,0.1-1.3,0.2c-0.9,0.1-1.6,0.4-2.4,0.5c-0.7,0.2-1.4,0.4-2,0.6
					c-0.3,0.1-0.6,0.1-0.8,0.2c-0.1,0-0.2,0.2-0.4,0.2c-0.1,0.1-0.2,0.1-0.2,0.2c-0.2,0.1-0.3,0.2-0.5,0.3c-0.1,0-0.1,0.1-0.2,0.1
					c-0.1,0-0.2,0-0.3,0.1c-0.7,0.5-0.5,0.4-1,0.8c0,0,0,0-0.1,0c-0.6,0.4-1.3,0.7-1.9,0.6c-0.7-0.1-1.3-0.5-1.7-1.1
					c-0.4-0.6-0.6-1.3-0.5-1.9c0.1-0.7,0.4-1.3,1-1.8C53.1,35.8,53.2,35.8,53.2,35.8z"/>
			</g>
		</g>
	</g>
	<g>
		<path fill="#FFFFFF" d="M118.9,19.8c0-0.1-0.1,0-0.2,0c-0.1-0.1-0.1-0.3-0.2-0.5c-0.3-0.5-0.7-1.2-1.4-2c-0.4-0.5-1-0.8-1.6-1.3
			c-0.5-0.4-0.9-1-1.5-1.4c-0.6-0.3-1.2-0.5-1.9-0.8c-0.6-0.2-1.3-0.4-2-0.4c-0.8-0.1-1.7-0.1-2.6,0c-0.2,0-0.2-0.1-0.5-0.1
			c-0.1,0-0.1,0.2-0.2,0.2c-0.1,0-0.1-0.1-0.2-0.1c-0.2,0-0.3,0.2-0.5,0.2c-0.4,0.1-0.8,0.3-1.3,0.5c-0.6,0.3-1.1,0.6-1.7,1
			c-0.5,0.4-1,0.8-1.4,1.3c-0.4,0.5-0.9,0.9-1.2,1.5c-0.3,0.6-0.4,1.3-0.6,2c-0.2,0.7-0.3,1.4-0.3,2.1c0,0.7,0,1.4,0.2,2.1
			c0.2,0.7,0.6,1.4,1,2.1c0.4,0.6,0.9,1.2,1.4,1.8c0.5,0.5,1,1.1,1.7,1.5c0.5,0.3,1.1,0.6,1.7,0.9c0.6,0.3,1.1,0.6,1.7,0.8
			c0.6,0.2,1.3,0.3,2,0.4c0.7,0.2,1.5,0.2,2.2,0.4c0.6,0.1,1.1,0.3,1.6,0.5c0.5,0.2,1.1,0.3,1.6,0.6c0.5,0.2,1,0.5,1.5,0.8
			c0.5,0.3,1.1,0.4,1.6,0.8c0.5,0.3,0.9,0.8,1.3,1.2c0.4,0.4,0.9,0.7,1.3,1.2c0.4,0.5,0.8,1,1.1,1.5c0.3,0.5,0.7,1.1,0.8,1.7
			c0.2,0.6,0.2,1.2,0.3,1.9c0,0.6,0,1.2-0.1,1.8c-0.1,0.6-0.3,1.2-0.5,1.8c-0.2,0.6-0.7,1-1,1.5c-0.4,0.5-0.7,1.1-1.1,1.5
			c-0.5,0.4-1,0.7-1.5,1c-0.5,0.3-1.1,0.5-1.7,0.7c-0.6,0.2-1.2,0.5-1.7,0.6c-0.6,0.1-1.2,0.3-1.8,0.3c-0.6,0-1.2,0-1.8-0.1
			c-0.6,0-1.2-0.2-1.8-0.3c-0.6-0.1-1.2-0.2-1.8-0.4c-0.6-0.2-1.2-0.3-1.7-0.6c-0.6-0.2-1.1-0.5-1.6-0.7c-0.6-0.3-1.1-0.6-1.6-0.9
			c-0.5-0.3-1.1-0.6-1.6-0.9c-0.5-0.4-0.9-0.9-1.2-1.2c-0.5-0.4-1-0.8-1.3-1.1c-0.5-0.5-0.4-0.4-0.8-0.8c0,0-0.1,0-0.1,0
			c-0.6-0.5-0.9-1.2-1-1.9c0-0.7,0.2-1.4,0.7-2c0.5-0.6,1.2-0.8,1.9-0.9s1.4,0.1,2,0.6c0.1,0.1,0.4,0.2,0.5,0.4
			c0.3,0.4,0.1,0.4,0.5,1c0.4,0.5,1,1.2,1.9,2c0.5,0.4,1,0.9,1.6,1.4c0.5,0.4,1.1,0.7,1.8,1.1c0.5,0.3,1.1,0.3,1.7,0.5
			c0.5,0.2,1.1,0.4,1.7,0.5c0.6,0.1,1.1,0,1.7,0c0.2,0,0.4,0,0.7,0c0.2,0,0.2,0,0.4,0c0.1,0,0.1-0.2,0.2-0.2c0,0,0.1,0,0.1,0
			c0.5-0.1,0.9-0.2,1.3-0.4c0.8-0.4,1.5-1,2-1.7c0.4-0.5,0.7-1,0.7-1.6c0.1-0.6,0-1.2-0.2-1.8c-0.2-0.5-0.6-1-1-1.5
			c-0.4-0.4-0.8-0.8-1.3-1.1c-0.5-0.3-1-0.5-1.6-0.7c-0.6-0.2-1.2-0.4-1.8-0.5c-0.6-0.2-1.2-0.5-1.8-0.5c-0.7-0.1-1.5-0.2-2.3-0.3
			c-0.8-0.1-1.7-0.2-2.5-0.4c-0.6-0.2-1.2-0.2-1.7-0.4c-0.5-0.2-1.1-0.5-1.6-0.7c-0.5-0.2-1-0.5-1.6-0.8c-0.5-0.3-1.1-0.6-1.6-1
			c-0.5-0.4-1-0.7-1.5-1.2c-0.5-0.4-0.9-0.9-1.3-1.4c-0.4-0.5-0.8-1-1.1-1.5c-0.3-0.5-0.7-1-1-1.6c-0.3-0.6-0.6-1.2-0.8-1.8
			c-0.2-0.6-0.2-1.2-0.4-1.8c-0.1-0.6-0.2-1.2-0.3-1.8c0-0.6,0-1.2,0-1.9c0-0.6,0-1.3,0.1-1.9c0.1-0.6,0.3-1.2,0.5-1.8
			c0.2-0.6,0.4-1.2,0.6-1.8c0.3-0.7,0.6-1.3,1-1.9c0.4-0.6,0.9-1.1,1.3-1.6c0.5-0.5,0.9-1.1,1.4-1.6c0.5-0.5,1.1-0.9,1.7-1.3
			c0.6-0.4,1.2-0.7,1.9-1c0.7-0.4,1.5-0.8,2.2-1.1c0.4-0.1,0.9-0.1,1.3-0.2c0.2,0,0.1-0.1,0.3-0.2c0.1,0,0.1,0.1,0.3,0.1
			c0.2,0,0.2,0,0.5,0c0.8-0.1,1.5-0.3,2.2-0.3c0.8,0,1.5-0.1,2.2-0.1c0.7,0.1,1.3,0.2,2,0.3c0.7,0.1,1.3,0.3,1.9,0.5
			c0.6,0.2,1.2,0.5,1.8,0.8c0.6,0.3,1.2,0.5,1.8,0.9c0.6,0.3,1.1,0.8,1.6,1.2c0.6,0.4,1.1,0.7,1.6,1.1c0.5,0.5,0.9,1,1.4,1.4
			c0.5,0.5,0.9,1,1.2,1.4c0.5,0.6,0.8,1.1,1.1,1.5c0.2,0.4,0.3,0.7,0.5,0.9c0.1,0.2,0,0.2,0.1,0.4c0.3,0.6,0.6,1.3,0.6,1.9
			c0,0.7-0.3,1.3-0.6,1.9c-0.3,0.6-0.8,1.1-1.4,1.5c-0.6,0.3-1.3,0.6-2,0.6c-0.7,0-1.4-0.2-2-0.6c-0.6-0.3-1-0.9-1.3-1.6
			c0,0,0,0,0,0C119,19.9,118.9,19.9,118.9,19.8z"/>
	</g>
	<g>
		<g>
			<g>
				<path fill="#FFFFFF" d="M140.5,11.8c-0.1,0.9,0,0.7-0.1,1.9c-0.1,0.5-0.2,1.1-0.3,1.8c-0.1,0.6-0.3,1.2-0.3,1.8
					c-0.1,0.6-0.1,1.2-0.2,1.9c-0.1,0.6,0.1,1.3,0,1.9c-0.1,0.6-0.2,1.2-0.2,1.9c-0.1,0.7-0.3,1.4-0.3,2.2c-0.1,0.7-0.1,1.5-0.1,2.2
					c-0.1,0.7-0.1,1.5-0.2,2.2c-0.1,0.7-0.2,1.5-0.3,2.2c-0.1,0.7,0,1.5-0.1,2.2c-0.1,0.7-0.1,1.5-0.2,2.2c0,0.6-0.1,1.3-0.1,1.9
					c0,0.7,0,1.3-0.1,1.9c0,0.7,0,1.3,0,1.9c0,0.7-0.2,1.4-0.2,2c0,0.8-0.1,1.5-0.1,2c0,1,0.2,0.8,0.2,1.5c0,0.7-0.3,1.5-0.8,1.9
					c-0.5,0.5-1.2,0.7-1.9,0.7s-1.4-0.4-1.8-0.8c-0.5-0.5-0.7-1.1-0.7-1.9c0,0,0-0.1,0-0.1c0-0.8-0.2-0.6-0.2-1.5
					c0-0.5,0.2-1.2,0.2-2c0-0.6-0.1-1.3-0.1-2c0-0.6,0-1.2,0-1.9c0-0.6,0.1-1.2,0.1-1.9c0-0.6-0.1-1.3-0.1-1.9c0-0.7,0-1.4,0-2.2
					c0-0.7-0.2-1.4-0.2-2.2c0-0.7-0.1-1.5-0.2-2.2c0-0.7,0.1-1.5,0.1-2.2c0-0.7-0.2-1.5-0.2-2.2c0-0.7-0.1-1.5-0.1-2.2
					c0-0.7,0-1.3,0-1.9c0-0.7-0.2-1.3-0.3-1.9c0-0.7,0.1-1.3,0-1.9c-0.1-0.7-0.2-1.3-0.2-1.9c-0.1-0.7-0.1-1.3-0.1-1.9
					c-0.1-1.2,0-0.9-0.1-1.9c-0.1-0.6,0-1.2,0.1-1.8c0.2-0.6,0.4-1.2,0.8-1.6c0.4-0.5,0.8-1,1.4-1.3c0.5-0.3,1.2-0.5,1.8-0.6
					c0.6-0.1,1.3,0.1,1.8,0.3c0.6,0.2,1.2,0.4,1.7,0.8c0.5,0.4,0.7,1,1,1.5c0.3,0.5,0.6,1.1,0.6,1.7
					C140.6,11.1,140.6,11.5,140.5,11.8z"/>
			</g>
			<g>
				<path fill="#FFFFFF" d="M159.4,13.8c-0.2,0.9-0.3,1.6-0.5,2.3c-0.2,0.7-0.4,1.4-0.7,2.1c-0.3,0.7-0.6,1.3-0.9,1.9
					c-0.3,0.7-0.7,1.3-1,1.9c-0.3,0.6-0.7,1.2-1.1,1.8c-0.4,0.6-0.7,1.3-1.1,1.9c-0.4,0.6-0.9,1.1-1.3,1.7c-0.5,0.6-0.9,1.1-1.4,1.6
					c-0.5,0.5-1,1.1-1.5,1.6c-0.5,0.5-1,1-1.6,1.5c-0.6,0.4-1.2,0.8-1.8,1.2c-0.6,0.4-1.2,0.8-1.9,1.1c-0.6,0.4-1.3,0.6-1.9,0.9
					c-0.7,0.3-1.3,0.5-2,0.7c-0.7,0.2-1.4,0.3-2.1,0.5c-0.7,0.2-1.3,0.3-2,0.4c-0.4-0.7-0.2-0.8-0.3-1.7c-0.1-0.8,0-0.9-0.2-1.7
					c0,0,0,0.1,0,0.1c0.9,0,1.6,0,2.4,0.1c0.8,0.1,1.6,0.2,2.3,0.3c0.8,0.1,1.6,0.3,2.3,0.5c0.8,0.2,1.5,0.5,2.3,0.8
					c0.5,0.2,1.1,0.4,1.6,0.6c0.5,0.3,0.9,0.6,1.4,1c0.5,0.3,0.9,0.6,1.4,1c0.3,0.3,0.6,0.6,0.9,0.9c0.4,0.4,0.4,0.4,0.8,0.8
					c0.5,0.5,0.9,1.1,1.4,1.5c0.5,0.5,1,0.8,1.5,1.2c0.5,0.4,1.1,0.7,1.7,1c0.6,0.4,1.1,0.7,1.7,1c0.6,0.3,1.2,0.6,1.8,0.8
					c0.6,0.2,1.2,0.3,1.8,0.4c0.6,0.1,1.2,0.1,1.9,0.1c0.6,0,1.2,0,1.9-0.1c0.6-0.1,1.2-0.1,1.8-0.3c0.6-0.2,1.3-0.2,1.8,0.1
					s0.9,0.8,1.1,1.5c0.2,0.6,0.1,1.2-0.2,1.8c-0.3,0.5-0.7,1.1-1.3,1.2c0,0-0.1-0.1-0.1-0.1c0,0,0,0.1,0,0.1
					c-0.5,0.1-1.1,0.3-1.6,0.4c-0.6,0.1-1.1,0.1-1.7,0.2c-0.6,0-1.1,0.1-1.7,0.1c-0.6,0-1.1-0.2-1.7-0.3c-0.6-0.1-1.1-0.1-1.7-0.2
					c-0.6-0.1-1.1-0.3-1.6-0.5c-0.6-0.2-1.2-0.5-1.8-0.8c-0.6-0.3-1.2-0.6-1.7-0.9c-0.6-0.3-1-0.8-1.5-1.2c-0.5-0.4-1.1-0.7-1.6-1.1
					c-0.5-0.4-0.9-0.9-1.4-1.4c-0.6-0.6-1-1.1-1.6-1.7c-0.4-0.4-0.4-0.4-0.8-0.8c-0.2-0.2-0.4-0.4-0.6-0.6c-0.5-0.4-0.9-0.9-1.4-1.3
					c-0.5-0.3-1.1-0.6-1.7-0.9c-0.6-0.3-1.2-0.5-1.9-0.7c-0.6-0.2-1.3-0.4-1.9-0.6c-0.7-0.1-1.4-0.2-2-0.3c-0.7-0.1-1.4-0.2-2-0.3
					c0,0,0,0,0,0c-0.9,0.3-1.7-0.1-2-1c-0.3-0.8,0.1-1.7,0.8-2c0.4-0.2,0.4-0.2,0.7-0.3c0.6-0.3,1.2-0.4,1.7-0.6
					c0.5-0.3,1.1-0.5,1.6-0.8c0.5-0.3,0.9-0.7,1.4-1c0.5-0.4,1-0.6,1.4-1c0.5-0.4,0.9-0.7,1.3-1.1c0.4-0.4,0.7-0.9,1.1-1.3
					c0.4-0.4,0.8-0.8,1.1-1.3c0.3-0.5,0.7-0.9,1-1.4c0.4-0.6,0.8-1.3,1.2-2c0.4-0.7,0.8-1.3,1.1-2c0.3-0.7,0.5-1.4,0.8-2.2
					c0.2-0.5,0.4-1.1,0.5-1.6c0.2-0.6,0.3-1.1,0.4-1.7c0.1-0.6,0.4-1.1,0.5-1.6c0.1-0.5,0.1-1.2,0.2-1.5c0.1-0.8,0.3-1.5,0.7-2.1
					c0.4-0.6,1-1.2,1.7-1.5c0.7-0.3,1.4-0.5,2.2-0.5c0.8,0.1,1.6,0.3,2.2,0.7c0.6,0.4,1.1,1.1,1.4,1.8c0.3,0.7,0.5,1.4,0.4,2.2
					c0,0.2,0.1,0.5,0.1,0.7C159.6,13.8,159.4,13.7,159.4,13.8z"/>
			</g>
		</g>
	</g>
	<g>
		<g>
			<g>
				<path fill="#FFFFFF" d="M33.1,69.5c0.8-0.1,0.6-0.3,1.7-0.5c0.6-0.1,1.4-0.2,2.3-0.3c0.7-0.1,1.5,0,2.3,0c0.5,0,1.1-0.3,1.7-0.3
					c0.6,0,1.2,0.2,1.8,0.1c0.6,0,1.1-0.2,1.8-0.2c0.6,0,1.2,0,1.8,0.1c0.6,0,1.2,0,1.8,0c0.6,0,1.2,0.2,1.8,0.3
					c0.6,0,1.2,0.1,1.8,0.1c0.6,0,1.2-0.1,1.9,0c0.6,0.1,1.2,0.4,1.8,0.5c0.6,0.1,1.3,0,1.9,0.1c0.6,0.1,1.2,0.4,1.8,0.5
					c0.6,0.1,1.3,0,1.9,0.2c0.6,0.1,1.2,0.3,1.8,0.4c0.6,0.2,1.1,0.5,1.8,0.7c0.6,0.2,1.2,0.4,1.8,0.6c0.6,0.2,1.2,0.3,1.8,0.6
					c0.6,0.2,1.2,0.3,1.8,0.6c0.6,0.3,1,0.8,1.6,1.1c0.6,0.3,1.2,0.5,1.7,0.8c0.5,0.3,1.2,0.5,1.7,0.8c0.5,0.3,1,0.8,1.5,1.1
					c0.5,0.4,0.9,0.9,1.4,1.3c0.5,0.4,0.9,0.8,1.4,1.2c0.5,0.4,1,0.7,1.5,1.2c0.4,0.4,0.9,0.9,1.3,1.4c0.4,0.5,0.6,1.1,1,1.6
					c0.3,0.4,0.4,0.3,0.7,0.7c0.1,0.2,0,0.3,0.1,0.4c0.1,0.1,0.1,0,0.2,0.1c0.1,0.2,0.1,0.2,0.2,0.3c0.3,0.4,0.5,0.8,0.8,1.3
					c0.5,0.8,0.6,0.7,1.1,1.6c0.3,0.5,0.5,1.1,0.7,1.6c0.3,0.6,0.5,1.3,0.8,1.9c0.3,0.6,0.4,1.3,0.6,2c0.2,0.7,0.4,1.3,0.6,2
					c0.2,0.7,0.6,1.3,0.7,1.9c0.1,0.7,0.2,1.4,0.3,2.1c0.1,0.7,0,1.4,0.1,2.1c0.1,0.7,0.3,1.4,0.3,2c0,0.7-0.1,1.4-0.2,2
					c0,0.7,0.3,1.4,0.3,2c-0.1,0.7-0.3,1.3-0.4,2c-0.1,0.7,0,1.4-0.2,2c-0.1,0.7-0.3,1.3-0.4,2c-0.2,0.7-0.6,1.3-0.7,1.9
					c-0.2,0.6-0.3,1.3-0.6,2c-0.2,0.6-0.5,1.2-0.8,1.8c-0.3,0.6-0.4,1.2-0.7,1.8c-0.3,0.6-0.6,1.1-1,1.7c-0.3,0.6-0.7,1.1-1.1,1.6
					c-0.4,0.5-0.8,1-1.2,1.5c-0.4,0.5-0.7,1.1-1.1,1.6c-0.4,0.5-0.7,1.1-1.1,1.6c-0.5,0.5-1,1-1.6,1.5c-0.5,0.5-1.1,1-1.7,1.4
					c-0.6,0.5-1.3,0.8-1.9,1.2c-0.5,0.3-0.9,0.6-1.4,0.9c-0.1,0-0.1,0-0.1,0.1c0,0-0.1-0.1-0.1,0c0,0-0.1,0-0.1,0
					c-0.1,0-0.1,0-0.2,0c-0.2,0.1-0.1,0.3-0.2,0.3c-0.3,0.2-0.4-0.1-0.7,0.1c-0.4,0.2-0.7,0.6-1.2,0.8c-0.5,0.2-0.9,0.5-1.3,0.7
					c-0.7,0.3-1.4,0.5-2,0.7c-0.7,0.3-1.4,0.3-2.1,0.6c-0.7,0.2-1.3,0.6-2,0.8c-0.7,0.2-1.5,0.1-2.1,0.3c-0.7,0.2-1.4,0.6-2.1,0.7
					c-0.7,0.1-1.5,0.1-2.2,0.2c-0.8,0.1-1.5,0.2-2.2,0.3c-0.8,0.1-1.5,0.2-2.2,0.2c-0.8,0.1-1.5,0.1-2.2,0.2c-0.8,0-1.5,0.1-2.3,0.1
					c-0.8,0-1.5,0.1-2.3,0.1c-0.8,0-1.6-0.1-2.3-0.1c-0.8,0-1.5,0.1-2.2,0.1c-0.9,0-1.6-0.2-2.1-0.2c-1,0-0.8,0-1.5,0
					c-0.7,0-1.3-0.3-1.7-0.8c-0.4-0.5-0.7-1.1-0.7-1.8s0.4-1.2,0.9-1.7s1.1-0.9,1.7-0.9c0,0,0.1,0.1,0.1,0.1c0,0,0,0.1,0,0.1
					c0.7,0.1,0.5-0.2,1.5-0.1c0.5,0,1.2,0.4,2,0.4c0.6,0,1.3,0,2.1,0.1c0.7,0,1.4-0.3,2.1-0.3c0.7,0,1.4,0.2,2.1,0.2
					c0.7,0,1.4,0,2.1,0c0.7-0.1,1.3-0.4,2-0.5c0.7-0.1,1.3-0.1,2-0.2c0.7-0.1,1.4,0,2.1-0.1c0.7-0.1,1.3-0.3,2-0.4
					c0.6-0.1,1.2-0.5,1.8-0.7c0.6-0.2,1.2-0.3,1.8-0.5c0.6-0.2,1.2-0.5,1.7-0.7c0.6-0.2,1.2-0.3,1.8-0.6c0.6-0.3,1.1-0.6,1.7-0.9
					c0.4-0.2,0.6-0.5,1-0.7c0.4-0.2,0.8-0.4,1.1-0.7c0.4-0.2,0.9-0.2,1.2-0.4c0.3-0.2,0.5-0.6,0.9-0.8c0.6-0.5,1.3-1,1.9-1.6
					c0.6-0.6,1.2-1.1,1.7-1.8c0.4-0.5,0.7-1.2,1-1.8c0.4-0.6,0.9-1.1,1.2-1.7c0.3-0.6,0.5-1.3,0.8-1.9c0.3-0.6,0.6-1.3,0.8-1.9
					c0.2-0.7,0.3-1.4,0.5-2c0.2-0.7,0.3-1.4,0.4-2.1c0.1-0.7,0.4-1.4,0.5-2.1c0.1-0.7,0.1-1.4,0.1-2.1c0-0.7-0.2-1.4-0.3-2.1
					c-0.1-0.7,0-1.4-0.1-2.1c-0.1-0.7-0.4-1.3-0.6-2c-0.2-0.7-0.5-1.3-0.7-2c-0.2-0.7-0.3-1.4-0.6-2c-0.3-0.6-0.6-1.3-0.9-1.9
					c-0.3-0.6-0.6-1.3-0.9-1.9c-0.2-0.4-0.4-0.8-0.6-1.1c-0.3-0.5-0.2-0.5-0.6-1c-0.2-0.4-0.6-0.8-0.9-1.2c-0.1-0.2-0.2-0.1-0.3-0.2
					c-0.1-0.1,0.1-0.2,0-0.3c0,0,0,0.3-0.1,0.2c0,0,0.1-0.1,0.1-0.1c0,0,0,0,0-0.1c-0.2-0.2-0.2-0.2-0.4-0.4c-0.5-0.6-1-1.1-1.5-1.6
					c-0.5-0.5-1.2-0.8-1.8-1.3c-0.5-0.4-1-0.7-1.5-1c-0.5-0.3-1-0.8-1.5-1c-0.5-0.3-1.1-0.4-1.7-0.7c-0.6-0.2-1.2-0.4-1.7-0.6
					c-0.6-0.2-1.1-0.5-1.7-0.7c-0.7-0.2-1.4-0.6-2.1-0.8c-0.7-0.2-1.5-0.1-2.2-0.3c-0.7-0.2-1.4-0.5-2.2-0.6
					c-0.7-0.1-1.5-0.2-2.2-0.3c-0.7-0.1-1.3-0.1-2-0.1c-0.7-0.1-1.3-0.3-2-0.4c-0.7-0.1-1.3-0.2-2-0.2c-0.7,0-1.4,0-2-0.1
					c-0.7,0-1.4-0.1-2-0.1c-0.7,0-1.4,0.1-2,0.1c-0.7,0-1.4,0-2,0c-0.7,0-1.4,0.2-2,0.2c-0.8,0-1.4,0-2,0c-0.8,0.1-0.6,0.1-1.3,0.1
					c-0.2,0-0.2,0-0.3,0c-0.6,0-1.2-0.1-1.8-0.2c-0.6-0.2-1.1-0.5-1.6-0.8c-0.5-0.3-1-0.7-1.4-1.2c-0.4-0.5-0.7-1-1-1.6
					c-0.2-0.6-0.5-1.1-0.5-1.8c0-0.8,0-1.5,0.2-2.2c0.2-0.7,0.7-1.3,1.1-1.9c0.5-0.6,1-1,1.7-1.3C31.7,69.9,32.4,69.7,33.1,69.5z"/>
			</g>
			<g>
				<path fill="#FFFFFF" d="M50,76.4c0,1.3-0.2,0.9-0.2,2.6c0,0.7,0.1,1.4,0.1,2.3c0,0.7,0,1.5,0,2.3c0,0.7-0.1,1.5-0.1,2.3
					c0,0.6,0.1,1.3,0.1,1.9c0,0.6,0.1,1.3,0.1,1.9c0,0.6-0.2,1.3-0.2,1.9c0,0.6,0.2,1.3,0.2,1.9c0,0.6-0.1,1.3-0.1,1.9
					c0,0.6,0.1,1.2,0.1,1.8c0,0.6,0,1.2,0,1.8c0,0.6,0.1,1.2,0.1,1.8c0,0.6-0.3,1.2-0.3,1.8c0,0.6,0,1.2,0,1.8
					c0,0.6-0.1,1.2-0.1,1.8c0,0.6,0,1.2,0,1.8c0,0.6,0.2,1.2,0.2,1.9c0,0.6-0.1,1.2-0.2,1.8c0,0.6-0.2,1.2-0.2,1.8
					c0,0.6,0.1,1.2,0.1,1.8c0,0.6-0.1,1.2-0.1,1.8c0,0.7-0.1,1.3-0.1,1.9c0,0.7,0,1.3-0.1,1.9c0,0.7-0.1,1.3-0.1,1.9
					c0,0.7-0.1,1.3-0.1,1.9c0,0.7-0.1,1.3-0.1,1.9c0,0.8,0.1,1.6,0,2.3c0,0.8-0.2,1.6-0.2,2.3c0,0.9,0,1.6-0.1,2.3
					c-0.1,1.6,0.1,1.3,0,2.6c0,0.7-0.4,1.4-0.9,1.8c-0.5,0.4-1.2,0.8-1.9,0.8c-0.6,0-1.2-0.5-1.6-0.9c-0.4-0.4-0.8-1-0.8-1.6
					c-0.1-1.3-0.1-0.9-0.3-2.6c-0.1-0.7,0.1-1.4,0-2.3c-0.1-0.7-0.4-1.4-0.4-2.3c-0.1-0.7,0.1-1.5,0-2.3c0-0.6,0-1.3,0-1.9
					c0-0.6-0.3-1.3-0.3-1.9c0-0.6-0.1-1.3-0.2-1.9c0-0.6,0.1-1.3,0-1.9c0-0.6-0.2-1.3-0.2-1.9c0-0.6-0.1-1.2-0.1-1.8
					c0-0.6,0-1.2-0.1-1.8c0-0.6-0.3-1.2-0.3-1.8c0-0.6,0-1.2,0-1.8c0-0.6,0-1.2,0-1.8c0-0.6-0.3-1.2-0.3-1.8c0-0.6,0-1.2,0-1.8
					c0-0.6-0.1-1.2-0.1-1.8c0-0.6-0.2-1.2-0.2-1.8c0-0.6-0.1-1.2-0.1-1.8c0-0.6,0-1.2,0-1.8c0-0.6-0.1-1.2-0.2-1.8
					c0-0.7,0.1-1.3,0.1-1.9c0-0.7-0.1-1.3-0.2-1.9c0-0.7,0-1.3,0-1.9c0-0.7-0.2-1.3-0.3-1.9c0-0.7,0.1-1.3,0.1-1.9
					c0-0.8-0.2-1.6-0.2-2.3c0-0.8,0-1.6-0.1-2.3c0-0.9,0-1.6,0-2.3c0-1.6,0-1.3,0-2.6c0-0.7,0.1-1.3,0.3-1.9c0.2-0.6,0.6-1.2,1-1.7
					c0.4-0.5,1.1-0.7,1.7-0.9c0.6-0.2,1.2-0.5,1.8-0.6c0.7,0,1.3,0.3,1.8,0.5c0.6,0.2,1.1,0.6,1.5,1c0.5,0.4,1,0.8,1.3,1.4
					C49.8,75,49.9,75.7,50,76.4z"/>
			</g>
		</g>
	</g>
	<g>
		<path fill="#FFFFFF" d="M38.8,155.6c0.1-0.1,0-0.2,0.2-0.3c0.2-0.1,0.5-0.2,0.9-0.4c0.4-0.2,1-0.5,1.6-0.7c0.5-0.2,1-0.5,1.6-0.7
			c0.5-0.2,1.1-0.3,1.7-0.5c0.5-0.2,1-0.6,1.6-0.8c0.5-0.2,1.1-0.5,1.7-0.7c0.5-0.1,1.1-0.2,1.6-0.3c0.5-0.1,1-0.5,1.6-0.6
			c0.6-0.1,1.2-0.1,1.8-0.2c0.6-0.1,1.2,0.1,1.8-0.1c0.6-0.1,1.3-0.3,1.9-0.4c0.6-0.1,1.3-0.4,1.9-0.5c0.7-0.1,1.4,0,2.1,0
			c0.7-0.1,1.4-0.2,2.1-0.2c0.7,0,1.5,0,2.2-0.1c0.7,0,1.5-0.1,2.2-0.1c0.4,0,0.8,0.1,1.1,0c0.3,0,0.3-0.3,0.6-0.3
			c0.3,0,0.3,0.1,0.7,0.1c0.7,0,1.5,0.2,2.3,0.2c0.8,0,1.5,0.4,2.3,0.4c0.8,0,1.5-0.2,2.3-0.1c0.8,0.1,1.6,0.3,2.5,0.4
			c0.8,0.1,1.6,0.3,2.5,0.4c0.6,0.1,0.6,0,1.3,0.1c0.6,0.1,0.6,0.2,1.2,0.3c0.8,0.1,1.6,0.2,2.5,0.3c1.2,0.2,1.3-0.1,2.5,0.2
			c1.2,0.2,1.1,0.5,2.3,0.8c0.6,0.1,1.3,0,2,0.1c0.6,0.1,1.2,0.6,1.8,0.8c0.6,0.1,1.2,0.3,1.9,0.5c0.6,0.1,1.3,0,2,0.1
			c0.6,0.1,1.2,0.6,1.8,0.7c0.8,0.2,1.6,0.1,2.3,0.3c0.8,0.2,1.5,0.3,2.3,0.4c0.7,0.1,1.5,0.2,2.2,0.3c0.7,0.1,1.4,0.6,2.1,0.7
			c0.7,0.1,1.5-0.2,2.2-0.2c0.7,0.1,1.4,0.3,2.1,0.4c0.3,0,0.7,0.2,1,0.2c0.3,0,0.3,0,0.5,0c0.1,0,0.1,0.1,0.2,0.1
			c0.1,0,0.1-0.2,0.1-0.2c0,0,0,0,0.1,0c0,0,0.1-0.2-0.1-0.2c0,0,0,0.3,0,0.3c0.7,0,1.4,0,2.1,0c0.7,0,1.3-0.1,2-0.1
			c0.7,0,1.4-0.2,2-0.2c0.6,0,1.2,0,1.8,0c0.6,0,1.2,0,1.8,0c0.6,0,1.1,0,1.7-0.1c0.6-0.1,1.1-0.3,1.6-0.3c0.5-0.1,1.1,0.1,1.6,0.1
			c0.5-0.1,1-0.2,1.5-0.3c0.9-0.2,1.8-0.3,2.6-0.5c0.8-0.2,1.5-0.4,2.2-0.6c0.6-0.2,0.9-0.7,1.4-0.8c0.6-0.2,1.2,0.1,1.6-0.1
			c0.7-0.2,0.5-0.2,1-0.5c0,0,0.1,0.1,0.1,0c0.9-0.4,1.8-0.1,2.2,0.8c0.3,0.8-0.1,1.5-0.8,1.9c-0.5,0.3-0.3,0.4-1,0.8
			c-0.4,0.2-0.8,0.6-1.5,0.9c-0.5,0.2-1,0.5-1.6,0.8c-0.7,0.3-1.6,0.2-2.4,0.6c-0.8,0.3-1.7,0.8-2.7,1.1c-0.5,0.2-1,0.4-1.5,0.6
			c-0.5,0.1-1.1,0.1-1.7,0.2c-0.6,0.1-1.2,0.2-1.8,0.4c-0.6,0.1-1.1,0.5-1.7,0.6c-0.7,0.1-1.4-0.1-2,0c-0.7,0.1-1.3,0.6-1.9,0.7
			c-0.7,0.1-1.4-0.1-2.1,0c-0.7,0-1.3,0.4-2,0.4s-1.4-0.1-2.1,0c-0.8,0-1.6-0.2-2.4-0.3c-0.8,0-1.6,0.2-2.3,0.1
			c-0.8,0-1.6-0.2-2.4-0.3c-0.8-0.1-1.6-0.3-2.4-0.4c-0.8-0.1-1.6,0.2-2.4,0.1c-0.8-0.1-1.5-0.6-2.3-0.8c-0.8-0.1-1.6,0-2.4-0.2
			c-0.6-0.1-1.2-0.7-1.8-0.8c-0.6-0.1-1.3-0.2-1.9-0.3c-0.6-0.1-1.3-0.2-1.9-0.4c-0.6-0.1-1.3-0.1-1.9-0.3c-0.6-0.1-1.2-0.4-1.9-0.5
			c-1.2-0.3-1.2-0.2-2.4-0.5c-1.2-0.2-1.2-0.3-2.3-0.5c-0.8-0.2-1.6-0.3-2.3-0.4c-0.6-0.1-0.6-0.1-1.2-0.2c-0.6-0.1-0.6,0-1.1-0.1
			c-0.7-0.1-1.5-0.3-2.2-0.5c-0.7-0.1-1.5-0.2-2.2-0.3c-0.8-0.1-1.5,0-2.3,0c-0.8-0.1-1.5-0.2-2.3-0.3c-0.8-0.1-1.5-0.4-2.2-0.4
			c-0.1,0-0.2,0.4-0.3,0.4c-0.1,0,0-0.3-0.1-0.3c0,0-0.1,0.3-0.1,0.3c0,0,0-0.1,0-0.1c0,0,0.2-0.3,0.1-0.3c-0.3,0-0.3,0.4-0.5,0.4
			c-0.4,0-0.7-0.3-1.1-0.3c-0.7,0-1.4-0.1-2.1-0.2c-0.7,0-1.4,0.2-2.1,0.2c-0.7,0-1.3-0.1-2,0c-0.7,0-1.3,0.3-2,0.3
			c-0.6,0-1.2,0-1.8,0c-0.6,0-1.2,0-1.8,0.1c-0.6,0.1-1.2-0.3-1.7-0.2c-0.6,0.1-1.1,0.3-1.7,0.3c-0.5,0-1.1-0.2-1.5-0.1
			c-0.5,0.1-1,0.3-1.5,0.4c-0.9,0.1-1.7,0.5-2.4,0.6c-0.9,0.2-1.7,0.3-2.4,0.5c-0.5,0.2-1,0.3-1.5,0.4c-0.6,0.2-1.1,0.4-1.5,0.5
			c-0.3,0.1-0.6,0-0.8,0.1c-0.2,0.1-0.2-0.1-0.3,0c0,0,0.1,0.3,0.1,0.3c-0.9,0.3-2-0.3-2.3-1.1C37.6,156.7,38.1,156,38.8,155.6z"/>
	</g>
	<g>
		<path fill="#FFFFFF" d="M263.6,166.6c-0.1-0.7-0.2-1.4-0.2-2c-0.1-0.7,0.3-1.4,0.2-2.1c-0.1-0.7-0.4-1.3-0.4-2
			c-0.1-0.7-0.2-1.4-0.3-2c-0.1-0.7-0.1-1.4-0.1-2c-0.1-0.7,0.1-1.4,0.1-2.1c-0.1-1-0.3-1-0.4-2c-0.1-1,0.1-1,0-2
			c-0.1-1-0.1-1-0.2-2c-0.1-1-0.1-1-0.2-2c-0.1-1,0-1,0-2.1s0-1,0-2c-0.1-1-0.2-1-0.3-2c-0.1-1,0.2-1,0.1-2.1c-0.1-1-0.2-1-0.3-2
			c-0.1-1-0.4-1-0.5-2c-0.1-1,0.1-1,0-2c-0.1-1,0.3-1,0.3-2.1c-0.1-1-0.5-1-0.5-2c-0.1-1,0.1-1,0-2c-0.1-1,0.1-1,0-2
			c-0.1-1-0.3-1-0.4-2c-0.1-1,0-1-0.1-2c-0.1-1,0.3-1,0.2-2.1c-0.1-1-0.3-1-0.3-2c-0.1-1,0-1-0.1-2c-0.1-1,0-1,0-2c-0.1-1,0-1,0-2
			s-0.4-1-0.5-2c-0.1-1,0.1-1,0-2c-0.1-1-0.3-1-0.3-2c-0.1-1,0.3-1,0.2-2.1c-0.1-1,0-1,0-2c-0.1-1-0.3-1-0.3-2c-0.1-1-0.2-1-0.3-2
			c-0.1-1,0.2-1,0.2-2.1c-0.1-1-0.2-1-0.2-2c-0.1-1-0.1-1-0.2-2c-0.1-1-0.1-1-0.2-2c-0.1-1,0-1-0.1-2c-0.1-1-0.2-1-0.3-2
			c-0.1-1,0-1-0.1-2c-0.1-1,0.1-1,0-2c-0.1-1-0.2-1-0.3-2c-0.1-1,0.2-1,0.2-2.1c-0.1-1-0.3-1-0.3-2c-0.1-1,0.2-1,0.1-2.1
			c-0.1-1,0-1-0.1-2c0-0.7,0-1.4,0.2-2c0.2-0.7,0.2-1.5,0.7-2c0.4-0.6,1-1.1,1.6-1.5c0.6-0.4,1.2-0.8,1.9-1c0.1,0,0.1,0.1,0.2,0.1
			c0,0,0,0.1,0,0.1c0.6-0.2,1.1-0.4,1.7-0.5c0.7,0,1.2,0.4,1.7,0.5c0.2,0,0.5-0.2,0.7-0.1c0.2,0.1,0.2,0.4,0.4,0.4
			c0.2,0.1,0.3-0.1,0.5,0c0.2,0.1,0.2,0,0.4,0.1c1,0.5,1.6,0.8,2.1,1.2c0.9,0.8,1.2,1.7,1.7,2.3c0.5,0.6,1.1,1,1.5,1.5
			c0.4,0.6,0.5,1.4,0.9,1.9c0.3,0.5,0.7,1.1,1,1.6c0.3,0.5,0.6,1.1,0.9,1.6c0.3,0.5,0.9,0.9,1.2,1.5c0.3,0.5,0.6,1.1,0.9,1.7
			c0.3,0.6,0.7,1.2,1,1.8c0.3,0.6,0.7,1.2,1,1.8c0.3,0.6,0.7,1.2,1,1.8c0.3,0.6,0.6,1.2,0.9,1.8c0.3,0.6,0.4,1.3,0.7,1.9
			c0.3,0.6,0.5,1.3,0.8,1.9c0.3,0.6,0.9,1,1.2,1.7c0.3,0.6,0.7,1.2,1,1.8c0.3,0.6,0.4,1.3,0.7,1.9c0.3,0.6,0.8,1.1,1.1,1.7
			c0.3,0.6,0.2,1.4,0.5,2c0.3,0.6,0.7,1.2,0.9,1.8c0.3,0.6,0.5,1.2,0.8,1.8c0.3,0.6,0.7,1.2,1,1.8c0.3,0.6,0.5,1.3,0.7,1.9
			c0.3,0.6,0.7,1.2,1,1.8s0.4,1.3,0.7,1.9s0.6,1.2,0.9,1.8s0.8,1.1,1,1.7s0.6,1.2,0.9,1.8c0.3,0.6,0.6,1.2,0.9,1.8
			c0.3,0.6,0.3,1.3,0.6,2c0.3,0.6,0.6,1.2,0.8,1.8c0.3,0.6,0.8,1.1,1,1.7c0.3,0.6,0.3,1.3,0.6,1.9c0.3,0.6,0.9,1,1.2,1.6
			c0.3,0.6,0.4,1.3,0.7,1.9c0.3,0.6,0.7,1.1,1,1.7c0.3,0.6,0.5,1.2,0.8,1.8c0.3,0.6,0.2,1.4,0.5,2c0.3,0.6,0.8,1.1,1.1,1.7
			c0.3,0.6,0.4,1.3,0.7,1.9c0.3,0.6,0.9,1,1.2,1.6s0.5,1.3,0.7,1.9c0.3,0.6,0.6,1.2,0.9,1.8c0.3,0.6,0.3,1.3,0.6,1.9
			c0.3,0.6,0.5,1.2,0.8,1.8c0.3,0.6,1,1,1.3,1.6c0.3,0.6,0.3,1.3,0.6,1.9c0.3,0.6,0.7,1.1,1,1.7c0.3,0.6,0.6,1.2,0.9,1.8
			c0.3,0.6,0.7,1.1,1,1.7c0.4,0.7,0.7,1.4,1.1,2c0.4,0.7,0.9,1.3,1.2,1.9c0.4,0.7,0.6,1.4,1,2c0.3,0.5,0.5,1,0.8,1.4
			c0.3,0.5,0.7,0.8,1,1.3c0.3,0.4,0.5,0.9,0.8,1.2c0.1,0.2,0.3,0.3,0.4,0.4c0.1,0.1,0.2,0.2,0,0.1c0,0,0.1,0,0.1,0
			c-0.8,0.6-0.9,0.5-1.6,1c-0.8,0.6-0.8,1.7-1.6,1.3c-0.9-0.4,0.3-1.1,0.2-2.1c0-1-0.4-1-0.4-1.9c0-1,0.3-1,0.3-1.9
			c0-1-0.1-1-0.1-1.9c0-1,0.1-1,0-1.9c0-1,0-1,0-1.9c0-1,0.1-1,0-1.9c0-1-0.5-1-0.5-1.9c0-1,0.4-1,0.4-1.9c0-1-0.4-1-0.4-1.9
			c0-1,0.3-1,0.3-2c0-1-0.3-1-0.3-1.9c0-1-0.2-1-0.2-1.9c0-1,0.2-1,0.2-1.9c0-1-0.2-1-0.3-1.9c0-1,0-1,0-1.9c0-1,0.3-1,0.3-2
			s-0.3-1-0.3-1.9c0-1,0.2-1,0.1-1.9c0-1-0.5-0.9-0.5-1.9c0-1,0.1-1,0-1.9c0-1,0.1-1,0.1-1.9c0-1-0.4-1-0.4-1.9c0-1,0-1,0-1.9
			c0-0.6,0-1.3-0.1-1.9c0-0.6-0.1-1.3-0.1-1.9c0-0.6,0.1-1.3,0.1-1.9c0-0.6,0.2-1.3,0.1-1.9c0-0.6-0.6-1.3-0.6-1.9
			c0-0.6,0.4-1.3,0.3-2c0-0.6-0.2-1.3-0.2-1.9c0-0.6-0.4-1.3-0.4-1.9c0-0.6,0.3-1.3,0.3-2c0-0.6-0.4-1.3-0.5-1.9
			c0-0.6-0.1-1.3-0.1-1.9c0-0.6,0.1-1.3,0.1-1.9c0-0.6,0-1.3-0.1-1.9c0-0.6-0.4-1.3-0.5-1.9c0-0.6-0.1-1.3-0.2-1.9
			c0-0.6,0.2-1.3,0.2-2c-0.1-0.6-0.4-1.3-0.5-1.9c-0.1-0.6-0.1-1.3-0.2-1.9c-0.1-0.6,0.2-1.3,0.1-1.9c-0.1-0.6-0.3-1.3-0.4-1.9
			c-0.1-0.6,0.1-1.3,0-1.9c-0.1-0.6-0.1-1.3-0.2-1.9c-0.1-0.6-0.2-1.3-0.2-1.9c-0.1-0.6,0.1-1.3,0-1.9c0,0-0.1,0-0.1-0.1
			c-0.1-0.7-0.1-1.4,0-2c0.1-0.7,0.2-1.4,0.5-2c0.3-0.6,0.6-1.2,1.1-1.8c0.4-0.5,1.1-0.8,1.7-1.2c0.5-0.4,1-1.1,1.6-1.3
			c0.6-0.2,1.4-0.3,2-0.4s1.4,0.3,2,0.4c0.7,0.1,1.3,0.2,1.9,0.5c0.6,0.3,1.1,0.7,1.7,1.1c0.5,0.4,1.3,0.7,1.7,1.2
			c0.4,0.5,0.5,1.3,0.7,1.9c0.2,0.6,0.4,1.3,0.4,2c0,0.3-0.1,0.6-0.1,0.9c0,0.7,0.2,1.3,0.2,2c0,0.7-0.2,1.3-0.2,2
			c0,0.7,0.2,1.3,0.2,2c0,0.7-0.3,1.3-0.3,2c0,0.7-0.2,1.3-0.2,2s0.3,1.3,0.3,2c0,0.7-0.4,1.3-0.4,1.9c0,0.7,0.2,1.3,0.2,2
			c0,0.7-0.4,1.3-0.4,1.9c0,0.7,0.1,1.3,0.1,2c0,0.7,0,1.3,0,2c0,0.7-0.1,1.3-0.1,2c0,0.7,0.2,1.3,0.2,2c0,0.7-0.4,1.3-0.4,1.9
			s-0.1,1.3-0.2,1.9c0,0.7,0.3,1.3,0.2,2c0,0.7-0.4,1.3-0.4,1.9c0,0.7,0.1,1.3,0.1,2c0,0.7-0.2,1.3-0.2,1.9c0,0.7-0.1,1.3-0.2,1.9
			c0,0.7,0,1.3-0.1,2c0,0.7,0.3,1.3,0.3,2c0,0.7-0.1,1.3-0.2,1.9c0,0.6-0.5,1.3-0.6,1.9c-0.1,1,0,1,0,2c-0.1,1,0.2,1,0.1,2
			c-0.1,1,0.1,1,0,2c-0.1,1,0,1,0,2c-0.1,1-0.3,1-0.3,1.9c-0.1,1-0.1,1-0.2,1.9c-0.1,1,0,1-0.1,1.9c-0.1,1-0.2,1-0.3,1.9
			c-0.1,1-0.1,1-0.2,1.9c-0.1,1,0.1,1,0,2c-0.1,1-0.2,1-0.3,1.9c-0.1,1-0.1,1-0.2,1.9c-0.1,1-0.1,1-0.1,1.9c-0.1,1,0.1,1,0,2
			c-0.1,1,0,1-0.1,2c-0.1,1,0,1-0.1,1.9c-0.1,1-0.3,1-0.4,1.9c-0.1,1-0.2,1-0.3,1.9c-0.1,1,0.2,1,0.1,2c-0.1,1-0.1,1-0.2,1.9
			c-0.1,1-0.1,1-0.2,1.9c-0.1,1-0.4,0.9-0.5,1.9c-0.1,1,0.1,1,0,2s-0.3,1-0.4,1.9c0,0.1,0.2,0.1,0.2,0.3c-0.1,0.7-0.5,1.1-1,1.5
			c-0.5,0.4-1,0.7-1.7,0.7c-0.2,0-0.3-0.2-0.4-0.3c0,0-0.1,0.3-0.1,0.3c-0.8-0.2-1.1-0.7-1.5-0.9c-0.4-0.3-0.8-0.4-1.1-0.6
			c-0.6-0.5-0.9-1.1-1.3-1.6c-0.4-0.5-0.8-1-1.2-1.5c-0.4-0.5-0.7-1-1.1-1.5c-0.4-0.5-0.7-1-1-1.5c-0.3-0.5-0.8-0.9-1.1-1.4
			c-0.3-0.5-0.5-1.1-0.9-1.6c-0.3-0.5-0.8-0.9-1.1-1.4c-0.4-0.6-0.8-1.1-1.1-1.7c-0.4-0.6-0.9-1.1-1.2-1.6c-0.4-0.6-0.4-1.3-0.8-1.9
			c-0.3-0.6-0.9-1-1.3-1.6c-0.3-0.6-0.9-1.1-1.2-1.6c-0.3-0.6-0.6-1.2-0.9-1.8s-0.3-1.4-0.7-1.9c-0.3-0.6-0.8-1.1-1.2-1.6
			c-0.3-0.6-0.9-1-1.2-1.6c-0.3-0.6-0.5-1.3-0.8-1.8c-0.3-0.6-0.6-1.2-0.9-1.8c-0.3-0.6-0.9-1.1-1.2-1.6c-0.3-0.6-0.7-1.1-1-1.7
			c-0.3-0.6-0.3-1.4-0.6-2c-0.3-0.6-1-1-1.3-1.6c-0.3-0.6-0.7-1.1-1-1.7c-0.3-0.6-0.3-1.4-0.6-2c-0.3-0.6-0.7-1.2-1-1.7
			c-0.3-0.6-1-1-1.3-1.6c-0.3-0.6-0.6-1.2-0.9-1.8c-0.3-0.6-0.7-1.2-1-1.8c-0.3-0.6-0.4-1.3-0.8-1.9c-0.3-0.6-0.8-1.1-1.2-1.6
			c-0.3-0.6-0.4-1.3-0.7-1.9c-0.3-0.6-0.7-1.1-1-1.7c-0.3-0.6-0.8-1.1-1.1-1.7c-0.3-0.6-0.7-1.1-1-1.7c-0.3-0.6-0.4-1.3-0.7-1.9
			c-0.3-0.6-1-1-1.3-1.6c-0.3-0.6-0.4-1.3-0.8-1.9c-0.3-0.6-0.5-1.2-0.9-1.8c-0.3-0.6-0.8-1.1-1.1-1.6c-0.3-0.6-0.6-1.2-0.9-1.8
			c-0.3-0.6-0.8-1.1-1.1-1.7c-0.3-0.6-0.7-1.1-1.1-1.7c-0.3-0.6-0.5-1.2-0.9-1.8c-0.3-0.6-0.5-1.2-0.8-1.8c-0.3-0.6-0.8-1-1.2-1.6
			c-0.3-0.6-0.6-1.2-1-1.7c-0.3-0.6-0.8-1-1.2-1.6c-0.3-0.6-0.8-1-1.2-1.6c-0.4-0.6-0.4-1.3-0.8-1.8c-0.4-0.6-1-1.1-1.4-1.7
			c-0.4-0.6-0.9-1.2-1.3-1.8c-0.4-0.6-0.6-1.4-1-2c-0.6-0.8-1.4-1.5-1.9-2.1c-0.3-0.3-0.5-0.4-0.5-0.4c0,0,0-0.1,0.1-0.1
			c0.1,0.1,0,0.3,0.3,0.5c0.1,0,0.1,0.1,0.1,0.2c0.1,0,0.2,0.1,0.3,0.1c0.1,0,0.2,0,0.3,0c0.1,0,0.3-0.2,0.5-0.2
			c0.5,0.1,1.5,0.5,2.5,0.2c0,0,0.1,0,0.1,0c0.6-0.8,0.3-1,0.9-1.8c0.6-0.8,0.9-0.6,1.5-1.4c0.6-0.8,0.4-0.9,1-1.7s0.3-1.9,1.2-1.6
			c1,0.4,0,1,0,2.1c0,1,0.2,1,0.2,2c0,1,0,1,0,2c0,1-0.2,1-0.2,2c0,1-0.2,1-0.2,2c0,1,0,1-0.1,2c0,1,0.5,1,0.5,2c0,1-0.2,1-0.2,2
			c0,1,0,1,0,2c0,1-0.3,1-0.3,2c0,1-0.1,1-0.1,2c0,1,0.3,1,0.3,2.1c0,1-0.2,1-0.2,2c0,1,0.1,1,0.1,2c0,1-0.4,1-0.4,2
			c0,1,0.4,1,0.3,2c0,1-0.3,1-0.3,2c0,1,0.1,1,0.1,2c0,1-0.2,1-0.2,2c0,1,0,1,0,2c0,1,0.4,1,0.3,2.1c0,1,0,1,0,2c0,1-0.1,1-0.1,2
			c0,1-0.2,1-0.2,2c0,1-0.2,1-0.2,2c0,1,0,1,0,2c0,1,0.1,1,0.1,2c0,1,0.3,1,0.3,2s-0.2,1-0.2,2c0,1-0.1,1-0.1,2c0,1-0.2,1-0.2,2
			c0,1-0.1,1-0.1,2c0,1,0.4,1,0.4,2.1c0,1,0,1,0,2c0,1-0.2,1-0.2,2s-0.2,1-0.2,2c0,1-0.2,1-0.2,2c0,1,0,1,0,2c0,1,0.2,1,0.2,2
			c0,1-0.1,1-0.1,2c0,1,0.3,1,0.2,2.1c0,1-0.5,1-0.5,2c0,0.7,0.4,1.4,0.4,2.1c0,0.7-0.1,1.4-0.1,2c0,0.7-0.1,1.4-0.2,2
			c0,0.7,0,1.4,0,2c0,0.7-0.3,1.4-0.4,2c0,0.7,0.3,1.4,0.3,2.1c0,0.7-0.4,1.4-0.9,1.9s-1.2,0.3-1.9,0.3c-0.6,0-1.4,0.1-1.8-0.3
			C263.9,167.9,263.7,167.2,263.6,166.6z"/>
	</g>
	<g>
		<path fill="#FFFFFF" d="M351.1,69.4c0.1,1,0,0.7,0.1,2.1c0.1,0.6-0.1,1.3,0,2.1c0.1,0.7,0,1.4,0.1,2.2c0.1,0.7,0.5,1.4,0.5,2.1
			c0,0.7-0.3,1.4-0.3,2.2c0,0.7,0.5,1.4,0.5,2.2c0,0.7,0,1.4,0.1,2.2c0,0.6,0,1.2,0.1,1.8c0,0.6,0.1,1.2,0.2,1.8
			c0,0.6,0.1,1.2,0.1,1.8c0,0.6-0.4,1.2-0.4,1.8c0,0.7,0.5,1.3,0.5,2c0,0.7-0.4,1.4-0.4,2c0,0.7,0,1.3,0.1,2c0,0.7,0,1.4,0,2
			c0,0.7,0,1.4,0.1,2.2c0,0.7,0.4,1.4,0.4,2.2c0,0.7,0,1.4,0,2.2c0,0.7-0.4,1.5-0.4,2.2c0,0.7,0.2,1.5,0.2,2.2
			c0,0.7,0.2,1.5,0.2,2.2c0,0.7-0.1,1.5-0.1,2.2c0,0.8-0.3,1.5-0.3,2.3c0,0.7,0.1,1.3,0.1,2c0,0.7,0.1,1.3,0.1,2
			c0,0.7,0.3,1.3,0.3,2c0,0.7-0.2,1.3-0.2,2c0,0.7-0.1,1.3-0.1,2c0,0.7,0.1,1.3,0.1,2c0,0.7,0.2,1.3,0.2,2c0,0.7-0.2,1.3-0.2,2
			c0,0.7,0.1,1.3,0.1,2c0,0.7,0,1.4,0,2c0,0.7,0,1.4,0,2c0,0.7-0.3,1.4-0.3,2c0,0.7,0.4,1.4,0.3,2c0,0.6,0,1.2,0,1.8
			c0,0.6-0.1,1.2-0.1,1.8c0,0.6-0.1,1.2-0.2,1.8c0,0.6-0.2,1.2-0.2,1.8c0,0.8-0.1,1.5-0.1,2.2c0,0.8,0.1,1.5,0.1,2.2
			c0,0.8,0.2,1.5,0.2,2.2c0,0.8-0.4,1.5-0.4,2.2c0,0.8,0.1,1.5,0.1,2.2c0,0.8-0.1,1.5-0.1,2.1c-0.1,1.3-0.1,1-0.1,2.1
			c0,0.7-0.5,1.1-0.9,1.6c-0.5,0.4-0.9,0.6-1.6,0.6c-0.6,0-1.3,0.2-1.8-0.2c-0.4-0.4-0.4-1.1-0.5-1.7c-0.2-1-0.4-0.7-0.6-2
			c-0.1-0.6-0.3-1.3-0.4-2c-0.1-0.7,0-1.4-0.1-2.2c-0.1-0.7-0.3-1.4-0.4-2.1c-0.1-0.7-0.2-1.4-0.3-2.2c-0.1-0.7,0-1.4-0.2-2.2
			c-0.1-0.7-0.2-1.4-0.3-2.2c-0.1-0.6-0.1-1.2-0.2-1.8c-0.1-0.6-0.2-1.2-0.3-1.8c-0.1-0.6,0-1.2-0.1-1.8c-0.1-0.6-0.5-1.1-0.6-1.8
			c-0.1-0.7,0.1-1.4,0-2.1c-0.1-0.7-0.5-1.3-0.6-2c-0.1-0.7,0.1-1.4,0-2.1c-0.1-0.7-0.2-1.3-0.2-2c-0.1-0.6-0.2-1.3-0.3-1.9
			c-0.1-0.6-0.4-1.3-0.5-1.9c-0.1-0.6-0.2-1.3-0.3-1.9c-0.1-0.6-0.1-1.3-0.1-2c-0.1-0.6-0.3-1.3-0.4-1.9c-0.1-0.6-0.1-1.3-0.2-2
			c-0.1-0.6-0.1-1.3-0.2-2c-0.1-0.7,0-1.3-0.1-2s-0.3-1.3-0.4-1.9c-0.1-0.7,0.1-1.5,0-2.3c-0.1-0.7-0.5-1.5-0.6-2.2
			c-0.1-0.7-0.2-1.5-0.3-2.2c-0.1-0.7,0-1.5-0.1-2.2c-0.1-0.7-0.4-1.4-0.5-2.1c-0.1-0.7,0.1-1.5,0-2.2c-0.1-0.7-0.5-1.4-0.6-2.1
			c-0.1-0.7,0.3-1.5,0.3-2.2c-0.1-0.7-0.3-1.3-0.3-2c-0.1-0.7-0.2-1.4-0.3-2c-0.1-0.7-0.1-1.4-0.2-2c-0.1-0.7-0.1-1.4-0.2-2
			c-0.1-0.6-0.2-1.2-0.3-1.8c-0.1-0.6-0.1-1.2-0.1-1.8c0-0.6,0.1-1.2,0.1-1.8c0-0.6-0.4-1.2-0.5-1.8c-0.1-0.7-0.1-1.5-0.2-2.2
			c-0.1-0.8,0.1-1.5,0-2.2c0-0.8,0.1-1.5,0.1-2.2c0-0.8-0.2-1.5-0.2-2.2c0-0.8-0.3-1.5-0.3-2.2c0-0.8,0.2-1.5,0.2-2.1
			c0-1.3-0.2-1-0.2-2.1c0-0.7-0.1-1.3,0.1-2c0.2-0.6,0.5-1.2,0.9-1.8c0.3-0.6,0.7-1.1,1.2-1.6c0.5-0.5,1-0.8,1.6-1.1
			c0.6-0.3,1.2-0.3,1.9-0.5c0.6-0.2,1.2-0.3,1.8-0.3c0.7,0,1.4-0.1,2.1,0.1c0.7,0.2,1.3,0.6,1.9,0.9c0.6,0.4,1,0.9,1.5,1.5
			c0.5,0.5,1,1,1.3,1.7C350.7,68,351,68.7,351.1,69.4z"/>
	</g>
	<g>
		<path fill="#FFFFFF" d="M375.6,70.5c0.1,1,0,1,0.2,2c0.1,1,0.5,0.9,0.7,1.9s0.1,1,0.2,2c0.1,1-0.2,1,0,2c0.1,1,0.4,0.9,0.6,1.9
			c0.1,1,0,1,0.2,2c0.1,0.7,0,1.3,0.1,2c0.1,0.7,0.2,1.3,0.3,2c0.1,0.7,0,1.3,0.1,2c0.1,0.7,0.3,1.3,0.4,1.9c0.1,0.7,0.1,1.3,0.2,2
			c0.1,0.7,0.5,1.3,0.6,1.9c0.1,0.7,0.1,1.3,0.2,2c0.1,0.7-0.1,1.4,0,2c0.1,0.7,0.3,1.3,0.4,1.9c0.1,0.7,0.1,1.3,0.2,2
			c0.1,0.7,0.6,1.2,0.7,1.9c0.1,0.7,0.1,1.3,0.2,2c0.1,0.7,0.3,1.3,0.4,1.9c0.1,0.7,0.2,1.3,0.3,2c0.1,0.7-0.1,1.4,0.1,2
			c0.1,0.7,0.4,1.3,0.5,1.9c0.1,0.7-0.1,1.4,0,2c0.1,0.7,0.3,1.3,0.4,1.9c0.1,0.6,0.3,1.3,0.4,1.9c0.1,0.6,0.5,1.2,0.7,1.9
			c0.1,0.6,0.2,1.3,0.3,2c0.1,0.6,0.3,1.3,0.4,1.9c0.1,0.6,0.3,1.3,0.4,1.9c0.1,0.6-0.1,1.4,0.1,2c0.1,0.6,0.3,1.3,0.5,1.9
			c0.1,0.6,0.4,1.3,0.5,1.9c0.1,0.6,0.3,1.3,0.5,1.9c0.1,0.6,0.3,1.3,0.4,1.9c0.1,0.6,0.2,1.3,0.4,1.9s0.1,1.3,0.3,2
			c0.2,0.6,0.4,1.3,0.5,1.9c0.2,0.6,0.3,1.3,0.5,1.9c0.2,0.6,0.7,1.2,0.8,1.8c0.2,0.6,0.3,1.3,0.4,1.9c0.2,0.6,0,1.4,0.2,2
			c0.2,0.6,0.4,1.3,0.6,1.9c0.2,0.6,0.7,1.2,0.9,1.8c0.2,0.6,0.3,1.3,0.5,1.9c0.2,0.6,0.2,1.3,0.4,1.9c0.5,1.4,0.6,1.3,1.1,2.7
			c0.5,1.4,1.4,1.4,0.9,2.8c-0.4,1-1,0.1-2,0.1c-1,0-1.9,1-2.2,0.1c-0.5-1.4,0.9-1.4,1.4-2.8c0.5-1.4,0.3-1.5,0.7-2.9
			c0.2-0.6,0.6-1.2,0.8-1.8c0.2-0.6,0.4-1.3,0.5-1.9c0.2-0.6,0.3-1.3,0.5-1.9c0.2-0.6,0.2-1.3,0.4-1.9c0.2-0.6,0.3-1.3,0.5-1.9
			c0.2-0.6,0.7-1.2,0.8-1.8c0.2-0.6,0-1.4,0.1-2c0.2-0.6,0.5-1.2,0.6-1.9s0.4-1.3,0.5-1.9c0.1-0.6,0-1.4,0.1-2
			c0.1-0.6,0.5-1.3,0.6-1.9c0.1-0.6,0.2-1.3,0.4-2c0.1-0.7,0.2-1.3,0.3-2c0.1-0.7,0.1-1.3,0.2-2c0.1-0.7,0.7-1.2,0.8-1.9
			c0.1-0.7,0-1.4,0.1-2c0.1-0.7,0.2-1.3,0.3-2c0.1-0.7,0.5-1.3,0.6-1.9c0.1-0.7,0.2-1.3,0.3-2c0.1-0.7,0-1.4,0.1-2
			c0.1-0.7,0.6-1.2,0.7-1.9c0.1-0.7,0.1-1.3,0.2-2c0.1-0.7,0.3-1.3,0.4-2c0.1-0.7-0.3-1.4-0.2-2c0.1-0.7,0.5-1.3,0.6-1.9
			c0.1-0.7,0.1-1.3,0.2-2c0.1-0.7,0-1.3,0.1-2c0.1-0.7,0.4-1.3,0.5-1.9c0.1-0.7-0.1-1.4,0-2c0.1-0.7,0.4-1.3,0.4-2
			c0.1-0.7,0-1.3,0.1-2c0.1-0.7,0.6-1.3,0.6-1.9s0.2-1.3,0.2-2c0.1-0.7-0.2-1.4-0.2-2c0.1-0.7,0.2-1.3,0.3-2
			c0.1-0.7,0.4-1.3,0.5-1.9c0.1-0.7,0.2-1.3,0.3-2c0.1-0.7,0-1.3,0.1-2s0.2-1.3,0.3-2c0.1-1,0-1,0.1-2c0.1-1,0.2-1,0.3-2
			c0.1-1,0.2-1,0.3-2c0.1-1-0.2-1-0.1-2c0.1-1,0-1,0.1-2c0.1-1,0.2-1,0.2-2c0-0.1-0.1-0.1-0.1-0.1c0.1-0.6,0.6-1.2,0.8-1.8
			c0.2-0.6,0.1-1.4,0.4-1.9c0.3-0.5,1-0.8,1.5-1.3c0.4-0.5,0.9-0.8,1.4-1.2c0.5-0.3,0.9-1,1.5-1.2c0.6-0.2,1.3-0.2,1.9-0.3
			c0.6-0.1,1.3-0.3,1.9-0.2c0.6,0.1,1.2,0.4,1.8,0.6c0.6,0.2,1.1,0.6,1.7,0.9c0.5,0.3,1.1,0.6,1.6,1c0.5,0.4,0.7,1,1.1,1.5
			c0.3,0.5,0.7,1,0.9,1.6c0.2,0.6,0.8,1.1,0.9,1.7c0.1,0.6-0.1,1.3-0.2,1.9c0,0.4,0.2,0.8,0.1,1.1c-0.2,1-0.3,1-0.5,2
			c-0.2,1-0.6,0.9-0.8,1.9c-0.2,1,0.1,1.1-0.2,2.1c-0.2,1-0.4,0.9-0.6,1.9c-0.2,1-0.1,1-0.3,2c-0.2,1-0.1,1-0.4,2
			c-0.2,0.7-0.6,1.3-0.7,1.9c-0.2,0.7-0.2,1.3-0.4,2c-0.2,0.7-0.4,1.3-0.6,2c-0.2,0.7-0.2,1.3-0.4,2c-0.2,0.7-0.5,1.3-0.6,1.9
			s0,1.4-0.1,2.1c-0.2,0.7-0.5,1.3-0.7,1.9c-0.2,0.7-0.2,1.4-0.3,2c-0.2,0.7-0.5,1.3-0.7,1.9c-0.2,0.7-0.3,1.3-0.4,2
			c-0.2,0.7-0.6,1.2-0.8,1.9c-0.2,0.7-0.3,1.3-0.5,2c-0.2,0.7-0.2,1.3-0.4,2c-0.2,0.7-0.4,1.3-0.6,1.9c-0.2,0.7-0.5,1.3-0.7,1.9
			c-0.2,0.7-0.4,1.3-0.6,1.9c-0.2,0.7,0,1.4-0.2,2.1c-0.2,0.7-0.6,1.2-0.8,1.9c-0.2,0.7-0.5,1.3-0.7,1.9c-0.2,0.7-0.2,1.4-0.4,2
			c-0.2,0.6-0.6,1.2-0.8,1.9c-0.2,0.6-0.1,1.4-0.3,2.1c-0.2,0.6-0.6,1.2-0.9,1.9c-0.2,0.6-0.1,1.4-0.3,2c-0.2,0.6-0.9,1.1-1.1,1.8
			c-0.2,0.6-0.3,1.3-0.5,2c-0.2,0.6-0.4,1.3-0.6,1.9c-0.2,0.6-0.3,1.3-0.6,2c-0.2,0.6-0.5,1.3-0.7,1.9s-0.2,1.4-0.4,2
			c-0.2,0.6-0.8,1.1-1.1,1.8c-0.2,0.6-0.2,1.4-0.5,2c-0.2,0.6-0.5,1.3-0.8,1.9c-0.2,0.6-0.7,1.2-1,1.8c-0.3,0.6-0.1,1.4-0.3,2.1
			c-0.3,0.6-0.6,1.2-0.9,1.8c-0.3,0.6-0.4,1.3-0.7,1.9c-0.3,0.6-0.8,1.2-1,1.8c-0.3,0.6-0.7,1.2-1,1.8c-0.3,0.7-0.1,0.8-0.4,1.5
			c-0.3,0.7-0.2,0.8-0.6,1.4c-0.3,0.7-0.7,0.5-1,1.2c-0.4,0.7-0.1,0.8-0.4,1.5c-0.3,0.6-0.9,1-1.5,1.1s-1.2-0.1-1.7-0.4
			c-0.4-0.2-0.7-0.5-1-0.9c-0.4-0.7-0.7-0.5-1-1.2c-0.4-0.7,0-0.9-0.3-1.6c-0.4-0.7-0.4-0.7-0.7-1.3c-0.3-0.7-0.6-0.5-1-1.2
			c-0.3-0.6-0.2-1.4-0.5-2c-0.3-0.6-0.9-1.1-1.2-1.7c-0.3-0.6-0.4-1.3-0.7-1.9c-0.3-0.6-0.3-1.3-0.6-1.9c-0.3-0.6-0.9-1.1-1.2-1.7
			c-0.3-0.6-0.2-1.4-0.4-2c-0.3-0.6-0.8-1.1-1-1.8c-0.2-0.6-0.5-1.3-0.7-1.9s-0.6-1.2-0.9-1.8c-0.2-0.6-0.1-1.4-0.4-2
			c-0.2-0.6-0.8-1.1-1-1.8c-0.2-0.6-0.5-1.3-0.7-1.9c-0.2-0.6-0.4-1.3-0.7-1.9c-0.2-0.6-0.4-1.3-0.7-1.9c-0.2-0.6-0.5-1.3-0.7-1.9
			c-0.2-0.6-0.3-1.3-0.5-2c-0.2-0.6-0.4-1.3-0.6-1.9c-0.2-0.6-0.5-1.2-0.8-1.9c-0.2-0.6-0.3-1.3-0.5-2c-0.2-0.6-0.4-1.3-0.6-1.9
			c-0.2-0.6-0.4-1.3-0.6-1.9c-0.2-0.6-0.4-1.3-0.6-1.9c-0.2-0.6-0.5-1.3-0.7-1.9c-0.2-0.6-0.3-1.3-0.5-1.9c-0.2-0.6-0.5-1.3-0.7-1.9
			c-0.2-0.6-0.4-1.3-0.6-1.9c-0.2-0.6-0.4-1.3-0.6-1.9c-0.2-0.6-0.6-1.2-0.8-1.9c-0.2-0.6-0.3-1.3-0.5-2c-0.2-0.6-0.4-1.3-0.6-1.9
			c-0.2-0.6-0.4-1.3-0.6-1.9c-0.2-0.6-0.3-1.3-0.5-2c-0.2-0.6-0.3-1.3-0.5-2c-0.2-0.6-0.4-1.3-0.6-1.9c-0.2-0.6-0.3-1.3-0.5-1.9
			c-0.2-0.6-0.4-1.3-0.6-1.9c-0.2-0.6-0.3-1.3-0.5-2c-0.2-0.6-0.4-1.3-0.6-1.9c-0.2-0.6-0.5-1.3-0.6-1.9c-0.3-1,0-1-0.3-2
			c-0.3-1-0.4-0.9-0.7-1.9c-0.3-1-0.4-0.9-0.7-1.9c-0.3-1,0.1-1.1-0.2-2.1c-0.3-1-0.7-0.9-0.9-1.9c-0.3-1-0.2-1-0.4-2
			c-0.2-0.6-0.3-1.3-0.3-1.9c0-0.7,0-1.4,0.1-2c0.1-0.6,0.6-1.2,0.9-1.8c0.3-0.6,0.7-1,1.1-1.5c0.4-0.5,0.6-1.2,1.1-1.6
			c0.5-0.4,1-0.8,1.6-1.1c0.6-0.3,1.3-0.2,1.9-0.4c0.6-0.2,1.2-0.5,1.9-0.6c0.7,0,1.3,0.1,1.9,0.2c0.6,0.1,1.2,0.5,1.7,0.8
			c0.6,0.3,1.4,0.2,1.9,0.6c0.5,0.4,1.1,0.8,1.5,1.3c0.4,0.5,0.5,1.3,0.8,1.8c0.3,0.6,0.5,1.1,0.6,1.8c0.1,0.4,0.1,0.6,0.2,1
			C375.5,70.4,375.6,70.4,375.6,70.5z"/>
	</g>
	<g>
		<g>
			<g>
				<path fill="#FFFFFF" d="M726.3,79.1c-0.6-0.1-1.3,0.1-1.9,0.1c-0.6,0-1.3-0.6-1.9-0.6c-0.6,0-1.3,0.3-1.9,0.3
					c-0.6,0-1.3,0.1-1.9,0.1c-0.6,0-1.3-0.4-1.9-0.5c-0.6,0-1.3-0.1-1.9-0.2c-0.6,0-1.3,0.2-1.9,0.2s-1.3,0.3-1.9,0.3
					c-0.6,0-1.3-0.3-1.9-0.3s-1.3,0.1-1.9,0.1c-0.6,0-1.3,0-1.9,0c-0.6,0-1.3-0.4-1.9-0.4c-0.6,0-1.3,0.4-1.9,0.4
					c-0.6,0-1.3-0.4-1.9-0.4c-0.6,0-1.3,0.5-1.9,0.5c-0.6,0-1.3-0.2-1.9-0.2c-0.6,0-1.3-0.1-1.9-0.1s-1.3,0.3-1.9,0.3
					c-0.6,0-1.3,0-1.9,0c-0.6,0-1.3-0.3-1.9-0.3c-0.6,0-1.3-0.1-1.9-0.1c-0.6,0-1.3,0-1.9,0c-0.6,0-1.3,0.3-1.9,0.3
					c-0.6,0-1.3,0-1.9,0c-1,0-1,0.2-1.9,0.2s-1-0.3-1.9-0.3c-0.6,0-1.3,0.5-1.9,0.5c-0.6,0-1.3-0.2-1.9-0.1c-0.6,0-1.3,0.5-1.9,0.5
					s-1.3-0.5-2-0.5c-0.6,0-1.2,0.5-1.9,0.6c-0.6,0-1.5-0.2-2.1-0.1c0.6-0.9,0.8-0.8,1.5-1.5c0.8-0.7,0.7-0.8,1.5-1.5
					c0.8-0.7,0.8-0.7,1.5-1.4c0.8-0.7,0.8-0.7,1.5-1.4c0.8-0.7,1.1-0.4,1.8-1.1c0.8-0.7,0.6-0.8,1.4-1.5c0,0-0.2,0-0.2,0
					c-0.1,0.9,0.5,1,0.4,1.9c-0.1,0.9-0.2,0.9-0.3,1.8c-0.1,0.9-0.1,0.9-0.2,1.8c-0.1,0.9-0.2,0.9-0.4,1.8c-0.1,0.9-0.5,0.9-0.6,1.8
					c-0.1,0.9-0.1,0.9-0.2,1.9c-0.1,0.9,0,0.9-0.1,1.9c-0.1,0.9-0.1,0.9-0.3,1.9c-0.1,1.1,0.2,1.1,0.1,2.2c-0.1,1.1-0.1,1.1-0.3,2.1
					c-0.1,1.1-0.3,1-0.4,2.1c-0.1,1.1-0.3,1-0.4,2.1c-0.1,1.1-0.3,1-0.5,2.1c-0.1,1.1,0.4,1.1,0.2,2.2c-0.1,1.1-0.4,1-0.5,2.1
					c-0.1,0.7,0,1.4-0.1,2.1c-0.1,0.7-0.4,1.4-0.5,2.1c-0.1,0.7-0.1,1.4-0.2,2.1c-0.1,0.7-0.5,1.4-0.6,2.1c-0.1,0.7,0.2,1.5,0.1,2.2
					c-0.1,0.7,0.1,1.4,0,2.2c-0.1,0.7-0.6,1.4-0.7,2.1c-0.1,1.1-0.2,1.1-0.3,2.1c-0.1,1.1-0.2,1.1-0.3,2.1c-0.1,1.1,0.5,1.1,0.4,2.2
					c-0.1,1.1-0.5,1-0.6,2.1c-0.1,1.1,0.1,1.1,0,2.1c-0.1,1.1,0,1.1-0.1,2.1c-0.1,1.1-0.6,1-0.7,2.1c-0.1,0.6,0.3,1.3,0.3,1.9
					c-0.1,0.6-0.5,1.2-0.6,1.8c-0.1,0.6,0,1.3,0,1.9c-0.1,0.6-0.1,1.2-0.1,1.9c-0.1,0.6-0.4,1.2-0.5,1.8c-0.1,0.6-0.1,1.2-0.1,1.9
					c-0.1,0.6-0.1,1.2-0.2,1.9c-0.1,0.6,0,1.3-0.1,1.9c-0.1,0.9-0.2,0.9-0.3,1.8c-0.1,0.9,0.3,1,0.2,1.9c-0.1,0.9-0.3,0.9-0.4,1.8
					s0.4,1,0.4,1.9c-0.1,0.9-0.4,0.9-0.4,1.8c-0.1,0.9-0.4,0.9-0.4,1.8c-0.1,0.9,0,0.9-0.1,1.9c-0.1,0.9-0.2,0.9-0.2,1.9
					c0,0.6,0.3,1.3,0.2,1.9c0,0.6-0.1,1.2-0.2,1.9c0,0.6,0.2,1.3,0.2,1.9c0,0.6-0.1,1.2-0.1,1.9c0,0.6-0.2,1.2-0.2,1.9
					c0,0.6,0.1,1.3,0.1,1.9c0,0.6-0.6,1.2-0.7,1.8c0,0.6,0.4,1.3,0.4,1.9c0,0.6,0,1.2,0,1.9c0,0.6,0.1,1.2,0,1.9
					c0,0.6-0.4,1.2-0.4,1.8c0,0.6,0.2,1.2,0.2,1.9c0,0.9,0,0.9,0,1.9c0,0.9,0,0.9,0,1.9c0,0.9,0,0.9,0,1.9c0,0.9,0.6,1.6-0.2,2
					c-0.7,0.4-0.7-0.8-1.3-1.3c-0.6-0.6-0.9-0.3-1.5-0.9c-0.6-0.6-0.6-0.6-1.2-1.2c0,0,0.2-0.4,0.2-0.4c0.7,0,1.5,0.5,2.2,0.5
					c0.7,0,1.5,0,2.2,0c0.7,0,1.5-0.4,2.2-0.4s1.5-0.1,2.2-0.1c0.7,0,1.5,0.2,2.2,0.3c0.7,0,1.4,0.3,2.2,0.3c0.7,0,1.5,0.2,2.2,0.2
					c0.7,0,1.5-0.1,2.2-0.1c0.7,0.1,1.4,0.3,2.2,0.4c0.7,0.1,1.5,0.2,2.2,0.3c0.7,0.1,1.5,0.2,2.2,0.3c0.7,0.1,1.5,0.1,2.2,0.2
					c0.7,0.1,1.5,0.2,2.2,0.4c0.7,0.1,1.4,0.4,2.2,0.6c1,0.2,1.1,0,2.2,0.2c0.6,0.1,1.4,0,2.1,0.1c0.7,0.1,1.3,0.4,2,0.6
					c0.7,0.1,1.4,0.1,2.1,0.2c0.7,0.1,1.3,0.5,2,0.5c0.7,0.1,1.4,0.1,2.1,0.2c0.7,0.1,1.4,0.4,2,0.5c0.7,0,1.4,0.2,2.1,0.2
					c0.7,0,1.4,0.1,2.1,0.1c0.7,0,1.4-0.6,2.1-0.6c0.7,0,1.4,0.4,2.1,0.4c0.7,0,1.3-0.3,2-0.4c0.7-0.1,1.4-0.1,2-0.2
					c0.7-0.1,1.3-0.4,2-0.5c0.6-0.1,1.3-0.1,1.9-0.2c0.6-0.2,1.3-0.1,2-0.3c0.6-0.2,1.1-0.8,1.7-1c0.6-0.3,1.3-0.2,1.9-0.6
					c0,0,0,0,0,0c0.6-0.3,1.2-0.9,1.8-0.7c0.6,0.2,1.3,0.7,1.6,1.3c0.3,0.6,0.3,1.4,0.1,2c-0.2,0.6-0.4,1.3-1,1.7
					c-0.5,0.3-1.3,0.4-1.8,0.6c-0.6,0.3-1.1,0.7-1.7,0.9c-0.6,0.2-1.2,0.3-1.8,0.5c-0.6,0.2-1.1,0.8-1.7,1c-0.6,0.2-1.2,0.4-1.8,0.5
					c-0.6,0.1-1.2,0.1-1.8,0.2c-0.6,0.1-1.2,0.1-1.8,0.2c-0.6,0.1-1.2,0.5-1.8,0.5c-0.6,0.1-1.2-0.3-1.8-0.2
					c-0.6,0.1-1.2,0.4-1.8,0.5c-0.7,0-1.3-0.5-2-0.4c-0.7,0-1.3,0.4-2,0.4c-0.7,0-1.3,0.1-2,0.1c-0.7,0-1.3-0.4-2-0.5
					c-0.7,0-1.4,0.5-2,0.4c-0.7,0-1.3-0.2-2-0.3c-0.7-0.1-1.3-0.1-2-0.2c-0.7-0.1-1.3-0.2-2-0.3c-0.7-0.1-1.2-0.7-1.9-0.8
					c-0.7-0.1-1.5,0.1-2.3-0.1c-1.1-0.2-1-0.5-2.1-0.7c-0.7-0.1-1.4,0.1-2.1,0c-0.7-0.1-1.3-0.2-2-0.2c-0.7-0.1-1.4-0.3-2.1-0.4
					c-0.7-0.1-1.4,0.1-2.1,0.1c-0.7-0.1-1.4-0.5-2.1-0.5c-0.7,0-1.4,0.1-2.1,0.1c-0.7,0-1.4,0.2-2.1,0.1c-0.7,0-1.4-0.4-2.1-0.5
					c-0.7,0-1.4-0.1-2.1-0.1c-0.7,0-1.4,0.2-2.1,0.2c-1.1,0-1.1,0.1-2.1,0.1s-1.1-0.1-2.1-0.1c-0.7,0-1.4-0.3-2.1-0.2
					c-0.7,0-1.4,0.3-2.1,0.3c0,0,0-0.4,0-0.4c-0.6,0-1-0.1-1.6-0.3c-0.5-0.3-1.1-0.3-1.5-0.8c-0.3-0.5-0.3-1-0.3-1.7
					c0-0.2-0.2-0.1-0.2-0.3c-0.1-0.9-0.4-0.9-0.5-1.9c-0.1-0.9,0.5-1,0.4-2c-0.1-1-0.5-0.9-0.6-1.9s-0.3-0.9-0.4-1.9
					c-0.1-0.6,0.4-1.3,0.3-1.9c0-0.6-0.4-1.2-0.5-1.9c0-0.6-0.1-1.3-0.2-1.9s0.4-1.3,0.3-1.9c0-0.6-0.4-1.2-0.4-1.9
					c0-0.6,0.2-1.3,0.2-1.9c0-0.6-0.4-1.2-0.5-1.9s0-1.3-0.1-1.9c0-0.6,0.4-1.3,0.4-1.9c0-0.6-0.5-1.2-0.5-1.9
					c0-0.6,0.2-1.3,0.2-1.9c0-0.6-0.2-1.3-0.2-1.9c0-0.9,0.1-0.9,0.1-1.9c0-0.9-0.3-0.9-0.3-1.9c0-0.9-0.1-0.9-0.2-1.9
					c0-0.9,0-1-0.1-1.9c0-0.9,0.2-1,0.2-1.9c0-0.9,0.3-1,0.3-1.9c0-0.9-0.4-0.9-0.4-1.9s0.4-1,0.3-1.9c0-0.6-0.5-1.3-0.5-1.9
					c0-0.6,0.5-1.3,0.5-1.9c0-0.6-0.5-1.3-0.5-1.9c0-0.6,0-1.3,0-1.9c0-0.6,0.4-1.3,0.4-1.9c0-0.6-0.2-1.3-0.2-1.9
					c0-0.6-0.3-1.3-0.3-1.9c0-0.6,0.3-1.3,0.3-1.9c0-0.6-0.5-1.3-0.5-1.9c0-0.6,0.5-1.3,0.5-1.9c0-0.6-0.3-1.3-0.3-1.9
					c0-0.6,0.2-1.3,0.2-1.9c0-0.6-0.1-1.3-0.1-1.9c0-0.6-0.2-1.3-0.1-1.9c0-0.6,0.1-1.3,0.1-1.9c0-0.6,0.1-1.3,0.1-1.9
					c0-0.6,0.3-1.3,0.3-1.9c0-0.6-0.2-1.3-0.2-1.9s-0.2-1.3-0.2-1.9s0.3-1.3,0.3-1.9c0-0.6,0.3-1.3,0.3-1.9c0-0.6,0.1-1.3,0.1-1.9
					s-0.1-1.3,0-1.9c0-0.6-0.3-1.3-0.3-1.9c0-0.6,0.4-1.3,0.4-1.9c0-0.6-0.1-1.3-0.1-1.9c0-0.6,0.5-1.2,0.5-1.9
					c0-0.6-0.2-1.3-0.1-1.9c0-0.6-0.4-1.3-0.4-1.9c0-0.6,0.5-1.2,0.5-1.9c0-0.6,0.1-1.3,0.2-1.9s-0.4-1.3-0.4-1.9
					c0-0.9,0.5-0.9,0.5-1.9c0-0.9,0-0.9,0-1.9c0-0.9-0.5-1-0.4-1.9c0-0.9,0.1-0.9,0.2-1.9c0-0.9-0.1-1,0-1.9c0-1,0.3-0.9,0.3-1.9
					c0-1,0.1-1,0.1-1.9s0.3-0.9,0.3-1.9c0,0-0.5-0.1-0.5-0.1c0.1-0.6,0.7-0.5,0.8-1.1c0.1-0.7-0.3-1.6,0-2.2
					c0.3-0.7,0.9-1.1,1.4-1.7c0.4-0.6,1-1,1.5-1.4c0.5-0.4,1-1,1.7-1.3c0.6-0.3,1.3-0.6,2-0.7c0.7-0.1,1.4,0.1,2.1,0.2
					c0.6,0,1.3-0.2,1.9-0.2c0.6,0,1.3,0,1.9,0c0.6,0,1.3,0.4,1.9,0.4c0.6,0,1.3-0.5,1.9-0.5c0.6,0,1.3,0.1,1.9,0.1
					c0.6,0,1.3,0,1.9,0c1,0,1,0.2,1.9,0.2c1,0,1,0.2,1.9,0.2c0.6,0,1.3,0,1.9,0.1s1.3,0.2,1.9,0.2c0.6,0,1.3-0.3,1.9-0.3
					c0.6,0,1.3,0.2,1.9,0.2c0.6,0,1.3-0.4,1.9-0.4s1.3-0.1,1.9-0.1s1.3,0.2,1.9,0.2c0.6,0,1.3,0.2,1.9,0.2c0.6,0,1.3-0.3,1.9-0.3
					c0.6,0,1.3,0.1,1.9,0.1c0.6,0,1.3,0.2,1.9,0.2s1.3-0.1,1.9-0.1c0.6,0,1.3,0.1,1.9,0.1c0.6,0,1.3-0.5,1.9-0.6s1.3,0.1,1.9,0.1
					c0.6,0,1.3-0.2,1.9-0.2c0.6,0,1.3,0,1.9,0c0.6,0,1.3,0.4,1.9,0.4c0.6,0,1.3-0.5,1.9-0.5c0.6,0,1.3,0,1.9-0.1
					c0.6,0,1.3,0.3,1.9,0.3c0.6,0,1.2-0.6,1.9-0.6c0.6,0,1.3,0.2,1.9,0.2c0.6-0.1,1.3-0.1,1.9-0.2c0.7-0.1,1.4-0.1,2.1,0
					c0.7,0.1,1.4,0.2,2,0.5c0.7,0.2,1.4,0.3,2,0.7c0.6,0.4,1.1,0.9,1.6,1.4c0.5,0.5,0.9,1.1,1.3,1.7c0.4,0.6,0.8,1.2,1,1.9
					c0.2,0.7,0.1,1.4,0.1,2.1c0.1,0.7,0.3,1.4,0.2,2.1c-0.1,0.7-0.5,1.3-0.8,2c-0.2,0.7-0.3,1.4-0.7,2c-0.4,0.6-1.1,0.9-1.6,1.4
					c-0.5,0.5-1,0.9-1.6,1.3c-0.6,0.4-1.1,0.8-1.8,1.1c-0.7,0.2-1.3,0.5-2.1,0.6C727.5,79.2,726.9,79.2,726.3,79.1z"/>
			</g>
			<g>
				<path fill="#FFFFFF" d="M662.4,158.6c1,0,0.7,0.1,2,0.1c0.6,0,1.2,0.2,2,0.2c0.6,0,1.3,0,2,0c0.6,0,1.3-0.2,2.1-0.1
					c0.7,0,1.3,0.1,2.1,0.1c0.7,0,1.4,0.1,2.1,0.1c0.6,0,1.2-0.2,1.8-0.2c0.6,0,1.2,0.1,1.8,0.1c0.6,0,1.2-0.1,1.8-0.1
					c0.6,0,1.2,0,1.8,0c0.6,0,1.2,0,1.8,0c0.6,0,1.2-0.1,1.8-0.1c0.6,0,1.2,0,1.8,0c0.6,0,1.2,0,1.8,0c0.7,0,1.4,0,2.1,0
					c0.7,0,1.4,0,2.1,0c0.7,0,1.4,0,2.1,0c0.7,0,1.4-0.1,2-0.1c0.8,0,1.4-0.2,2-0.2c1.3-0.1,1,0,2-0.1c0.8,0,1.5,0.3,2.2,0.7
					c0.7,0.4,1.4,0.7,1.8,1.4c0.4,0.6,0.5,1.4,0.5,2.2c0,0.8-0.1,1.5-0.4,2.2c-0.4,0.7-0.8,1.4-1.5,1.8c-0.6,0.4-1.4,0.7-2.2,0.7
					c-0.2,0-0.4-0.2-0.5-0.2c-1-0.1-0.7,0.2-2,0.1c-0.6,0-1.2-0.2-2-0.3c-0.6,0-1.3,0.1-2,0.1c-0.6,0-1.3-0.2-2-0.2
					c-0.7,0-1.4,0.1-2.1,0.1c-0.7,0-1.3-0.2-2-0.3c-0.6,0-1.2,0.1-1.8,0.1c-0.6,0-1.2-0.1-1.8-0.1c-0.6,0-1.2,0-1.8,0
					c-0.6,0-1.2,0-1.8,0c-0.6,0-1.2-0.1-1.8-0.1c-0.6,0-1.2,0.1-1.8,0.1c-0.6,0-1.2-0.2-1.8-0.2c-0.6,0-1.2,0-1.8-0.1
					c-0.7,0-1.4,0-2.1,0c-0.7,0-1.4,0-2.1,0c-0.7,0-1.4-0.1-2.1-0.1c-0.7,0-1.4,0.1-2,0.1c-0.8,0-1.4,0.1-2,0.1c-1.3,0-1,0-2,0
					c-0.7,0-1.4-0.1-1.9-0.4c-0.6-0.3-1-0.9-1.3-1.4c-0.3-0.5-0.5-1.1-0.6-1.8c0-0.7,0-1.4,0.3-1.9c0.3-0.6,0.9-1,1.4-1.4
					c0.5-0.3,1.2-0.5,1.9-0.5C662.3,158.7,662.4,158.6,662.4,158.6z"/>
			</g>
		</g>
	</g>
	<g>
		<g>
			<g>
				<path fill="#FFFFFF" d="M94.2,70c0.6-0.1,1.2-0.2,1.8-0.3c0.6-0.1,1.2-0.2,1.8-0.3c0.6-0.1,1.2-0.1,1.8-0.1
					c0.6-0.1,1.1-0.4,1.7-0.4c0.6,0,1.2-0.1,1.8-0.1c0.6,0,1.2,0,1.8,0c0.6,0,1.2,0.2,1.8,0.2c0.6,0,1.2-0.1,1.8-0.1
					c0.7,0,1.4-0.1,2.1-0.1c0.7,0,1.4,0,2.1,0c0.7,0,1.4,0.1,2.1,0.2c0.7,0.1,1.4,0.2,2.1,0.3c0.7,0.1,1.4,0.1,2.1,0.2
					c0.7,0.1,1.3,0.4,2,0.5c0.7,0.1,1.4,0.2,2,0.4c0.6,0.1,1.2,0.4,1.8,0.6c0.6,0.2,1.3,0.1,1.9,0.3c0.6,0.2,1.1,0.6,1.7,0.9
					c0.6,0.2,1.2,0.5,1.8,0.7c0.6,0.3,1.3,0.5,1.9,0.8c0.6,0.3,1.3,0.6,1.8,1c0.6,0.4,1.1,0.9,1.6,1.3c0.5,0.4,0.9,1.1,1.4,1.6
					c0.5,0.5,1.1,0.9,1.6,1.5c0.3,0.3,0.1,0.4,0.4,0.8c0.2,0.2,0.4,0.6,0.6,0.8c0.4,0.6,0.7,1.2,1.1,1.7c0.4,0.6,0.8,1.1,1.1,1.7
					c0.3,0.6,0.6,1.2,0.9,1.8c0.3,0.6,0.6,1.2,0.8,1.8c0.2,0.6,0.1,1.4,0.2,2c0.2,0.6,0.6,1.2,0.7,1.9c0.1,0.6,0.1,1.3,0.2,2
					c0.1,0.6,0,1.3,0,2c0,0.7,0.4,1.3,0.4,2c0,0.7-0.3,1.3-0.4,1.9c-0.1,0.7,0.1,1.3,0,2c-0.1,0.6-0.4,1.2-0.6,1.9
					c-0.2,0.6-0.3,1.3-0.5,1.9c-0.2,0.6-0.4,1.2-0.6,1.8c-0.2,0.6-0.3,1.3-0.6,1.9c-0.3,0.6-0.7,1.1-1.1,1.7c-0.3,0.6-0.6,1.2-1,1.8
					c-0.4,0.5-0.8,1-1.3,1.5c-0.4,0.5-1,0.9-1.5,1.4c-0.5,0.5-0.9,1-1.5,1.4c-0.5,0.4-1.2,0.7-1.8,1c-0.6,0.4-1.1,0.8-1.7,1.1
					c-0.1,0.1-0.1,0.2-0.2,0.2c-0.1,0-0.2-0.3-0.3-0.3c-0.1,0,0,0.2-0.2,0.2c-0.2,0.1-0.2,0-0.4,0c-0.4,0.2-0.3,0.3-0.7,0.4
					c-0.5,0.2-0.9,0.6-1.6,0.8c-0.9,0.3-0.9,0.2-1.8,0.5c-0.6,0.2-1.1,0.5-1.7,0.7c-0.6,0.2-1.2,0.1-1.8,0.3
					c-0.6,0.1-1.1,0.5-1.7,0.6c-0.6,0.1-1.2,0.1-1.8,0.2c-0.6,0.1-1.2,0-1.8,0.1c-0.6,0.1-1.1,0.3-1.7,0.4c-0.6,0.1-1.2,0.1-1.7,0.2
					c-0.6,0-1.2,0.1-1.8,0.1c-0.6,0-1.2-0.1-1.8-0.1c-0.6,0-1.2,0.3-1.8,0.3c-0.6,0-1.2-0.3-1.7-0.3c-0.6,0-1.2,0-1.8,0
					c-0.6,0-1.2,0.1-1.8,0c0,0-0.1,0-0.1,0c-0.9-0.1-1.5-0.7-2-1.4c-0.5-0.6-0.9-1.4-0.8-2.2c0.1-0.8,0.5-1.6,1.1-2.1
					c0.6-0.5,1.5-0.8,2.3-0.8c0.6,0,1.1,0.4,1.6,0.4c0.5,0.1,1.1-0.1,1.6,0c0.5,0.1,1,0.3,1.5,0.4c0.5,0.1,1,0.1,1.6,0.2
					c0.7,0.1,1.4,0.2,2.1,0.4c0.7,0.2,1.3,0.4,2,0.6c0.7,0.2,1.4,0.3,2,0.6c0.7,0.2,1.4,0.4,2,0.7c0.7,0.2,1.4,0.4,2,0.7
					c0.7,0.3,1.3,0.6,1.9,0.9c0.5,0.2,0.9,0.6,1.4,0.9c0.5,0.3,1,0.4,1.5,0.7c0.5,0.3,1,0.5,1.4,0.8c0.4,0.3,0.8,0.8,1.2,1.1
					c0.4,0.3,1,0.5,1.4,0.9c0.4,0.4,0.8,0.8,1.2,1.2c0.4,0.4,0.7,0.9,1,1.3c0.1,0.2,0.1,0.2,0.2,0.3c0.1,0.1,0,0.1,0.1,0.2
					c0,0,0,0,0,0c0,0-0.1,0.1-0.1,0.1c0,0,0.2-0.2,0.2-0.2c0,0,0,0,0,0c0,0-0.2,0.2-0.2,0.3c0.2,0.3,0.5,0.1,0.7,0.4
					c0.5,0.6,0.4,0.6,0.9,1.2c0.4,0.5,0.5,0.5,0.9,1c0.3,0.4,0.4,0.9,0.7,1.2c0.3,0.3,0.7,0.6,1.1,0.9c0.5,0.5,0.5,0.5,1.1,0.9
					c0.5,0.4,0.5,0.4,1.1,0.9c0.4,0.3,0.8,0.4,1.2,0.6c0.4,0.2,0.7,0.5,1.1,0.7c0.8,0.4,1.6,0.7,2.5,0.9c0.4,0.1,0.8,0.2,1.2,0.3
					c0.2,0,0.4,0.2,0.6,0.2c0.1,0,0.4-0.3,0.4-0.3c0.7,0,1.4,0.3,1.9,0.8c0.5,0.4,0.8,1.2,0.8,1.8c0,0.7-0.4,1.4-0.8,1.8
					c-0.4,0.5-1.1,0.6-1.8,0.6c-0.6,0-0.8,0.1-1.2,0.1c-0.5-0.1-0.4-0.4-0.8-0.6c-0.6-0.2-1.2-0.2-1.7-0.4c-0.5-0.2-1.1-0.3-1.6-0.5
					c-0.5-0.2-0.9-0.7-1.4-1c-0.5-0.3-1-0.5-1.4-0.8c-0.5-0.3-1-0.5-1.4-0.8c-0.4-0.3-0.8-0.7-1.3-1c-0.4-0.3-0.9-0.7-1.3-1
					c-0.4-0.4-0.9-0.6-1.3-1c-0.4-0.4-0.8-0.7-1.2-1.1c-0.6-0.6-0.5-0.6-1.1-1.2c-0.5-0.5-0.5-0.5-1-1.1c-0.3-0.3-0.2-0.3-0.5-0.6
					c-0.3-0.3-0.3-0.3-0.5-0.5c-0.3-0.3-0.5-0.8-0.8-1.1c-0.6-0.6-1.3-1.2-2.1-1.7c-0.6-0.4-1.2-0.8-1.9-1.2c-0.6-0.4-1.3-0.7-2-1
					c-0.7-0.3-1.4-0.5-2.1-0.8c-0.7-0.3-1.3-0.7-2-0.9c-0.7-0.2-1.4-0.4-2.1-0.6c-0.6-0.2-1.2-0.2-1.9-0.3c-0.6-0.1-1.2-0.4-1.8-0.5
					c-0.6-0.1-1.2-0.4-1.8-0.5c-0.9-0.1-1.9-0.2-2.8-0.3c-0.9-0.1-2-0.1-2.8-0.1c-0.3-1,0.2-1,0.3-2.1c0.1-1-0.2-1-0.1-2.1
					c0.1-1,0.1-1,0.4-2c0.5,0,0.9,0,1.4,0c0.5,0,1-0.1,1.5-0.1c0.5,0,1,0.2,1.6,0.2c0.5,0,1-0.2,1.6-0.3c0.7,0,1.4,0,2.1-0.1
					c0.7-0.1,1.4-0.1,2.1-0.2c0.7-0.1,1.4-0.3,2-0.5c0.7-0.1,1.3-0.2,2-0.4c0.7-0.2,1.4-0.2,2-0.4c0.7-0.2,1.3-0.3,2-0.5
					c0.5-0.2,1-0.4,1.4-0.6c0.7-0.3,0.6-0.4,1.3-0.7c0.4-0.1,1-0.3,1.5-0.5c0.4-0.2,0.4-0.2,0.7-0.4c0.2-0.1,0.2-0.1,0.4-0.2
					c0,0,0-0.1,0-0.1c0.1,0-0.2-0.1-0.2-0.1c0,0,0.1,0.1,0.1,0.1c0,0,0.1,0.1,0.1,0.1c0.1,0,0.1,0,0.1-0.1c0.5-0.3,0.9-0.7,1.3-1.1
					c0.4-0.3,1.1-0.5,1.5-0.9c0.4-0.4,0.8-0.8,1.1-1.3c0.4-0.5,0.7-1,1-1.5c0.3-0.5,0.4-1.1,0.7-1.7c0.2-0.5,0.5-1.1,0.7-1.6
					c0.2-0.7,0.3-1.4,0.4-2.1c0.1-0.7,0.5-1.4,0.5-2.1c0.1-0.7,0.1-1.5,0.1-2.2c0-0.7-0.2-1.4-0.3-2.2c-0.1-0.7-0.1-1.5-0.3-2.2
					c-0.1-0.6-0.6-1.1-0.8-1.6c-0.2-0.6-0.4-1.1-0.7-1.6c-0.2-0.5-0.2-1.2-0.5-1.7c-0.2-0.4-0.7-0.6-0.9-1c-0.3-0.4-0.4-0.8-0.6-1.1
					c-0.1-0.2-0.3-0.2-0.4-0.4c-0.3-0.3-0.2-0.4-0.5-0.7c-0.2-0.3-0.6-0.5-0.9-0.7c-0.5-0.5-1-0.9-1.7-1.3c-0.6-0.4-1.3-0.5-1.9-0.8
					c-0.6-0.3-1.2-0.6-1.9-0.8c-0.7-0.2-1.3-0.6-2-0.8c-0.7-0.2-1.4,0-2.1-0.1c-0.7-0.1-1.3-0.2-2-0.3c-0.7-0.1-1.3-0.3-2-0.4
					c-0.7,0-1.3,0.1-2,0c-0.7,0-1.3-0.1-2-0.1c-0.7,0-1.3-0.1-2-0.1c-0.7,0-1.3,0.3-2,0.3c-0.7,0-1.4,0-2.1,0.1
					c-0.7,0.1-1.4,0.2-2,0.2c-0.7,0.1-1.4-0.1-2.1,0c-0.5,0.1-1,0.4-1.5,0.5c-0.5,0.1-1,0.1-1.5,0.2c-1,0.2-2.1,0.4-2.9,0.6
					c-0.6,0.2-1.3,0.2-1.9,0.1c-0.6,0-1.3-0.1-1.9-0.3c-0.6-0.2-1-0.8-1.5-1.2c-0.5-0.4-1-0.8-1.4-1.3c-0.3-0.5-0.4-1.2-0.6-1.8
					c-0.2-0.6-0.4-1.3-0.3-1.9c0-0.6,0.1-1.3,0.3-1.9c0.2-0.6,0.9-1,1.3-1.5c0.4-0.5,0.7-1.1,1.3-1.4c0.5-0.3,1.2-0.4,1.8-0.5
					C93.9,70.1,94,70,94.2,70C94.2,70,94.2,70,94.2,70z"/>
			</g>
			<g>
				<path fill="#FFFFFF" d="M107.6,78.5c0,1.3,0.1,0.9,0.1,2.6c0,0.7,0,1.4,0,2.3c0,0.7,0.1,1.5,0.1,2.3c0,0.7,0.2,1.5,0.2,2.3
					c0,0.6-0.2,1.3-0.2,1.9c0,0.6,0.1,1.3,0.1,1.9c0,0.6-0.1,1.3-0.2,1.9c0,0.6,0.2,1.3,0.2,1.9c0,0.6-0.2,1.3-0.2,1.9
					c0,0.6,0,1.2,0,1.8c0,0.6,0.1,1.2,0.1,1.8c0,0.6,0.1,1.2,0,1.8c0,0.6-0.3,1.2-0.3,1.8c0,0.6,0,1.2,0,1.8c0,0.6,0.1,1.2,0.1,1.9
					c0,0.6,0,1.2,0,1.8c0,0.6,0.1,1.2,0.1,1.8c0,0.6-0.3,1.2-0.3,1.8c0,0.6,0.2,1.2,0.1,1.8c0,0.6-0.1,1.2-0.1,1.8
					c0,0.6,0,1.2,0,1.8c0,0.7-0.3,1.3-0.3,1.9c0,0.7,0,1.3,0,1.9c0,0.7,0,1.3,0,1.9c0,0.7-0.2,1.3-0.2,1.9c0,0.7,0.1,1.3,0.1,1.9
					c0,0.8-0.2,1.6-0.3,2.3c0,0.8-0.1,1.6-0.1,2.3c0,0.9-0.1,1.6-0.1,2.3c-0.1,1.6-0.1,1.3-0.1,2.6c0,0.7-0.2,1.4-0.7,1.9
					s-1.2,0.7-1.9,0.7c-0.6,0-1.2-0.4-1.6-0.8c-0.4-0.4-0.6-1-0.7-1.6c-0.1-1.3-0.2-0.9-0.3-2.6c-0.1-0.7-0.1-1.4-0.2-2.3
					c-0.1-0.7,0-1.5-0.1-2.3c-0.1-0.7-0.3-1.5-0.3-2.3c0-0.6,0-1.3,0-1.9c0-0.6-0.1-1.3-0.2-1.9c0-0.6-0.3-1.3-0.3-1.9
					c0-0.6,0.2-1.3,0.1-1.9c0-0.6-0.2-1.3-0.3-1.9c0-0.6-0.1-1.2-0.2-1.8c0-0.6,0-1.2-0.1-1.8c0-0.6-0.1-1.2-0.1-1.8
					c0-0.6,0.1-1.2,0-1.8c0-0.6-0.2-1.2-0.2-1.8c0-0.6,0-1.2,0-1.9c0-0.6-0.1-1.2-0.2-1.8c0-0.6,0-1.2,0-1.8c0-0.6-0.3-1.2-0.3-1.8
					c0-0.6,0.1-1.2,0.1-1.9c0-0.6,0-1.2-0.1-1.8c0-0.6-0.3-1.2-0.4-1.8c0-0.7,0-1.3,0-1.9c0-0.7,0.1-1.3,0-1.9c0-0.7,0-1.3-0.1-1.9
					c0-0.7-0.3-1.3-0.3-1.9c0-0.7,0-1.3,0-1.9c0-0.8,0.1-1.6,0.1-2.3c0-0.8-0.2-1.6-0.2-2.3c0-0.9,0.1-1.6,0.1-2.3
					c0-1.6-0.2-1.3-0.2-2.6c0-0.7,0.3-1.2,0.5-1.8c0.2-0.6,0.6-1.1,1-1.5c0.4-0.5,0.9-0.8,1.5-1.1c0.6-0.2,1.2-0.4,1.8-0.4
					c0.7,0,1.3,0,1.9,0.2c0.6,0.2,1.2,0.5,1.7,1c0.5,0.4,0.6,1.1,0.9,1.7C107.5,77.2,107.6,77.8,107.6,78.5z"/>
			</g>
		</g>
	</g>
	<g>
		<g>
			<g>
				<path fill="#FFFFFF" d="M480.6,75.9c-0.6,0-1.2-0.4-1.7-0.4c-0.6,0-1.2,0-1.7,0c-0.6,0-1.2,0.3-1.7,0.2c-0.6,0-1.2,0-1.7,0
					c-0.6,0-1.2-0.2-1.7-0.2c-0.6,0-1.2,0.3-1.7,0.3c-0.6,0-1.2,0-1.7,0c-0.6,0-1.2,0.1-1.7,0.1c-0.6,0-1.2,0-1.7,0
					c-0.6,0-1.2,0-1.7,0S462,76,461.4,76c-0.6,0-1.2,0-1.7,0.1c-0.7,0-1.4-0.1-2.1-0.1c-0.7,0-1.4,0.2-2.1,0.2
					c-0.7,0-1.4-0.2-2.1-0.2c-0.7,0-1.4,0.4-2.1,0.5c-0.7,0-1.4-0.2-2.1-0.1c-0.6,0-1.2,0-1.7,0.1c-0.6,0-1.1,0.3-1.7,0.3
					c-0.6,0-1.2,0-1.7,0c-0.6,0.1-1.1,0.4-1.7,0.5c-0.6,0-1.2,0-1.7,0.1c-0.6,0.1-1,0.1-1.5,0.1c0.6-0.9,0.5-0.9,1.2-1.7
					c0.7-0.8,1-0.5,1.7-1.3c0.7-0.8,0.6-0.9,1.3-1.7c0.7-0.8,0.6-0.8,1.4-1.6c0.7-0.8,0.8-0.7,1.5-1.5c0,0-0.2,0-0.2,0
					c-0.1,1,0,1,0,1.9c-0.1,1,0.2,1,0.1,2c-0.1,1-0.1,1-0.2,1.9c-0.1,1,0.1,1,0,2c-0.1,1-0.4,0.9-0.5,1.9c-0.1,1,0.2,1,0.2,2
					c-0.1,1-0.1,1-0.2,1.9c-0.1,1-0.2,1-0.3,1.9c-0.1,1-0.1,1-0.1,1.9c-0.1,1-0.2,1-0.2,1.9c-0.1,1,0,1,0,2s0.1,1,0.1,2
					c0,0.6,0.1,1.3,0,2c0,0.6-0.2,1.3-0.2,1.9c0,0.6-0.3,1.3-0.4,1.9c0,0.6-0.3,1.3-0.3,1.9c0,0.6,0.2,1.3,0.2,2
					c-0.1,0.6-0.2,1.3-0.2,1.9c-0.1,1,0.2,1,0.1,2c-0.1,1-0.6,0.9-0.6,1.9c-0.1,1,0.1,1,0,1.9c-0.1,1-0.1,1-0.2,1.9
					c-0.1,1-0.2,1-0.3,1.9s0.1,1,0,2c-0.1,1,0.1,1,0,1.9c-0.1,1-0.4,0.9-0.5,1.9c-0.1,1,0.2,1,0.1,2c-0.1,1-0.3,1-0.4,1.9
					c-0.1,1,0.4,1,0.3,2c-0.1,1-0.4,0.9-0.5,1.9c-0.1,1-0.2,1-0.3,1.9c-0.1,1-0.1,1-0.2,1.9c-0.1,1,0.3,1,0.2,2
					c-0.1,1-0.3,0.9-0.4,1.9c-0.1,1,0,1,0,2c-0.1,1-0.4,0.9-0.4,1.9c-0.1,1,0.3,1,0.3,2c-0.1,1-0.1,1-0.2,1.9
					c-0.1,1-0.4,0.9-0.5,1.9c-0.1,1-0.1,1-0.2,1.9s-0.2,1-0.3,1.9c-0.1,1,0,1-0.1,1.9c-0.1,1-0.2,1-0.3,1.9c-0.1,1,0.2,1,0.1,2
					c-0.1,1,0.1,1,0,2c-0.1,1-0.3,0.9-0.4,1.9c-0.1,1-0.2,1-0.3,1.9c-0.1,1,0.7,1.3-0.1,1.8c-0.7,0.4-0.7-0.3-1.3-0.9
					c-0.6-0.6-0.4-0.8-1-1.4s-0.8-0.4-1.4-0.9c0,0,0.1,0.1,0.1,0.1c0.6-0.1,1.2-0.3,1.7-0.3c0.6,0,1.2-0.1,1.8-0.1
					c0.6,0,1.2-0.1,1.7-0.1c0.6,0,1.2,0.1,1.7,0.1c0.8,0,1.5-0.1,2.3-0.2c0.8,0,1.5-0.3,2.3-0.3c0.8,0,1.5,0.4,2.3,0.4
					c0.6,0,1.2,0.2,1.7,0.2c0.6,0,1.2-0.1,1.8-0.1c0.6,0,1.2-0.2,1.8-0.2c0.6,0.1,1.1,0.4,1.7,0.4c0.6,0.1,1.2,0.2,1.8,0.3
					c0.6,0.1,1.2,0.1,1.8,0.2c0.6,0.1,1.2,0.4,1.7,0.5c0.6,0.1,1.2,0.1,1.8,0.2c0.6,0.1,1.2,0.2,1.8,0.4c0.8,0.2,0.9,0.1,1.7,0.3
					c0.8,0.2,0.7,0.5,1.6,0.7c0.7,0.2,0.8,0.1,1.5,0.3c0.5,0.1,1,0.1,1.5,0.1c0.5,0.1,1,0.4,1.5,0.5c0.8,0.1,0.8,0.2,1.6,0.3
					c0.8,0.1,0.8-0.3,1.6-0.3c0.5,0,1,0.3,1.6,0.3c0.5,0,1.1,0,1.6,0c0.5,0,1.1,0.2,1.6,0.1c0.5,0,1.1-0.2,1.6-0.3
					c0.5-0.1,1-0.2,1.6-0.3c0.5-0.1,1.1,0.1,1.6,0c0.5-0.1,1-0.2,1.5-0.3c0.5-0.1,0.9-0.7,1.4-0.8c0.1,0,0.2,0.3,0.2,0.3
					c0.7-0.2,1.3-0.3,1.9,0c0.6,0.3,1,0.8,1.2,1.5c0.2,0.6,0,1.2-0.3,1.8c-0.3,0.6-0.7,0.9-1.3,1.2c-0.6,0.2-1.1,0.7-1.7,0.9
					c-0.6,0.2-1.2,0.3-1.8,0.5c-0.6,0.1-1.2,0.1-1.8,0.2c-0.6,0.1-1.2,0.3-1.8,0.4c-0.6,0.1-1.2,0-1.8,0.1c-0.6,0.1-1.2,0-1.8,0
					c-0.6,0-1.2,0.2-1.8,0.2c-0.6,0-1.2,0.3-1.8,0.3c-0.9,0-0.9-0.2-1.8-0.2c-0.9-0.1-0.9-0.3-1.8-0.3c-0.6,0-1.2-0.1-1.8-0.2
					c-0.6-0.1-1.2-0.3-1.8-0.4c-0.9-0.2-1,0.1-1.9-0.2c-0.8-0.2-0.8-0.2-1.7-0.4c-0.8-0.2-0.8-0.1-1.7-0.4c-0.5-0.1-0.9-0.6-1.4-0.6
					c-0.5-0.1-1.1,0.1-1.6,0c-0.5-0.1-1-0.4-1.5-0.5c-0.5-0.1-1.1,0-1.6,0c-0.5-0.1-1.1-0.1-1.6-0.2c-0.5,0-1.1,0.1-1.6,0
					c-0.5,0-1.1-0.1-1.6-0.1c-0.5,0-1.1,0-1.6,0c-0.5,0-1.1-0.2-1.6-0.1c-0.7,0-1.5-0.2-2.2-0.2c-0.7,0-1.5,0.4-2.2,0.5
					c-0.7,0-1.5-0.4-2.2-0.3c-0.6,0-1.1,0.6-1.6,0.6c-0.6,0-1.1-0.2-1.7-0.1c-0.5,0-1.1,0.3-1.6,0.3c-0.6,0.1-1.1,0.2-1.6,0.3
					c0,0-0.1-0.5-0.1-0.5c-0.9,0.1-1.6,0.1-2.3-0.4s-1.3-1.1-1.4-2c0-0.2,0.1-0.3,0.1-0.5c0-0.2,0.1-0.2,0.1-0.3c0-1,0-1,0-1.9
					c0-1-0.3-1-0.3-1.9c0-1,0.5-1,0.5-1.9c0-1-0.1-1-0.1-1.9s-0.1-1-0.1-1.9c0-1-0.1-1-0.1-1.9c0-1-0.1-1-0.1-1.9c0-1,0.5-1,0.5-1.9
					c0-1-0.4-1-0.4-1.9c0-1,0.1-1,0.1-1.9c0-1,0.1-1,0.1-1.9c0-1-0.2-1-0.2-1.9c0-1,0.4-1,0.4-1.9c0-1-0.4-1-0.4-1.9
					c0-1,0.1-1,0.1-1.9c0-1,0.2-1,0.2-1.9c0-1,0.1-1,0.1-1.9c0-1-0.3-1-0.3-1.9c0-1-0.2-1-0.2-1.9c0-1-0.1-1-0.1-1.9
					c0-1,0.2-1,0.2-1.9c0-1,0.2-1,0.2-1.9c0-1-0.2-1-0.2-1.9c0-1,0-1-0.1-1.9c0-1,0.2-1,0.2-1.9c0-1-0.1-1-0.1-1.9
					c0-1-0.3-1-0.3-1.9c0-1,0-1,0-1.9c0-1-0.1-1-0.1-1.9c0-1,0.1-1,0.1-1.9c0-0.6,0-1.3,0-1.9c0-0.6,0.3-1.3,0.2-1.9
					c0-0.6-0.3-1.3-0.3-1.9c0-0.6,0.1-1.3,0.1-1.9s-0.2-1.3-0.3-1.9c0-0.6,0.2-1.3,0.2-1.9c0-1-0.1-1-0.1-1.9c0-1,0-1-0.1-1.9
					c0-1,0.2-1,0.1-1.9c0-1-0.2-1-0.2-1.9c0-1,0.2-1,0.1-1.9c0-1-0.3-1-0.3-1.9c0-1-0.1-1-0.1-1.9c0-1,0.2-1,0.2-1.9
					c0-1-0.3-1-0.4-1.9c0-1-0.1-1-0.2-1.9c0-1,0.3-1,0.2-1.9s0-1,0-1.9c0,0-0.1,0-0.1,0c0.1-0.7,0.1-0.6,0.2-1.3
					c0.1-0.7,0.1-1.4,0.4-2.1c0.3-0.7,0.5-1.4,1-1.9c0.5-0.5,1.2-0.8,1.8-1.1c0.6-0.4,1.2-0.9,1.9-1c0.7-0.2,1.4-0.3,2.1-0.3
					c0.6,0,1.2,0,1.7,0.1c0.6,0,1.2,0.2,1.7,0.3c0.6,0,1.2,0.2,1.7,0.2c0.6,0,1.2-0.3,1.7-0.3c0.6,0,1.2,0.3,1.7,0.3
					c0.6,0,1.2-0.2,1.7-0.2c0.7,0,1.4,0.4,2.1,0.4c0.7,0,1.4-0.1,2.1-0.1c0.7,0,1.4,0.1,2.1,0.1c0.7,0,1.4-0.2,2.1-0.2
					c0.7,0,1.4,0.2,2.1,0.2c0.6,0,1.2,0,1.7,0c0.6,0,1.2-0.5,1.7-0.5s1.2,0.1,1.7,0.1c0.6,0,1.2,0.2,1.7,0.1c0.6,0,1.2,0.1,1.7,0
					c0.6,0,1.2-0.1,1.7-0.1c0.6,0,1.2-0.3,1.7-0.3c0.6,0,1.2-0.2,1.7-0.2s1.2,0,1.7,0c0.6,0,1.2,0.2,1.8,0.2c0.6,0,1.1-0.4,1.7-0.4
					c0.6,0,1.2-0.1,1.7-0.2c0.6-0.1,1.3-0.1,1.9,0c0.6,0.1,1.1,0.6,1.7,0.8c0.6,0.3,1.4,0.2,1.9,0.6c0.5,0.4,1,0.9,1.3,1.4
					c0.4,0.5,0.5,1.2,0.8,1.8c0.2,0.6,0.1,1.2,0.2,1.9c0.1,0.6,0,1.2-0.1,1.8c-0.1,0.6,0.2,1.4-0.1,1.9c-0.3,0.6-0.7,1.1-1.1,1.6
					c-0.4,0.5-1,0.8-1.5,1.2c-0.5,0.4-1,0.8-1.6,1c-0.6,0.2-1.2,0.3-1.9,0.4C481.4,75.9,480.9,75.9,480.6,75.9z"/>
			</g>
			<g>
				<path fill="#FFFFFF" d="M471.3,141.3c-1.2-0.1-0.9-0.2-2.4-0.3c-0.7,0-1.5,0-2.4,0c-0.7,0-1.4,0-2.1,0c-0.7,0-1.4-0.1-2.1-0.2
					c-0.7,0-1.4-0.1-2.1-0.1c-0.7,0-1.4,0-2.1,0c-0.7,0-1.4-0.1-2.1-0.1c-0.7,0-1.4-0.1-2.1-0.1c-0.7,0-1.4,0-2.1,0
					c-0.7,0-1.4-0.2-2.1-0.2c-0.7,0-1.4,0-2.1,0c-0.7,0-1.5,0.1-2.1,0.1c-0.9,0-1.7-0.2-2.4-0.2c-1.5,0-1.2,0.1-2.4,0.1
					c-0.6,0-1.2-0.2-1.7-0.5c-0.5-0.3-0.9-0.7-1.2-1.2c-0.3-0.5-0.5-1-0.5-1.6c0-0.6,0.1-1.2,0.4-1.7c0.3-0.5,0.7-0.9,1.3-1.2
					c0.5-0.3,1.1-0.3,1.7-0.3c1.2,0,0.9-0.1,2.4-0.2c0.7,0,1.5,0.1,2.4,0.1c0.7,0,1.4-0.1,2.1-0.1c0.7,0,1.4-0.1,2.1-0.1
					c0.7,0,1.4,0,2.1,0c0.7,0,1.4,0,2.1,0c0.7,0,1.4,0,2.1-0.1c0.7,0,1.4,0,2.1,0c0.7,0,1.4-0.1,2.1-0.2c0.7,0,1.4-0.1,2.1-0.1
					c0.7,0,1.4,0,2.1-0.1c0.7,0,1.4-0.1,2.1-0.1c0.9,0,1.7-0.1,2.4-0.2c1.5-0.1,1.2,0.1,2.4,0c0.8,0,1.5,0.1,2.2,0.4
					c0.7,0.3,1.3,0.8,1.8,1.4c0.4,0.6,0.7,1.3,0.8,2.1c0,0.8-0.1,1.6-0.5,2.2c-0.4,0.7-1,1.2-1.6,1.6c-0.6,0.4-1.3,0.6-2.1,0.7
					C471.7,141.2,471.5,141.3,471.3,141.3z"/>
			</g>
		</g>
	</g>
	<g>
		<g>
			<g>
				<path fill="#FFFFFF" d="M501.3,62c1-0.1,1.7-0.2,2.6-0.3c1.2-0.1,1.2-0.4,2.4-0.5c0.8-0.1,1.6-0.4,2.4-0.4
					c0.8-0.1,1.6,0,2.4-0.1c0.6,0,1.3,0.2,2,0.2c0.6,0,1.3,0,1.9,0c0.6,0,1.3-0.3,2-0.3c0.6,0,1.3,0.3,1.9,0.3
					c0.6,0,1.3,0.2,1.9,0.3c0.7,0,1.3,0.1,2,0.2c0.7,0.1,1.3,0.1,2,0.1c0.7,0.1,1.4-0.3,2-0.2c0.7,0.1,1.2,0.6,1.9,0.7
					c0.7,0.1,1.3,0,2,0.1c0.7,0.1,1.3,0.2,2,0.3c0.7,0.1,1.4,0.1,2,0.3c0.7,0.2,1.2,0.7,1.9,0.9c0.7,0.2,1.3,0.2,2,0.4
					c0.6,0.2,1.2,0.6,1.9,0.8c0.7,0.2,1.5,0,2.1,0.3c0.7,0.3,1.1,0.9,1.8,1.2c0.6,0.3,1.3,0.5,1.9,0.8c0.6,0.3,1.4,0.4,2,0.7
					c0.6,0.3,1.2,0.7,1.8,1.1c0.6,0.4,1.2,0.8,1.8,1.2c0.6,0.4,1.2,0.8,1.8,1.3c0.6,0.5,1,1.1,1.5,1.6c0.5,0.5,0.9,1.1,1.4,1.7
					c0.5,0.5,1.3,0.8,1.8,1.4c0.4,0.5,0.7,1,1.1,1.5c0.4,0.5,0.5,1.1,0.9,1.7c0.3,0.5,0.9,0.9,1.2,1.4c0.3,0.5,0.3,0.5,0.5,1
					c0.4,0.6,0.3,0.7,0.6,1.3c0.5,0.9,1.1,1.6,1.4,2.4c0.3,0.7,0.6,1.3,0.8,2c0.2,0.7,0.4,1.4,0.6,2.1c0.2,0.7,0.3,1.4,0.4,2.1
					c0.2,0.7,0.1,1.4,0.2,2.2c0.1,0.7,0.2,1.4,0.3,2.1c0.1,0.7,0.4,1.4,0.4,2.1c0,0.7,0,1.4,0,2.1c0,0.7-0.1,1.4-0.2,2.1
					c0,0.7,0,1.4,0,2.1c-0.1,0.7-0.3,1.4-0.5,2.1c-0.1,0.7-0.1,1.4-0.2,2.1c-0.2,0.7-0.1,1.4-0.3,2.1c-0.2,0.7-0.5,1.3-0.7,2
					c-0.2,0.7-0.6,1.3-0.8,1.9c-0.2,0.7-0.3,1.4-0.6,2c-0.3,0.6-0.6,1.2-0.9,1.9c-0.3,0.6-0.9,1.1-1.3,1.7c-0.3,0.6-0.7,1.2-1.1,1.8
					c-0.4,0.6-0.7,1.1-1.1,1.7c-0.4,0.6-0.5,1.3-0.9,1.9c-0.4,0.5-0.9,1.1-1.3,1.6c-0.4,0.5-1,1-1.4,1.5c-0.5,0.5-0.9,1-1.4,1.5
					c-0.5,0.5-0.8,1.2-1.3,1.6c-0.5,0.5-1,0.9-1.6,1.3c-0.5,0.4-1.2,0.7-1.7,1.1c-0.6,0.4-1.3,0.6-1.8,1c-0.6,0.4-1,1-1.6,1.3
					c-0.6,0.3-1.2,0.7-1.8,1c-0.6,0.3-1.4,0.3-2,0.6c-0.6,0.2-0.5,0.5-1.1,0.7c-0.3,0.1-0.4-0.1-0.7,0.1c-0.1,0.1-0.2-0.1-0.4-0.1
					c-0.1,0,0,0.4-0.1,0.4c-0.1,0,0,0.2-0.1,0.2c-1.1,0.4-1.2,0-2.3,0.3c-0.8,0.2-1.6,0.4-2.4,0.6c-0.8,0.2-1.6,0.6-2.3,0.8
					c-0.6,0.1-1.3,0.1-2,0.2c-0.6,0.1-1.2,0.6-1.9,0.7c-0.6,0.1-1.3,0.1-2,0.2c-0.6,0.1-1.3-0.1-2-0.1c-0.6,0.1-1.3,0.4-1.9,0.5
					c-0.8,0-1.6-0.1-2.5-0.1c-0.8,0-1.6-0.1-2.5-0.2c-0.8,0-1.7,0.3-2.5,0.3c-0.4,0-0.9-0.1-1.3-0.1c-0.5-0.1-0.7-0.6-1.3-0.7
					c-0.1,0-0.1,0.1-0.2,0.1c-0.6-0.1-1.2-0.3-1.6-0.7c-0.4-0.4-0.8-0.9-1-1.4c-0.2-0.5-0.1-1.2,0-1.8c0.2-0.8,0.6-1.7,1.2-2.1
					c0.6-0.5,1.6-0.6,2.4-0.6c0,0,0,0.2,0,0.2c0.7,0,1.4,0.1,2,0.2c0.7,0.1,1.4-0.3,2.1-0.2c0.7,0.1,1.3,0.3,2,0.3
					c0.7,0.1,1.3,0.2,2,0.3c0.7,0.1,1.4,0.1,2.1,0.2c0.7,0.1,1.3,0.3,2,0.5c0.7,0.2,1.3,0.4,2,0.5c0.7,0.2,1.2,0.7,1.9,0.9
					c0.7,0.2,1.3,0.5,2,0.8c0.7,0.2,1.4,0.2,2.1,0.5c0.6,0.3,1.3,0.6,1.9,0.9c0.6,0.3,1.1,0.9,1.7,1.3c0.6,0.4,1.4,0.5,2,1
					c0.5,0.3,0.6,0.2,1,0.5c0.1,0.1,0.2,0.1,0.3,0.2c0.1,0.1,0.1,0.1,0.2,0.2c0.2,0.2,0,0.4,0.2,0.6s0.4-0.1,0.6,0
					c0.2,0.2,0.3,0.1,0.5,0.3c0.3,0.2,0.5,0.6,0.8,0.8c0.5,0.5,1.1,0.9,1.6,1.4c0.5,0.5,1,1,1.4,1.5c0.5,0.5,0.9,1.1,1.3,1.6
					c0.4,0.5,0.9,1.1,1.3,1.6c0.4,0.5,0.7,1.2,1.2,1.7c0.4,0.5,0.9,0.9,1.3,1.4c0.4,0.5,0.9,0.9,1.2,1.4c0.4,0.5,0.6,1.2,0.9,1.7
					c0.4,0.5,1,0.8,1.4,1.3c0.5,0.6,0.9,1.2,1.4,1.7c0.5,0.5,0.9,1.2,1.5,1.7c0.6,0.5,1.4,0.5,2.1,0.8c0.6,0.3,1.1,0.7,1.8,0.9
					c0.7,0.2,1.3,0.5,2,0.5c0.7,0,1.3-0.3,2.1-0.4c0,0,0.1,0.4,0.1,0.4c0.7-0.1,1.3,0,1.8,0.4c0.5,0.4,0.7,1,0.7,1.7
					c0.1,0.6-0.1,1.1-0.5,1.6c-0.4,0.5-0.7,1-1.4,1.1c-0.7,0.1-1.5,0.2-2.3,0.2c-0.8,0.1-1.5,0.1-2.3,0c-0.8-0.1-1.6-0.2-2.4-0.4
					c-0.8-0.2-1.5-0.5-2.2-0.8c-0.7-0.3-1.3-0.8-2-1.2c-0.7-0.4-1.3-0.9-1.9-1.3c-0.6-0.5-1.1-0.9-1.6-1.4c-0.5-0.5-1.1-0.9-1.6-1.4
					c-0.5-0.5-1-0.9-1.5-1.4c-0.5-0.5-1-0.9-1.5-1.4c-0.4-0.5-0.5-1.3-1-1.8c-0.4-0.5-0.9-1-1.4-1.5c-0.4-0.5-1-0.7-1.4-1.2
					c-0.4-0.5-0.8-0.9-1.2-1.4c-0.4-0.5-0.6-1.1-1-1.5c-0.4-0.4-0.8-1-1.2-1.4c-0.4-0.4-0.8-0.8-1.3-1.2c-0.2-0.2-0.5-0.3-0.7-0.5
					c-0.2-0.1-0.1-0.2-0.3-0.3c-0.2-0.1-0.3,0-0.5-0.2c-0.2-0.1-0.2-0.1-0.4-0.3c-0.1-0.1,0-0.2-0.1-0.3c0,0-0.1,0.1-0.2,0.1
					c0,0-0.1,0,0,0.1c0,0,0,0,0,0c0,0,0,0,0,0c0,0-0.2,0.2-0.3,0.2c-0.3-0.2-0.2-0.4-0.6-0.6c-0.5-0.3-1-0.5-1.5-0.8
					c-0.5-0.3-0.9-0.8-1.4-1.1c-0.5-0.2-1.2-0.1-1.8-0.3c-0.5-0.2-1-0.7-1.5-0.9c-0.6-0.2-1.2-0.2-1.7-0.3c-0.6-0.2-1.1-0.5-1.7-0.7
					c-0.6-0.2-1.1-0.5-1.7-0.6c-0.6-0.1-1.2-0.1-1.8-0.2c-0.6-0.1-1.2-0.2-1.8-0.3c-0.6-0.1-1.2-0.5-1.8-0.6
					c-0.6-0.1-1.2-0.1-1.9-0.2c-0.6-0.1-1.2-0.2-1.8-0.3c-0.6-0.1-1.2-0.2-1.8-0.3c0,0,0.1,0.1,0.1,0.1c0.1-1.1,0.1-1.1,0.2-2.2
					c0.1-1.1,0-1.1,0.2-2.2c0.1-1.1-0.3-1.3,0.2-2.3c0.2-0.4,0.6,0.2,1,0.2c0.3,0,0.7,0.2,1,0.2c0.7,0,1.4-0.4,2.1-0.4
					c0.7,0,1.4,0.1,2.1,0c0.7-0.1,1.4-0.3,2.1-0.4c0.7-0.1,1.4-0.2,2.1-0.4c0.7-0.1,1.5,0.2,2.2,0c0.7-0.2,1.3-0.5,2-0.7
					c0.7-0.2,1.4-0.2,2.1-0.4c0.7-0.2,1.3-0.7,1.9-0.9c0.6-0.2,1.2-0.7,1.9-1c1.1-0.4,1.2,0,2.3-0.5c0.9-0.4,0.8-0.6,1.6-1
					c0.6-0.3,1.1-0.7,1.7-1c0.6-0.3,1.2-0.6,1.7-1c0.5-0.4,1.1-0.8,1.6-1.2c0.5-0.4,1.2-0.6,1.7-1.1c0.5-0.4,0.7-1.2,1.2-1.7
					c0.5-0.5,1-0.9,1.4-1.4c0.4-0.5,0.9-1,1.3-1.5c0.4-0.5,1-0.9,1.3-1.5c0.4-0.6,0.8-1.1,1.1-1.7c0.3-0.6,0.4-1.3,0.7-1.9
					c0.3-0.6,0.7-1.1,1-1.7c0.3-0.6,0.2-1.3,0.4-2c0.2-0.6,0.8-1.1,1-1.7c0.2-0.6,0.3-1.3,0.5-1.9c0.2-0.6,0.1-1.3,0.2-2
					c0.1-0.6,0.3-1.3,0.3-1.9c0.1-0.6,0-1.3,0.1-1.9c0-0.6,0.1-1.3,0.1-1.9c0-0.6,0.2-1.3,0.1-1.9c-0.1-0.6-0.5-1.2-0.6-1.9
					c-0.1-0.6-0.1-1.2-0.2-1.8c-0.1-0.6-0.1-1.3-0.2-1.9c-0.2-0.6-0.4-1.2-0.7-1.7c-0.2-0.6-0.7-1-1-1.6c-0.3-0.6-0.3-1.2-0.6-1.6
					c-0.2-0.4-0.2-0.4-0.4-0.7c-0.3-0.5-0.4-0.4-0.8-0.9c-0.3-0.5-0.5-1-0.9-1.5c-0.4-0.5-0.8-0.9-1.2-1.3c-0.5-0.5-0.9-1.1-1.5-1.6
					c-0.5-0.5-1.3-0.7-1.8-1.1c-0.6-0.4-0.9-1.2-1.5-1.6c-0.6-0.4-1.3-0.6-2-0.9c-0.6-0.3-1.3-0.6-1.9-0.9c-0.7-0.3-1.3-0.5-2-0.8
					c-0.7-0.2-1.3-0.5-2-0.7c-0.7-0.2-1.4,0.1-2.1-0.1c-0.7-0.2-1.3-0.6-1.9-0.8c-0.7-0.1-1.3-0.3-2-0.4c-0.7-0.1-1.4-0.2-2-0.3
					c-0.7-0.1-1.4-0.1-2.1-0.2c-0.7-0.1-1.4-0.3-2-0.3c-0.7-0.1-1.4,0.1-2.1,0.1c-0.7,0-1.4-0.2-2.1-0.2c-0.7,0-1.4,0-2.1-0.1
					c-0.7,0-1.4,0-2.1,0c-0.7,0-1.4,0.1-2.1,0.1c-0.7,0-1.4-0.1-2.1,0c-0.7,0-1.4,0.4-2.1,0.4c-0.7,0.1-1.4-0.2-2.2-0.1
					c-1,0.1-1,0.3-2.1,0.4c-0.7,0.1-1.4,0.2-2,0.3c0,0,0-0.1-0.1-0.1c-0.7,0.1-1.4,0.1-2.1,0c-0.7-0.1-1.4-0.3-2-0.6
					c-0.7-0.3-1.5-0.4-2-0.9c-0.5-0.5-1-1.1-1.4-1.8c-0.3-0.6-0.2-1.5-0.4-2.2c-0.1-0.7-0.1-1.4,0-2.1c0.1-0.7,0.3-1.4,0.6-2.1
					c0.3-0.7,0.7-1.3,1.2-1.8c0.5-0.5,1.1-0.8,1.8-1.2c0.6-0.3,1.2-0.7,2-0.8C501.2,61.9,501.3,62,501.3,62z"/>
			</g>
			<g>
				<path fill="#FFFFFF" d="M519.5,69.7c0,1,0.1,0.7,0,2.1c0,0.6,0.2,1.3,0.2,2.1c0,0.7-0.3,1.4-0.3,2.2c0,0.7,0.2,1.4,0.1,2.2
					c0,0.7-0.3,1.4-0.4,2.2c0,0.7,0.1,1.4,0.1,2.2c0,0.7-0.3,1.4-0.3,2.2c0,0.6,0.3,1.3,0.3,1.9c0,0.6-0.4,1.2-0.5,1.9
					c0,0.6-0.1,1.3-0.2,1.9c0,0.6,0.1,1.3,0.1,1.9c0,0.6-0.2,1.3-0.2,1.9c0,0.6-0.2,1.3-0.2,1.9c0,0.6-0.2,1.3-0.2,1.9
					c0,0.6,0,1.3-0.1,1.9c-0.1,0.6-0.1,1.3-0.2,2c-0.1,0.6,0.1,1.3,0,2c-0.1,0.6-0.1,1.3-0.2,1.9c-0.1,0.6-0.2,1.3-0.3,1.9
					c-0.1,0.6-0.2,1.3-0.2,1.9c-0.1,0.6-0.1,1.3-0.1,2c-0.1,0.6,0,1.3-0.1,2c-0.1,0.7,0,1.3-0.1,2s-0.2,1.3-0.3,2
					c-0.1,0.7,0.2,1.3,0.1,2c-0.1,0.7-0.1,1.3-0.1,2c-0.1,0.7-0.2,1.3-0.3,1.9c-0.1,0.7-0.4,1.3-0.5,1.9c-0.1,0.7,0.2,1.3,0.1,2
					c-0.1,0.7-0.4,1.3-0.4,1.9c-0.1,0.7,0.2,1.3,0.1,2c-0.1,0.7-0.4,1.3-0.5,1.9c-0.1,0.7-0.1,1.3-0.1,2c-0.1,0.6,0.3,1.3,0.2,2
					c-0.1,0.6-0.3,1.3-0.3,1.9c-0.1,0.6-0.1,1.3-0.2,1.9c-0.1,0.6,0,1.3,0,1.9c-0.1,0.6-0.2,1.3-0.2,1.9c-0.1,0.7-0.4,1.3-0.5,1.9
					c-0.1,0.6-0.1,1.3-0.2,1.9c-0.1,0.7-0.1,1.3-0.1,1.9c-0.1,0.6,0,1.3-0.1,1.9c-0.1,0.6-0.3,1.2-0.4,1.9c-0.1,0.6,0.3,1.3,0.2,1.9
					c-0.1,0.7-0.3,1.3-0.4,1.9c-0.1,0.7-0.1,1.3-0.1,1.9c-0.1,0.7-0.3,1.3-0.3,1.9c-0.1,0.7,0,1.4,0,1.9c-0.1,1.2-0.1,0.9-0.2,1.9
					c-0.1,0.7-0.3,1.4-0.8,1.9c-0.5,0.4-1.3,0.5-2,0.5c-0.6-0.1-1.3-0.2-1.7-0.7c-0.4-0.4-0.4-1.2-0.4-1.8c0-0.9-0.4-0.6-0.4-1.9
					c0-0.5,0-1.2,0-1.9c0-0.6,0-1.2,0-1.9c0-0.6-0.1-1.2-0.1-1.9c0-0.6,0-1.2,0-1.9c0-0.6,0.1-1.2,0-1.9c0-0.6,0-1.2,0-1.9
					c0-0.6-0.2-1.2-0.2-1.9c0-0.6,0.2-1.3,0.2-1.9c0-0.6-0.4-1.3-0.5-1.9c0-0.6,0.2-1.3,0.2-1.9c0-0.6,0-1.3,0-1.9
					c0-0.6-0.1-1.3-0.1-1.9c0-0.6-0.3-1.3-0.3-1.9c0-0.6,0.1-1.3,0-1.9c0-0.6,0-1.3,0-1.9c0-0.6-0.1-1.3-0.1-2c0-0.6,0.1-1.3,0.1-2
					c0-0.6,0-1.3,0-2c0-0.6-0.3-1.3-0.3-2c0-0.7,0.2-1.3,0.2-2c0-0.7,0-1.3-0.1-2c0-0.7,0.2-1.3,0.2-2c0-0.7-0.5-1.3-0.5-2
					c0-0.7,0.1-1.3,0.1-2c0-0.7,0-1.3,0-2c0-0.7,0.1-1.3,0.1-2c0-0.7,0.2-1.3,0.2-2c0-0.7-0.4-1.3-0.4-2c0-0.7-0.1-1.3-0.2-2
					c0-0.7,0.3-1.3,0.3-2c0-0.7,0.1-1.3,0.1-2c0-0.7-0.2-1.3-0.2-2c0-0.7,0.1-1.3,0.1-2c0-0.6,0-1.3,0-1.9c0-0.6-0.4-1.3-0.4-1.9
					c0-0.6,0.3-1.3,0.3-1.9c0-0.6-0.2-1.3-0.2-1.9c0-0.6,0.1-1.3,0.1-1.9c0-0.7-0.4-1.3-0.4-1.9c0-0.7-0.1-1.3-0.1-1.9
					c0-0.7,0.4-1.3,0.4-1.9c0-0.7-0.3-1.5-0.3-2.2c0-0.8,0.3-1.5,0.3-2.2c0-0.8-0.3-1.5-0.3-2.2c0-0.8,0-1.5,0.1-2.2
					c0-0.8,0.2-1.5,0.2-2.2c0-0.8,0.2-1.5,0.2-2.1c0-1.3-0.3-1-0.3-2.1c0-0.6,0.1-1.3,0.3-1.9c0.2-0.6,0.8-1,1.2-1.5
					c0.3-0.5,0.7-0.9,1.2-1.3c0.5-0.4,0.7-1.1,1.3-1.4c0.5-0.3,1.3-0.1,1.9-0.2c0.6-0.1,1.2-0.5,1.8-0.5c0.7,0,1.5,0.2,2.1,0.5
					c0.7,0.3,1.3,0.6,1.9,1.1c0.6,0.4,1.2,0.9,1.7,1.5c0.4,0.6,0.5,1.4,0.7,2.1C519.6,68.2,519.5,69,519.5,69.7z"/>
			</g>
		</g>
	</g>
	<g>
		<path fill="#FFFFFF" d="M630.5,91.6c0-0.1,0-0.1,0-0.3c-0.1-0.3-0.1-0.8-0.4-1.4c-0.2-0.5-0.6-1-0.9-1.7c-0.2-0.5-0.3-1.2-0.6-1.8
			c-0.3-0.5-0.6-1.1-0.9-1.7c-0.3-0.6-0.7-1.2-1.1-1.8c-0.4-0.6-1.2-0.8-1.6-1.4c-0.4-0.5-0.7-1.2-1.2-1.7c-0.5-0.5-1-1-1.6-1.4
			c-0.5-0.4-1.1-0.9-1.7-1.2c-0.6-0.4-1.2-0.7-1.8-1c-0.6-0.3-1.3-0.4-2-0.7c-0.6-0.2-1.3-0.4-2-0.5c-0.7-0.1-1.4-0.1-2.1-0.2
			c-0.5-0.1-1,0-1.5,0c-0.4,0-0.4,0-0.8,0c-0.1,0-0.3-0.4-0.2-0.4c0.3,0,0.1,0,0.1-0.1c0,0,0,0.4-0.1,0.4c-0.1,0-0.1-0.4-0.1-0.4
			c-0.3,0-0.3,0.1-0.5,0.1c-0.5,0-0.5,0.1-1,0.1c-0.4,0-0.4-0.2-0.9-0.2c-0.4,0-0.4,0-0.8,0.1c-0.4,0-0.4,0.5-0.9,0.5
			c-0.6,0.1-1.2,0-1.8,0.1c-0.6,0.1-1.2,0.2-1.8,0.3c-0.6,0.1-1.2,0-1.8,0.1c-0.6,0.2-1.1,0.4-1.7,0.6c-0.6,0.2-1.2,0.8-1.8,1.1
			c-0.6,0.3-1.3,0.4-1.9,0.8c-0.6,0.3-1.3,0.6-1.8,1c-0.6,0.4-0.8,1.2-1.3,1.7c-0.5,0.5-1.3,0.6-1.7,1.2c-0.5,0.5-0.7,1.2-1.1,1.8
			c-0.4,0.5-0.7,1.1-1,1.7c-0.3,0.6-0.9,1-1.2,1.7c-0.3,0.6-0.5,1.2-0.8,1.9c-0.2,0.6-0.4,1.3-0.5,2c-0.1,0.7-0.3,1.3-0.4,2
			c-0.1,0.7-0.1,1.4-0.1,2c0,0.7,0.1,1.3,0.2,2c0,0.7,0.3,1.3,0.3,2c0.1,0.7,0.2,1.3,0.3,2c0.1,0.7,0.2,1.3,0.4,2
			c0.2,0.6,0.4,1.3,0.6,1.9c0.2,0.6,0.2,1.3,0.5,2c0.2,0.6,0.7,1.1,1,1.7c0.3,0.6,0.3,1.4,0.6,1.9c0.3,0.6,0.6,1.2,1,1.8
			c0.4,0.6,0.9,1,1.3,1.6c0.4,0.5,1,0.9,1.4,1.4c0.4,0.5,0.6,1.2,1.1,1.7c0.5,0.5,1.1,0.9,1.6,1.4c0.5,0.5,1,1,1.5,1.5
			c0.5,0.5,1.1,0.9,1.6,1.4c0.5,0.4,1.1,0.8,1.7,1.2c0.6,0.4,1.1,0.9,1.7,1.3c0.6,0.4,1.3,0.6,1.9,0.9c0.6,0.4,1.1,0.9,1.7,1.2
			c0.6,0.3,1.3,0.6,1.9,0.9c0.6,0.3,1.3,0.5,2,0.8c0.7,0.3,1.5,0.7,2.2,0.9c0.6,0.2,0.6,0,1.2,0.2c0.6,0.2,0.5,0.5,1.1,0.7
			c0.8,0.3,1.7,0.7,2.6,1c0.9,0.3,1.8,0.5,2.7,0.9c0.6,0.3,1.2,0.5,1.7,0.8c0.6,0.3,1.3,0.3,1.8,0.6c0.6,0.3,1,0.8,1.5,1.2
			c0.5,0.3,1.1,0.6,1.7,0.9c0.5,0.4,1.2,0.6,1.7,0.9c0.5,0.4,0.8,1,1.3,1.5c0.5,0.4,0.9,1,1.4,1.4c0.5,0.5,0.9,1,1.3,1.5
			c0.4,0.5,0.8,1.1,1.2,1.6c0.4,0.6,0.9,1.1,1.2,1.7c0.3,0.6,0.7,1.2,0.9,1.9c0.2,0.7,0.2,1.4,0.4,2.1c0.1,0.7,0.5,1.4,0.5,2.1
			c0,0.7,0,1.4-0.1,2.1c-0.1,0.7-0.2,1.4-0.4,2.1c-0.2,0.6-0.3,1.3-0.6,1.9c-0.2,0.6-0.7,1.2-1,1.7c-0.3,0.6-0.9,1-1.3,1.5
			c-0.4,0.6-0.7,1.2-1.2,1.8c-0.5,0.5-1,1-1.5,1.5c-0.5,0.5-0.9,1.1-1.5,1.5c-0.6,0.4-1.4,0.5-2,0.9c-0.6,0.4-1.3,0.6-1.9,0.9
			c-0.6,0.3-1.1,0.5-1.7,0.8c-0.6,0.2-1.2,0.4-1.8,0.6c-0.6,0.2-1.2,0.3-1.9,0.4c-0.6,0.1-1.3,0.2-1.9,0.2c-0.6,0.1-1.3,0.1-1.9,0.2
			c-0.8,0-1.5,0.3-2.2,0.3c-0.1,0-0.1-0.2-0.3-0.2c-0.1,0-0.1,0.4-0.2,0.4c-0.1,0-0.1-0.2-0.1-0.2c-0.2,0-0.2-0.2-0.5-0.2
			c-0.3,0-0.6-0.1-1-0.1c-0.6,0-1.4-0.3-2-0.4c-0.7-0.1-1.3-0.1-2-0.2c-0.6-0.1-1.3,0.2-1.9,0.1c-0.6-0.1-1.2-0.5-1.8-0.6
			c-0.6-0.2-1.2-0.4-1.8-0.6c-0.6-0.2-1.2-0.5-1.7-0.7c-0.7-0.2-1.4-0.3-2-0.5c-0.6-0.3-1.1-0.9-1.7-1.2c-0.6-0.3-1.3-0.5-1.9-0.9
			c-0.6-0.4-1.2-0.7-1.7-1.1c-0.6-0.4-0.9-1-1.5-1.5c-0.6-0.5-1.3-0.6-1.8-1.1c-0.5-0.5-1-1-1.4-1.4c-0.5-0.5-0.6-1.3-1-1.8
			c-0.5-0.6-0.8-1.1-1.2-1.6c-0.4-0.6-0.9-1.1-1.2-1.6c-0.3-0.5-0.8-0.8-1-1.2c-0.4-0.8-0.2-1.5-0.2-1.6c-0.3-0.7-0.3-1.3,0-1.9
			c0.3-0.6,0.7-1.2,1.4-1.5s1.4,0,2,0.3c0.6,0.3,1.3,0.7,1.5,1.4c0-0.1,0,0.7,0.7,1.9c0.3,0.5,0.9,1,1.4,1.6
			c0.4,0.5,0.6,1.3,1.1,1.9c0.4,0.5,0.9,1.1,1.5,1.6c0.5,0.4,1,0.8,1.6,1.3c0.5,0.4,1.2,0.6,1.8,1c0.6,0.4,1.1,0.8,1.7,1.1
			c0.6,0.3,1.2,0.6,1.8,0.9c0.6,0.3,1.3,0.4,1.9,0.6c0.6,0.2,1.2,0.4,1.8,0.6c0.6,0.2,1.2,0.5,1.8,0.7c0.6,0.1,1.3,0,1.9,0.1
			c0.6,0.1,1.2,0.3,1.9,0.4c0.6,0.1,1.3,0,1.9,0.1c0.6,0,1.3,0,1.9,0c0.6,0,1.3,0.3,1.9,0.2c0.6,0,1.1-0.4,1.7-0.5
			c0.6-0.1,1.2-0.1,1.8-0.3c0.6-0.2,1.1-0.5,1.6-0.7c0.6-0.2,1.3,0,1.8-0.3c0.5-0.3,1-0.7,1.5-1.1c0.5-0.3,1.1-0.6,1.6-1
			c0.5-0.4,0.6-1.1,1-1.6c0.4-0.5,0.9-0.8,1.2-1.3c0.4-0.6,0.7-1.3,1-1.9c0.3-0.7,0.6-1.4,0.7-2.1c0.1-0.7-0.3-1.4-0.4-2.2
			c-0.1-0.6-0.1-1.2-0.4-1.8c-0.3-0.5-0.8-0.9-1.2-1.4c-0.4-0.5-0.9-0.8-1.4-1.2c-0.4-0.4-0.8-0.9-1.3-1.3c-0.6-0.4-1.1-1-1.7-1.4
			c-0.6-0.4-1.3-0.7-2-1c-0.7-0.3-1.3-0.7-2-1c-0.7-0.3-1.4-0.6-2.1-0.8c-0.7-0.2-1.6-0.1-2.4-0.4c-0.8-0.2-1.4-0.5-2.3-0.7
			c-0.9-0.2-1.8-0.4-2.7-0.6c-0.9-0.2-1.8-0.5-2.8-0.7c-0.6-0.2-1.3-0.2-2-0.4c-0.6-0.2-1.2-0.5-1.8-0.8c-0.6-0.2-1.2-0.5-1.9-0.7
			c-0.6-0.3-1.2-0.5-1.8-0.8c-0.6-0.3-0.9-1.1-1.5-1.4c-0.6-0.3-1.4-0.2-1.9-0.6c-0.6-0.3-1-1-1.5-1.3c-0.6-0.4-1.3-0.4-1.9-0.8
			c-0.5-0.4-0.9-0.9-1.5-1.3c-0.5-0.4-1-0.9-1.5-1.3c-0.5-0.4-1.2-0.7-1.6-1.1c-0.5-0.4-0.8-1.1-1.3-1.6c-0.5-0.5-1-0.9-1.5-1.4
			c-0.5-0.5-1-0.9-1.4-1.5c-0.4-0.5-0.8-1.1-1.2-1.7c-0.4-0.5-0.7-1.2-1.1-1.7c-0.4-0.6-0.8-1.1-1.2-1.7c-0.4-0.6-0.6-1.2-1-1.8
			c-0.3-0.6-0.8-1.1-1.1-1.7c-0.3-0.6-0.6-1.2-0.8-1.9c-0.3-0.6-0.6-1.2-0.8-1.9c-0.3-0.6-0.8-1.2-1-1.8c-0.2-0.6-0.3-1.4-0.4-2
			c-0.2-0.7-0.2-1.4-0.4-2c-0.2-0.7-0.6-1.3-0.7-2c-0.1-0.7-0.3-1.4-0.3-2.1c-0.1-0.7-0.3-1.4-0.3-2.1c-0.1-0.7,0-1.4,0-2.1
			c0-0.7,0.1-1.4,0.1-2.1c0-0.7,0-1.4,0-2.1c0.1-0.7,0.1-1.4,0.2-2.1c0.1-0.7,0.4-1.4,0.5-2.1c0.1-0.7,0.6-1.3,0.8-2
			c0.2-0.7,0.3-1.4,0.6-2c0.2-0.7,0.4-1.3,0.7-2c0.3-0.6,0.4-1.3,0.8-2c0.3-0.6,0.6-1.3,0.9-1.9c0.3-0.6,0.5-1.3,0.9-1.9
			c0.4-0.6,1-1,1.4-1.6c0.4-0.6,0.8-1.2,1.2-1.7c0.5-0.5,1.1-0.9,1.6-1.4c0.5-0.5,1-1,1.5-1.5c0.5-0.4,1.1-0.8,1.6-1.2
			c0.5-0.4,0.9-1,1.4-1.4c0.5-0.4,1.3-0.5,1.8-0.8c0.6-0.3,1-0.9,1.6-1.2c0.6-0.3,1.3-0.4,1.9-0.7c0.6-0.3,1.2-0.6,1.8-0.9
			c0.7-0.3,1.3-0.7,2-0.9c0.7-0.2,1.4-0.2,2.1-0.4c0.7-0.2,1.4-0.2,2.1-0.4c0.7-0.2,1.4-0.4,2.1-0.5c0.7-0.1,1.4-0.1,2.1-0.2
			c0.4-0.1,0.8-0.3,1.2-0.4c0.4,0,0.9,0.2,1.3,0.1c0.4,0,0.8-0.1,1.3-0.2c0.5,0,0.5-0.1,1-0.2c0.3,0,0.3,0.2,0.5,0.2
			c0.2,0,0.2-0.3,0.4-0.3c0.2,0,0.2-0.1,0.3-0.1c0.4,0,0.8-0.1,1.3-0.1c0.8,0,1.7,0.2,2.5,0.3c0.7,0,1.3,0.1,2,0.2
			c0.7,0.1,1.3,0.3,1.9,0.5c0.6,0.1,1.3,0.2,1.9,0.3c0.6,0.2,1.3,0.3,1.9,0.5c0.6,0.2,1.1,0.7,1.8,0.9c0.6,0.2,1.2,0.2,1.8,0.5
			c0.6,0.2,1.1,0.4,1.7,0.7c0.5,0.3,1.1,0.6,1.6,0.9c0.5,0.3,1,0.6,1.5,1c0.5,0.3,0.8,0.9,1.3,1.3c0.6,0.4,1,0.8,1.6,1.3
			c0.5,0.4,1.1,0.8,1.6,1.2c0.5,0.5,1.2,0.7,1.7,1.2c0.5,0.5,0.7,1.2,1.1,1.7c0.5,0.5,0.9,1,1.3,1.5c0.4,0.5,1,1,1.4,1.5
			c0.4,0.6,0.7,1.2,1,1.7c0.4,0.6,0.9,1.2,1.3,1.8c0.4,0.7,0.6,1.4,1,2c0.4,0.7,0.7,1.3,1,2c0.3,0.7,0.9,1.3,1.1,1.9
			c0.4,1,0.5,1.8,0.7,2.3c0.2,0.5,0.1,1.1,0,1c0.2,0.7,0.5,1.3,0.5,2c0,0.7-0.1,1.4-0.2,2.1c-0.2,0.7-0.4,1.4-0.7,2
			c-0.4,0.6-1,1-1.5,1.5c-0.5,0.5-0.9,1.1-1.5,1.5c-0.6,0.3-1.3,0.6-2,0.8c-0.7,0.2-1.4,0.2-2.1,0.2c-0.7,0-1.5,0.1-2.1-0.1
			c-0.7-0.2-1.3-0.6-1.9-0.9c-0.6-0.4-1.1-0.9-1.6-1.4c-0.5-0.5-1-1-1.3-1.6C631,93,630.7,92.3,630.5,91.6z"/>
	</g>
	<g>
		<path fill="#FFFFFF" d="M175.6,69.7c-0.1,1-0.4,0.7-0.5,2.1c0,0.6-0.1,1.3-0.1,2.1c0,0.6,0.3,1.3,0.2,2.1c0,0.6-0.1,1.3-0.1,2.1
			c0,0.7-0.4,1.3-0.4,2.1c0,0.7,0.3,1.4,0.2,2.1c0,0.7-0.1,1.3-0.1,2.1c0,0.7,0,1.4,0,2.1c0,0.7-0.2,1.3-0.2,2c0,0.7-0.2,1.3-0.2,2
			c0,0.7,0,1.4,0,2.1c0,0.7-0.1,1.4-0.1,2.1c0,0.7-0.3,1.3-0.3,2c0,0.7,0.1,1.4,0.1,2.1c0,0.7-0.5,1.3-0.5,2c0,0.7,0.4,1.4,0.3,2.1
			c0,0.7-0.4,1.3-0.4,2c0,0.7-0.1,1.4-0.2,2.1c0,0.7,0.2,1.4,0.2,2.1c0,0.7-0.2,1.4-0.2,2.1c0,0.7,0.3,1.4,0.3,2.1
			c0,0.7-0.2,1.4-0.2,2.1c0,0.7-0.6,1.3-0.6,2c0,0.7,0.4,1.3,0.3,2c0,0.7-0.5,1.3-0.5,2c0,0.7,0.3,1.3,0.3,2c0,0.7,0.1,1.3,0.1,2
			c0,0.7-0.2,1.3-0.2,2c0,0.7-0.4,1.3-0.4,2c0,0.7,0.1,1.3,0.1,2c0,0.7,0.3,1.3,0.2,2c0,0.7-0.1,1.3-0.1,2c0,0.7,0.1,1.3,0.1,2
			c0,0.6-0.5,1.3-0.5,1.9c0,0.6,0.4,1.3,0.4,2c0,0.6-0.1,1.3-0.1,2c0,0.7-0.2,1.3-0.2,2c0,0.7,0,1.3,0,2c0,0.7-0.1,1.3-0.1,2
			c0,1,0.2,1.9,0.2,2.9c0.1,0.9,0.4,2.1,0.5,3c0.1,0.7,0.3,1.3,0.4,2c0.1,0.7,0,1.3,0.1,2c0.1,0.7-0.1,1.4,0,2c0.1,0.7,0,1.4,0.2,2
			c0.1,0.7,0.7,1.2,0.8,1.9c0.2,0.7,0.2,1.3,0.4,2c0.2,0.7,0.7,1.2,0.9,1.8c0.2,0.6-0.2,1.5,0,2.1c0.2,0.6,0.6,1.2,0.9,1.8
			c0.2,0.6,0.5,1.3,0.7,1.9c0.3,0.6,0.4,1.3,0.7,1.9c0.3,0.6,0.8,1.1,1.2,1.6c0.3,0.6,0.8,1.1,1.2,1.6c0.4,0.6,0.4,1.3,0.8,1.9
			c0.4,0.5,1.1,0.8,1.5,1.3c0.4,0.5,0.7,1.2,1.1,1.6c0.5,0.5,1.3,0.5,1.8,0.9c0.5,0.4,0.7,1.2,1.3,1.5c0.5,0.4,1,0.8,1.6,1.2
			c0.6,0.3,1.1,0.7,1.7,1c0.6,0.3,1.4,0.1,2,0.3c0.6,0.3,1.1,0.8,1.8,1c0.6,0.2,1.3,0.2,2,0.3c0.7,0.1,1.3,0.6,1.9,0.7
			c0.5,0.1,1.1-0.4,1.6-0.3c0.5,0,1,0.1,1.5,0.1c0.5,0,1,0.4,1.6,0.4c0.5,0,1.1,0.1,1.6,0c0.7,0,1.4,0,2.1,0
			c0.7-0.1,1.4-0.3,2.1-0.3c0.7-0.1,1.4-0.1,2.1-0.2c0.7-0.1,1.3-0.6,2-0.7c0.7-0.2,1.3-0.6,2-0.7c0.7-0.2,1.4-0.1,2.1-0.3
			c0.6-0.2,1.3-0.3,1.9-0.6c0.6-0.3,1.3-0.5,1.9-0.8c0.6-0.3,1-1,1.6-1.3c0.6-0.3,1.4-0.4,1.9-0.7c0.6-0.4,0.9-1.1,1.4-1.5
			c0.5-0.4,1.4-0.5,1.9-0.9c0.5-0.5,0.8-1.1,1.2-1.6c0.4-0.5,0.9-1,1.3-1.5c0.4-0.5,0.8-1.1,1.2-1.6c0.4-0.5,0.9-1,1.2-1.6
			c0.3-0.6,0.5-1.2,0.9-1.8c0.3-0.6,0.2-1.4,0.5-2c0.3-0.6,0.9-1.1,1.2-1.7c0.2-0.6,0.6-1.2,0.8-1.8c0.2-0.6,0.2-1.4,0.3-2
			c0.2-0.6,0-1.4,0.2-2c0.2-0.7,0.6-1.2,0.8-1.9c0.1-0.7,0.3-1.3,0.4-2c0.1-0.7,0.2-1.3,0.3-2c0.1-0.7,0.4-1.3,0.5-2
			c0.1-0.7,0-1.4,0-2c0.1-0.5,0-1,0-1.5c0-0.5-0.1-1-0.1-1.5c0.1-0.8,0.4-0.7,0.4-1.5c0-0.4-0.1-0.4,0-0.8c0-0.1-0.2-0.1-0.2-0.2
			c0,0,0.3,0,0.3-0.1c0-0.1,0.2,0.2,0.2,0c0-0.2-0.5-0.2-0.5-0.4c0-0.5,0.3-1,0.3-1.5c0-0.5,0-1,0-1.5c0-1,0.2-1.9,0.2-2.9
			c0-0.6-0.2-1.3-0.2-1.9c0-0.6-0.2-1.3-0.2-1.9c0-0.6,0.2-1.3,0.2-1.9c0-0.7,0-1.3-0.1-2c0-0.7-0.6-1.3-0.7-2c0-0.7,0.4-1.4,0.3-2
			c0-0.7-0.4-1.3-0.4-2c-0.1-0.7-0.1-1.3-0.1-2c-0.1-0.7,0.1-1.3,0.1-2c-0.1-0.7-0.1-1.3-0.2-2c-0.1-0.7-0.5-1.3-0.6-1.9
			c-0.1-0.7-0.1-1.3-0.2-2c-0.1-0.7,0.1-1.3,0-2c-0.1-0.7-0.3-1.3-0.4-2c-0.1-0.7,0.1-1.4,0-2.1c-0.1-0.7,0-1.4,0-2.1
			c-0.1-0.7-0.3-1.4-0.3-2c-0.1-0.7-0.5-1.3-0.6-2c-0.1-0.7,0-1.4,0-2.1c-0.1-0.7,0.1-1.4,0-2.1c-0.1-0.7-0.2-1.4-0.2-2.1
			c-0.1-0.7,0-1.4-0.1-2.1c-0.1-0.7-0.4-1.3-0.5-2c-0.1-0.7-0.2-1.4-0.3-2c-0.1-0.7-0.3-1.4-0.3-2c-0.1-0.7,0.2-1.4,0.1-2.1
			c-0.1-0.7-0.6-1.3-0.7-2c-0.1-0.7,0.2-1.4,0.1-2.1c-0.1-0.7-0.4-1.4-0.5-2c-0.1-0.7-0.1-1.4-0.2-2c-0.1-0.6-0.3-1.2-0.4-1.8
			c-0.1-0.6-0.1-1.3-0.2-1.8c-0.1-0.6-0.2-1.3-0.3-1.8c-0.1-0.7,0-1.3-0.1-1.9c-0.1-0.7,0.1-1.3,0.1-1.9c-0.1-0.6-0.7-1.1-0.7-1.5
			c-0.1-1.1,0.5-0.9,0.3-1.7c0,0-0.6,0.1-0.6,0.1c-0.1-0.6,0.2-1.3,0.3-2c0.1-0.6-0.1-1.3,0.1-2c0.2-0.6,0.4-1.3,0.7-1.8
			c0.3-0.6,1.2-0.7,1.7-1.1c0.4-0.5,0.7-1,1.3-1.4c0.5-0.4,1-0.9,1.6-1.1c0.6-0.2,1.3-0.3,1.9-0.3c0.6-0.1,1.3,0,1.9,0.1
			c0.6,0.1,1.3,0.2,1.9,0.4c0.6,0.2,1.4,0.1,1.9,0.4c0.6,0.3,0.7,1.2,1.2,1.6c0.5,0.4,0.9,0.8,1.3,1.4c0.4,0.5,0.8,1,1,1.6
			c0.2,0.6,0.6,1.2,0.7,1.8c0,0.3,0.2,0.7,0.2,1.1c0,1.1-0.6,0.7-0.6,2.1c0,0.6,0.5,1.3,0.6,2.1c0,0.6-0.1,1.3-0.1,2.1
			c0,0.7-0.1,1.4-0.1,2.1c0,0.7,0.3,1.4,0.3,2.1c0,0.7-0.5,1.4-0.5,2.1c0,0.7,0.5,1.3,0.5,2.1c0,0.7-0.1,1.4-0.1,2.1
			c0,0.7-0.2,1.4-0.2,2.1c0,0.7-0.1,1.4-0.1,2.1c0,0.7,0.4,1.4,0.4,2.1c0,0.7,0.3,1.4,0.3,2.1c0,0.7,0.1,1.4,0.1,2.1
			c0,0.7-0.3,1.4-0.3,2.1c0,0.7-0.3,1.4-0.3,2.1c0,0.7,0.3,1.4,0.3,2.1c0,0.7,0.1,1.4,0.1,2.1c0,0.7-0.2,1.4-0.2,2.1
			c0,0.7,0.1,1.4,0.1,2.1c0,0.7,0.3,1.4,0.3,2.1c0,0.7,0,1.4,0,2.1c0,0.7,0.1,1.4,0.1,2.1c0,0.7-0.2,1.3-0.2,2c0,0.7,0,1.3,0,2
			c0,0.7-0.4,1.4-0.4,2c0,0.7,0.4,1.3,0.4,2c0,0.7-0.1,1.3-0.1,2c0,0.7,0.3,1.3,0.3,2c0,0.7-0.3,1.3-0.3,2c0,0.7,0.1,1.4,0.1,2
			c0,0.7,0,1.3,0,2c0,0.7-0.3,1.3-0.3,2c0,0.7,0.2,1.4,0.2,2c0,0.7-0.3,1.4-0.3,2c0,0.7,0.3,1.4,0.3,2.1c0,0.7,0,1.4-0.1,2.1
			c0,0.5-0.4,1-0.4,1.6c0,0.5,0.3,1.1,0.3,1.6c-0.1,0.5,0,1,0,1.5c-0.1,0.5-0.5,1-0.6,1.5c0,0.5-0.1,0.4-0.2,0.9c0,0.4,0,0.4,0,0.8
			c-0.1,0.8-0.2,0.8-0.3,1.6c-0.1,0.5,0,1.1,0,1.6c-0.1,0.5,0,1.1-0.1,1.6c-0.1,0.7-0.6,1.4-0.8,2.1c-0.1,0.7,0,1.5-0.1,2.2
			c-0.2,0.7-0.2,1.5-0.4,2.2c-0.2,0.6-0.3,1.3-0.5,2c-0.2,0.6-0.6,1.2-0.8,1.9c-0.2,0.6-0.5,1.2-0.8,1.9c-0.2,0.6,0,1.4-0.3,2
			c-0.2,0.6-0.9,1.1-1.1,1.7c-0.3,0.6-0.2,1.4-0.5,2c-0.3,0.6-1,1-1.3,1.6c-0.3,0.6-0.5,1.3-0.8,1.9c-0.3,0.6-0.9,1.1-1.2,1.7
			c-0.4,0.6-0.6,1.3-1,1.9c-0.4,0.6-1,1-1.5,1.5c-0.4,0.6-0.9,1-1.4,1.6c-0.5,0.5-0.5,1.4-1,1.9c-0.5,0.5-1.2,0.8-1.7,1.3
			c-0.5,0.4-1.1,0.6-1.6,1c-0.5,0.4-1.1,0.7-1.6,1c-0.5,0.4-1,0.7-1.5,1.1c-0.5,0.3-0.9,0.9-1.5,1.2c-0.5,0.3-1,0.7-1.6,1
			c-0.6,0.3-1.2,0.5-1.7,0.7c-0.6,0.3-1.3,0.1-1.9,0.4c-0.6,0.2-1,0.8-1.6,1c-0.6,0.2-1.2,0.4-1.8,0.5c-0.6,0.2-1.2,0.4-1.8,0.6
			c-0.6,0.1-1.3-0.1-1.9,0c-0.6,0.1-1.1,0.8-1.7,0.9c-0.6,0.1-1.2,0.2-1.8,0.3c-0.6,0.1-1.3-0.1-1.9,0c-0.9,0.1-0.9-0.2-1.7-0.1
			c-1,0.1-1,0-1.9,0c-0.6,0-1.2,0.6-1.8,0.6c-0.6,0-1.2-0.1-1.9-0.1c-0.6,0-1.2-0.3-1.9-0.4c-0.6,0-1.3,0.1-1.9,0
			c-0.6-0.1-1.2-0.2-1.9-0.4c-0.6-0.1-1.2-0.6-1.8-0.7c-0.6-0.2-1.3-0.2-1.9-0.4c-0.6-0.2-1.2-0.4-1.8-0.7c-0.6-0.2-1.2-0.3-1.8-0.6
			c-0.6-0.2-1.4-0.1-1.9-0.4c-0.6-0.3-1-0.9-1.5-1.2c-0.6-0.3-1.3-0.4-1.8-0.8c-0.5-0.3-0.9-0.9-1.4-1.3c-0.5-0.4-1.3-0.5-1.8-0.9
			c-0.5-0.4-0.8-1.1-1.2-1.5c-0.5-0.4-0.9-0.9-1.4-1.3c-0.5-0.5-1.1-0.9-1.6-1.4c-0.5-0.5-1-1-1.5-1.5c-0.4-0.6-0.4-1.5-0.8-2.1
			c-0.4-0.6-0.9-1.1-1.3-1.6c-0.4-0.6-0.9-1.1-1.3-1.7c-0.4-0.6-0.7-1.2-1.1-1.8c-0.3-0.6-0.9-1.1-1.2-1.8c-0.3-0.6-0.1-1.4-0.3-2
			c-0.3-0.6-0.9-1.1-1.2-1.7c-0.3-0.6-0.5-1.3-0.7-1.9c-0.2-0.6-0.5-1.2-0.7-1.9c-0.2-0.6,0-1.4-0.2-2c-0.2-0.6-0.4-1.3-0.6-1.9
			c-0.2-0.6-0.5-1.2-0.7-1.9c-0.2-0.7-0.1-1.5-0.3-2.2c-0.2-0.7-0.7-1.4-0.9-2.1c-0.2-0.7,0-1.5-0.1-2.3c-0.1-0.6-0.2-1.1-0.3-1.6
			c-0.1-0.5-0.2-1-0.3-1.6c-0.1-0.5-0.1-1.1-0.2-1.6c-0.1-0.5-0.6-1-0.7-1.6c-0.1-0.7-0.1-1.4-0.2-2.1c-0.1-0.7,0.1-1.4,0-2.1
			c-0.1-0.7,0.1-1.4,0-2.1c-0.1-0.7-0.3-1.3-0.3-2c-0.1-0.7-0.1-1.3-0.2-2c-0.1-0.7,0-1.4,0-2c0-0.7-0.4-1.3-0.4-2
			c0-0.7,0.1-1.4,0.1-2c0-0.7-0.1-1.4-0.1-2c0-0.7-0.4-1.3-0.4-2c0-0.7,0.5-1.4,0.5-2.1c0-0.7-0.3-1.3-0.3-2c0-0.7-0.2-1.4-0.2-2
			c0-0.7,0-1.4,0-2c0-0.7-0.1-1.4-0.1-2c0-0.7,0.2-1.4,0.2-2c0-0.7-0.3-1.3-0.3-2c0-0.7,0.1-1.3,0.1-2c0-0.7-0.2-1.3-0.2-2
			c0-0.7,0.1-1.3,0.1-2c0-0.7-0.4-1.3-0.5-1.9c0-0.7,0.3-1.3,0.3-2c0-0.7,0-1.3,0-2c0-0.7-0.6-1.3-0.6-1.9c0-0.7,0.1-1.3,0.1-2
			c0-0.7,0.3-1.3,0.2-2c0-0.7,0-1.3,0-2c0-0.7-0.6-1.3-0.6-1.9c0-0.7,0.1-1.3,0.1-2c0-0.7,0.2-1.3,0.2-2c0-0.7-0.3-1.3-0.3-1.9
			c0-0.7,0.3-1.3,0.3-2c0-0.7-0.3-1.3-0.3-1.9c0-0.7,0.4-1.3,0.4-2c0-0.7,0-1.4,0-2.1c0-0.7-0.1-1.4-0.1-2.1c0-0.7-0.1-1.5-0.1-2.1
			c0-0.8-0.3-1.5-0.3-2.1c0-0.8-0.2-1.5-0.2-2.1c0-1.4,0.5-1.1,0.5-2.1c0-0.7,0.1-1.3,0.2-1.9c0.1-0.6,0.3-1.2,0.6-1.8
			c0.3-0.6,0.5-1.2,0.9-1.7c0.4-0.5,0.9-0.9,1.4-1.3c0.5-0.4,0.8-1.2,1.3-1.5c0.6-0.3,1.3-0.5,1.9-0.7c0.6-0.2,1.3-0.2,2-0.2
			c0.7,0,1.3,0.5,1.9,0.7c0.6,0.1,1.3,0.2,1.8,0.5c0.6,0.3,1.3,0.4,1.8,0.8c0.5,0.4,1.1,0.8,1.5,1.3c0.4,0.5,0.7,1.1,1,1.7
			c0.3,0.6,0.3,1.3,0.5,1.9c0.2,0.6,0.4,1.3,0.4,1.9c0,0.2-0.3,0.5-0.3,0.7C175.4,69.6,175.6,69.6,175.6,69.7z"/>
	</g>
</g>
</svg>
